<svg id="logo4" xmlns="http://www.w3.org/2000/svg" width="50.947" height="55.087" viewBox="0 0 50.947 55.087">
  <g id="Grupo_215" data-name="Grupo 215" transform="translate(0 0)">
    <g id="Grupo_212" data-name="Grupo 212" transform="translate(12.737)">
      <path id="Caminho_362" data-name="Caminho 362" d="M130.254,344.359l.323-.559,6.691-11.588-5.723-9.91-12.737,22.058,12.737,22.058,5.723-9.91-6.691-11.588Z" transform="translate(-118.809 -322.301)" fill="#403449"/>
    </g>
    <g id="Grupo_213" data-name="Grupo 213">
      <path id="Caminho_363" data-name="Caminho 363" d="M92.737,354.828l-4.754,8.233-10.8-18.7,10.8-18.7,4.754,8.233.969-1.678-5.723-9.91L75.246,344.359l12.737,22.058,5.723-9.91Z" transform="translate(-75.246 -322.301)" fill="#403449"/>
    </g>
    <g id="Grupo_214" data-name="Grupo 214" transform="translate(25.474 0.484)">
      <path id="Caminho_364" data-name="Caminho 364" d="M185.528,379.931l.01.006V376.38l-8.032,13.91,1.02,1.767Z" transform="translate(-173.081 -361.053)" fill="#403449"/>
      <path id="Caminho_365" data-name="Caminho 365" d="M182.129,363.3l.01.006v-3.557L172.7,376.086l1.02,1.767Z" transform="translate(-169.683 -349.281)" fill="#403449"/>
      <path id="Caminho_366" data-name="Caminho 366" d="M163.6,347.665l11.214-19.421.01.006v-4.292l-12.457,21.573Z" transform="translate(-162.372 -323.958)" fill="#403449"/>
      <path id="Caminho_367" data-name="Caminho 367" d="M178.731,346.659l.01.006v-3.557L167.9,361.882l1.02,1.767Z" transform="translate(-166.284 -337.509)" fill="#403449"/>
      <path id="Caminho_368" data-name="Caminho 368" d="M206.891,323.957V367.1l12.457-21.574Z" transform="translate(-193.874 -323.957)" fill="#403449"/>
      <path id="Caminho_369" data-name="Caminho 369" d="M188.927,396.568l.01.006v-3.558l-6.628,11.478,1.02,1.767Z" transform="translate(-176.48 -372.825)" fill="#403449"/>
      <path id="Caminho_370" data-name="Caminho 370" d="M192.326,413.2l.01.006v-3.558l-5.223,9.046,1.02,1.767Z" transform="translate(-179.879 -384.597)" fill="#403449"/>
      <path id="Caminho_371" data-name="Caminho 371" d="M201.742,455.692l-1.337,2.315,1.337,2.315Z" transform="translate(-189.285 -417.175)" fill="#403449"/>
      <path id="Caminho_372" data-name="Caminho 372" d="M197.413,448.307l1.711-2.963.01.006v-2.426l-2.415,4.182.694,1.2Z" transform="translate(-186.677 -408.141)" fill="#403449"/>
      <path id="Caminho_373" data-name="Caminho 373" d="M195.724,429.84l.01.006v-3.557l-3.819,6.614,1.02,1.767Z" transform="translate(-183.278 -396.369)" fill="#403449"/>
    </g>
  </g>
  <g id="Grupo_216" data-name="Grupo 216" transform="translate(9.624 49.206)">
    <path id="Caminho_374" data-name="Caminho 374" d="M111.912,493.951a1.417,1.417,0,0,1,.338.943,1.465,1.465,0,0,1-.488,1.151,2.063,2.063,0,0,1-1.414.434h-2.186V490.6h2.152a2.016,2.016,0,0,1,1.343.392,1.511,1.511,0,0,1,.154,1.994,1.38,1.38,0,0,1-.78.45A1.542,1.542,0,0,1,111.912,493.951Zm-2.991-.776h1.268a1.263,1.263,0,0,0,.855-.259.912.912,0,0,0,.3-.726.9.9,0,0,0-.292-.709,1.317,1.317,0,0,0-.893-.259h-1.235Zm2.215,2.394a.956.956,0,0,0,.33-.776.946.946,0,0,0-.338-.772,1.432,1.432,0,0,0-.939-.28h-1.268v2.1h1.285A1.412,1.412,0,0,0,111.136,495.57Z" transform="translate(-108.162 -490.598)" fill="#403449"/>
    <path id="Caminho_375" data-name="Caminho 375" d="M134.221,496.479l-1.535-2.4h-.826v2.4H131.1V490.6h1.935a2.1,2.1,0,0,1,1.5.48,1.681,1.681,0,0,1,.5,1.272,1.645,1.645,0,0,1-.4,1.155,1.87,1.87,0,0,1-1.16.546l1.6,2.427Zm-2.361-2.953h1.109q1.293,0,1.293-1.134t-1.293-1.134H131.86Z" transform="translate(-124.394 -490.598)" fill="#403449"/>
    <path id="Caminho_376" data-name="Caminho 376" d="M155.8,495.382H153.21l-.492,1.36H151.9l2.177-5.772h.859l2.169,5.772h-.817Zm-.217-.592-1.076-2.97-1.076,2.97Z" transform="translate(-139.112 -490.861)" fill="#403449"/>
    <path id="Caminho_377" data-name="Caminho 377" d="M182.606,496.479h-.759l-3.053-4.646v4.646h-.759V490.6h.759l3.053,4.655V490.6h.759Z" transform="translate(-157.605 -490.598)" fill="#403449"/>
    <path id="Caminho_378" data-name="Caminho 378" d="M208.137,495.09a2.458,2.458,0,0,1-1.055,1.026,3.577,3.577,0,0,1-1.673.363h-1.869V490.6h1.869a3.651,3.651,0,0,1,1.673.354,2.412,2.412,0,0,1,1.055,1.018,3.568,3.568,0,0,1,0,3.12Zm-1.026.113a2.22,2.22,0,0,0,.609-1.668,2.243,2.243,0,0,0-.6-1.673,2.411,2.411,0,0,0-1.764-.6H204.3v4.53h1.051A2.423,2.423,0,0,0,207.112,495.2Z" transform="translate(-175.654 -490.598)" fill="#403449"/>
  </g>
</svg>
