<svg id="logo9" xmlns="http://www.w3.org/2000/svg" width="65.484" height="46.692" viewBox="0 0 65.484 46.692">
  <rect id="Retângulo_124" data-name="Retângulo 124" width="8.873" height="8.873" rx="4.437" transform="translate(8.991 14.255)" fill="#0064aa"/>
  <path id="Caminho_333" data-name="Caminho 333" d="M449.5,80.4A12.876,12.876,0,0,0,436.66,67.564h0A12.876,12.876,0,0,0,423.822,80.4h0V99.163S449.5,96.3,449.5,80.4v0Z" transform="translate(-403.333 -67.564)" fill="#0064aa"/>
  <path id="Caminho_334" data-name="Caminho 334" d="M353.746,165.118v0h0a8.958,8.958,0,0,0,8.932,8.932h0a8.959,8.959,0,0,0,8.932-8.932h0V152.068S353.748,154.057,353.746,165.118Zm8.932,2.349a2.347,2.347,0,1,1,2.347-2.347A2.354,2.354,0,0,1,362.678,167.468Z" transform="translate(-353.746 -127.361)" fill="#0064aa"/>
  <g id="Grupo_203" data-name="Grupo 203" transform="translate(20.642 35.503)">
    <path id="Caminho_335" data-name="Caminho 335" d="M425.867,194.61a2.856,2.856,0,0,1-1.117-1.072,3.13,3.13,0,0,1,0-3.087,2.889,2.889,0,0,1,1.122-1.072,3.291,3.291,0,0,1,1.6-.388,3.33,3.33,0,0,1,1.31.25,2.672,2.672,0,0,1,1,.726l-.7.659a2.044,2.044,0,0,0-1.56-.684,2.184,2.184,0,0,0-1.076.263,1.894,1.894,0,0,0-.743.73,2.237,2.237,0,0,0,0,2.119,1.9,1.9,0,0,0,.743.73,2.187,2.187,0,0,0,1.076.263,2.032,2.032,0,0,0,1.56-.692l.7.667a2.671,2.671,0,0,1-1.005.726,3.361,3.361,0,0,1-1.314.25A3.288,3.288,0,0,1,425.867,194.61Z" transform="translate(-424.345 -188.991)" fill="#0064aa"/>
    <path id="Caminho_336" data-name="Caminho 336" d="M446.2,194.61a2.868,2.868,0,0,1-1.126-1.076,3.1,3.1,0,0,1,0-3.079,2.871,2.871,0,0,1,1.126-1.076,3.537,3.537,0,0,1,3.22,0,2.886,2.886,0,0,1,1.127,1.072,3.119,3.119,0,0,1,0,3.087,2.881,2.881,0,0,1-1.127,1.072,3.535,3.535,0,0,1-3.22,0Zm2.662-.826a1.905,1.905,0,0,0,.734-.734,2.22,2.22,0,0,0,0-2.111,1.9,1.9,0,0,0-.734-.734,2.234,2.234,0,0,0-2.1,0,1.9,1.9,0,0,0-.734.734,2.222,2.222,0,0,0,0,2.111,1.9,1.9,0,0,0,.734.734,2.236,2.236,0,0,0,2.1,0Z" transform="translate(-438.721 -188.991)" fill="#0064aa"/>
    <path id="Caminho_337" data-name="Caminho 337" d="M475.478,195.116l-.008-3.871-1.919,3.2h-.484l-1.919-3.154v3.821h-1.034v-5.84h.893l2.319,3.871,2.278-3.871h.893l.008,5.84Z" transform="translate(-456.732 -189.193)" fill="#0064aa"/>
    <path id="Caminho_338" data-name="Caminho 338" d="M501.088,189.526a1.924,1.924,0,0,1,.863.717,2.193,2.193,0,0,1,0,2.215,1.912,1.912,0,0,1-.863.722,3.232,3.232,0,0,1-1.322.25h-1.318v1.685h-1.085v-5.84h2.4A3.232,3.232,0,0,1,501.088,189.526Zm-.3,2.686a1.19,1.19,0,0,0,0-1.719,1.667,1.667,0,0,0-1.077-.3h-1.268v2.319h1.268A1.667,1.667,0,0,0,500.792,192.213Z" transform="translate(-476.014 -189.193)" fill="#0064aa"/>
    <path id="Caminho_339" data-name="Caminho 339" d="M518.583,193.764h-2.92l-.576,1.352H513.97l2.628-5.84h1.068l2.636,5.84h-1.135Zm-.358-.851-1.1-2.553-1.093,2.553Z" transform="translate(-487.766 -189.193)" fill="#0064aa"/>
    <path id="Caminho_340" data-name="Caminho 340" d="M543.356,189.276v5.84h-.892l-3.22-3.954v3.954h-1.076v-5.84h.893l3.22,3.954v-3.954Z" transform="translate(-504.888 -189.193)" fill="#0064aa"/>
    <path id="Caminho_341" data-name="Caminho 341" d="M561.72,193.055v2.061h-1.084v-2.044l-2.294-3.8h1.16l1.71,2.845,1.727-2.845h1.068Z" transform="translate(-519.164 -189.193)" fill="#0064aa"/>
  </g>
</svg>
