<svg id="logo8" xmlns="http://www.w3.org/2000/svg" width="43.308" height="51.908" viewBox="0 0 43.308 51.908">
  <g id="Grupo_200" data-name="Grupo 200" transform="translate(0.215 0)">
    <path id="Caminho_324" data-name="Caminho 324" d="M123.473,71.185l7.655,7.655h21.353v21.353l7.655,7.655V71.185Z" transform="translate(-117.043 -71.185)" fill="#ce5959"/>
    <path id="Caminho_325" data-name="Caminho 325" d="M101.479,97.366V132.8h35.438V118.718L115.564,97.366Zm28.687,30.256H107.087V103.787h1.631v22.2h21.448Z" transform="translate(-101.479 -89.711)" fill="#ce5959"/>
  </g>
  <g id="Grupo_201" data-name="Grupo 201" transform="translate(0 47.802)">
    <path id="Caminho_326" data-name="Caminho 326" d="M103.811,237.909a.112.112,0,0,1,.081.036l.213.233a1.719,1.719,0,0,1-.6.446,2.044,2.044,0,0,1-.848.16,2,2,0,0,1-.788-.15,1.725,1.725,0,0,1-.6-.42,1.9,1.9,0,0,1-.387-.649,2.424,2.424,0,0,1-.137-.832,2.282,2.282,0,0,1,.147-.833,1.905,1.905,0,0,1,.414-.65,1.849,1.849,0,0,1,.638-.422,2.171,2.171,0,0,1,.82-.15,1.827,1.827,0,0,1,1.334.51l-.176.249a.188.188,0,0,1-.045.046.122.122,0,0,1-.073.018.14.14,0,0,1-.077-.027l-.1-.066q-.056-.039-.132-.084a1.121,1.121,0,0,0-.179-.084,1.538,1.538,0,0,0-.241-.066,1.7,1.7,0,0,0-.317-.026,1.534,1.534,0,0,0-.59.111,1.326,1.326,0,0,0-.461.315,1.435,1.435,0,0,0-.3.5,1.9,1.9,0,0,0-.108.659,1.938,1.938,0,0,0,.108.67,1.474,1.474,0,0,0,.294.5,1.238,1.238,0,0,0,.441.31,1.411,1.411,0,0,0,.55.106,2.228,2.228,0,0,0,.322-.021,1.327,1.327,0,0,0,.265-.066,1.118,1.118,0,0,0,.227-.114,1.781,1.781,0,0,0,.211-.164A.143.143,0,0,1,103.811,237.909Z" transform="translate(-100.744 -234.677)" fill="#ce5959"/>
    <path id="Caminho_327" data-name="Caminho 327" d="M122.655,236.732a2.319,2.319,0,0,1-.143.828,1.894,1.894,0,0,1-.4.649,1.8,1.8,0,0,1-.626.422,2.251,2.251,0,0,1-1.616,0,1.807,1.807,0,0,1-.625-.422,1.894,1.894,0,0,1-.4-.649,2.476,2.476,0,0,1,0-1.657,1.909,1.909,0,0,1,.4-.651,1.818,1.818,0,0,1,.625-.425,2.235,2.235,0,0,1,1.616,0,1.814,1.814,0,0,1,.626.425,1.909,1.909,0,0,1,.4.651A2.318,2.318,0,0,1,122.655,236.732Zm-.558,0a2.041,2.041,0,0,0-.1-.664,1.4,1.4,0,0,0-.286-.5,1.24,1.24,0,0,0-.449-.312,1.632,1.632,0,0,0-1.175,0,1.259,1.259,0,0,0-.45.312,1.394,1.394,0,0,0-.287.5,2.233,2.233,0,0,0,0,1.327,1.394,1.394,0,0,0,.287.5,1.242,1.242,0,0,0,.45.311,1.653,1.653,0,0,0,1.175,0,1.224,1.224,0,0,0,.449-.311,1.4,1.4,0,0,0,.286-.5A2.029,2.029,0,0,0,122.1,236.732Z" transform="translate(-113.446 -234.677)" fill="#ce5959"/>
    <path id="Caminho_328" data-name="Caminho 328" d="M141.621,237.537q.029.075.058.15c.018-.053.038-.1.059-.15s.044-.1.07-.144l1.36-2.47a.162.162,0,0,1,.076-.078.346.346,0,0,1,.112-.014h.4v4.017h-.476V235.9c0-.039,0-.082,0-.126s0-.091.008-.137l-1.377,2.512a.216.216,0,0,1-.2.126h-.079a.216.216,0,0,1-.2-.126l-1.407-2.52c.006.049.01.1.013.143s0,.089,0,.129v2.952h-.476V234.83h.4a.348.348,0,0,1,.112.014.161.161,0,0,1,.076.078l1.388,2.473A1.038,1.038,0,0,1,141.621,237.537Z" transform="translate(-128.222 -234.785)" fill="#ce5959"/>
    <path id="Caminho_329" data-name="Caminho 329" d="M162.744,237.345v1.5H162.2V234.83h1.186a2.23,2.23,0,0,1,.663.088,1.274,1.274,0,0,1,.467.251,1.013,1.013,0,0,1,.276.393,1.379,1.379,0,0,1,.091.513,1.306,1.306,0,0,1-.1.513,1.1,1.1,0,0,1-.287.4,1.333,1.333,0,0,1-.47.262,2.009,2.009,0,0,1-.642.094Zm0-.432h.645a1.248,1.248,0,0,0,.41-.062.84.84,0,0,0,.3-.173.719.719,0,0,0,.182-.265.911.911,0,0,0,.062-.339.771.771,0,0,0-.237-.6,1.035,1.035,0,0,0-.716-.216h-.645Z" transform="translate(-144.234 -234.785)" fill="#ce5959"/>
    <path id="Caminho_330" data-name="Caminho 330" d="M179.392,238.847h-.42a.181.181,0,0,1-.118-.037.223.223,0,0,1-.067-.092l-.376-.97h-1.8l-.376.97a.215.215,0,0,1-.067.089.178.178,0,0,1-.118.039h-.421l1.606-4.017h.552Zm-2.633-1.491h1.5l-.631-1.634a3.033,3.033,0,0,1-.12-.378c-.021.077-.041.147-.06.212s-.039.121-.058.17Z" transform="translate(-153.733 -234.785)" fill="#ce5959"/>
    <path id="Caminho_331" data-name="Caminho 331" d="M195.421,234.848a.277.277,0,0,1,.08.074l2.327,3.028c-.006-.049-.009-.1-.011-.142s0-.09,0-.133V234.83h.477v4.017h-.275a.236.236,0,0,1-.108-.023.274.274,0,0,1-.085-.076l-2.324-3.025c0,.046.007.092.009.137s0,.086,0,.123v2.862h-.477V234.83h.28A.242.242,0,0,1,195.421,234.848Z" transform="translate(-167.465 -234.785)" fill="#ce5959"/>
    <path id="Caminho_332" data-name="Caminho 332" d="M214.745,237.249v1.6H214.2v-1.6l-1.472-2.419h.477a.169.169,0,0,1,.115.037.338.338,0,0,1,.073.09l.92,1.561a1.907,1.907,0,0,1,.094.185q.038.087.069.171c.02-.058.043-.116.067-.174a1.492,1.492,0,0,1,.092-.182l.917-1.561a.367.367,0,0,1,.068-.086.161.161,0,0,1,.114-.041h.482Z" transform="translate(-179.99 -234.785)" fill="#ce5959"/>
  </g>
</svg>
