<svg id="logo5" xmlns="http://www.w3.org/2000/svg" width="46.604" height="50.828" viewBox="0 0 46.604 50.828">
  <g id="Grupo_218" data-name="Grupo 218" transform="translate(3.84 46.312)">
    <path id="Caminho_379" data-name="Caminho 379" d="M379.3,488.783a.124.124,0,0,1,.089.04l.234.256a1.893,1.893,0,0,1-.658.49,2.249,2.249,0,0,1-.933.175,2.19,2.19,0,0,1-.866-.165,1.9,1.9,0,0,1-.663-.462,2.09,2.09,0,0,1-.425-.714,2.669,2.669,0,0,1-.151-.915,2.507,2.507,0,0,1,.162-.916,2.091,2.091,0,0,1,.455-.715,2.033,2.033,0,0,1,.7-.464,2.387,2.387,0,0,1,.9-.165,2.013,2.013,0,0,1,1.467.561l-.194.274a.2.2,0,0,1-.049.051.134.134,0,0,1-.08.02.155.155,0,0,1-.085-.03c-.03-.019-.065-.043-.106-.072s-.089-.06-.145-.092a1.3,1.3,0,0,0-.2-.093,1.627,1.627,0,0,0-.265-.072,1.835,1.835,0,0,0-.348-.029,1.679,1.679,0,0,0-.649.122,1.45,1.45,0,0,0-.507.347,1.579,1.579,0,0,0-.332.549,2.1,2.1,0,0,0-.119.725,2.138,2.138,0,0,0,.119.737,1.63,1.63,0,0,0,.324.547,1.357,1.357,0,0,0,.485.341,1.552,1.552,0,0,0,.6.117,2.439,2.439,0,0,0,.355-.023,1.443,1.443,0,0,0,.291-.072,1.232,1.232,0,0,0,.25-.125,1.979,1.979,0,0,0,.233-.18A.157.157,0,0,1,379.3,488.783Z" transform="translate(-375.926 -485.229)" fill="#f6b217"/>
    <path id="Caminho_380" data-name="Caminho 380" d="M400.02,487.489a2.552,2.552,0,0,1-.157.911,2.084,2.084,0,0,1-.444.714,1.978,1.978,0,0,1-.689.464,2.476,2.476,0,0,1-1.777,0,1.987,1.987,0,0,1-.688-.464,2.083,2.083,0,0,1-.444-.714,2.711,2.711,0,0,1,0-1.822,2.1,2.1,0,0,1,.444-.715,2,2,0,0,1,.688-.467,2.456,2.456,0,0,1,1.777,0,1.986,1.986,0,0,1,.689.467,2.1,2.1,0,0,1,.444.715A2.554,2.554,0,0,1,400.02,487.489Zm-.614,0a2.245,2.245,0,0,0-.111-.731,1.551,1.551,0,0,0-.315-.547,1.363,1.363,0,0,0-.493-.344,1.8,1.8,0,0,0-1.292,0,1.378,1.378,0,0,0-.495.344,1.536,1.536,0,0,0-.316.547,2.458,2.458,0,0,0,0,1.46,1.536,1.536,0,0,0,.316.546,1.365,1.365,0,0,0,.495.342,1.816,1.816,0,0,0,1.292,0,1.35,1.35,0,0,0,.493-.342,1.551,1.551,0,0,0,.315-.546A2.231,2.231,0,0,0,399.406,487.489Z" transform="translate(-389.893 -485.229)" fill="#f6b217"/>
    <path id="Caminho_381" data-name="Caminho 381" d="M420.877,488.374c.022.054.042.109.063.165q.031-.086.065-.165c.023-.053.048-.105.077-.159l1.495-2.716a.178.178,0,0,1,.083-.086.377.377,0,0,1,.123-.015h.441v4.418H422.7v-3.246c0-.043,0-.089,0-.139s0-.1.009-.151l-1.514,2.762a.238.238,0,0,1-.215.139H420.9a.238.238,0,0,1-.216-.139l-1.547-2.771c.006.054.011.106.014.157s0,.1,0,.142v3.246h-.524V485.4h.441a.377.377,0,0,1,.123.015.176.176,0,0,1,.083.086l1.526,2.719A1.218,1.218,0,0,1,420.877,488.374Z" transform="translate(-406.143 -485.349)" fill="#f6b217"/>
    <path id="Caminho_382" data-name="Caminho 382" d="M444.106,488.163v1.652h-.6V485.4h1.3a2.441,2.441,0,0,1,.729.1,1.4,1.4,0,0,1,.513.276,1.111,1.111,0,0,1,.3.432,1.517,1.517,0,0,1,.1.564,1.439,1.439,0,0,1-.108.564,1.217,1.217,0,0,1-.316.441,1.471,1.471,0,0,1-.517.288,2.216,2.216,0,0,1-.706.1Zm0-.475h.709a1.376,1.376,0,0,0,.452-.068.921.921,0,0,0,.328-.189.78.78,0,0,0,.2-.291.994.994,0,0,0,.068-.373.846.846,0,0,0-.261-.66,1.136,1.136,0,0,0-.787-.237h-.709Z" transform="translate(-423.751 -485.349)" fill="#f6b217"/>
    <path id="Caminho_383" data-name="Caminho 383" d="M462.413,489.816h-.463a.2.2,0,0,1-.13-.04.244.244,0,0,1-.074-.1l-.413-1.067h-1.982l-.413,1.067a.244.244,0,0,1-.074.1.2.2,0,0,1-.13.043h-.462l1.766-4.418h.607Zm-2.895-1.64h1.649l-.694-1.8a3.314,3.314,0,0,1-.133-.416c-.023.085-.044.162-.066.233s-.042.133-.063.187Z" transform="translate(-434.197 -485.349)" fill="#f6b217"/>
    <path id="Caminho_384" data-name="Caminho 384" d="M480.04,485.418a.309.309,0,0,1,.088.082l2.559,3.329c-.006-.053-.01-.105-.012-.156s0-.1,0-.146V485.4h.524v4.418h-.3a.253.253,0,0,1-.119-.025.294.294,0,0,1-.094-.083l-2.556-3.326c0,.051.007.1.009.151s0,.094,0,.136v3.147h-.524V485.4h.308A.272.272,0,0,1,480.04,485.418Z" transform="translate(-449.297 -485.349)" fill="#f6b217"/>
    <path id="Caminho_385" data-name="Caminho 385" d="M501.29,488.058v1.757H500.7v-1.757l-1.618-2.66h.524a.185.185,0,0,1,.126.04.388.388,0,0,1,.08.1l1.011,1.717a2.077,2.077,0,0,1,.1.2q.042.1.076.188.034-.1.074-.191a1.734,1.734,0,0,1,.1-.2l1.008-1.717a.394.394,0,0,1,.075-.094.175.175,0,0,1,.125-.045h.53Z" transform="translate(-463.07 -485.349)" fill="#f6b217"/>
  </g>
  <g id="Grupo_220" data-name="Grupo 220" transform="translate(0)">
    <g id="Grupo_219" data-name="Grupo 219">
      <path id="Caminho_386" data-name="Caminho 386" d="M425.327,400.037c.256.032.514.058.772.081a21.98,21.98,0,0,0,13-20.527l-4.347-4.347A25.24,25.24,0,0,1,425.327,400.037Z" transform="translate(-407.043 -361.089)" fill="#f6b217"/>
      <path id="Caminho_387" data-name="Caminho 387" d="M420.019,382.238l.119.023a24.409,24.409,0,0,0,9.5-25.695l-6.191-6.191A29.965,29.965,0,0,1,420.019,382.238Z" transform="translate(-403.287 -343.491)" fill="#f6b217"/>
      <path id="Caminho_388" data-name="Caminho 388" d="M465.838,407.569a22.608,22.608,0,0,1-7.285,12.211,23.022,23.022,0,0,1-3.462,2.487,20.389,20.389,0,0,0,13.26-12.184Z" transform="translate(-428.105 -383.963)" fill="#f6b217"/>
      <path id="Caminho_389" data-name="Caminho 389" d="M450.527,396.524l-3.575-3.575a22.826,22.826,0,0,1-12.106,19.773h.016a20.162,20.162,0,0,0,2.4-.143A22.005,22.005,0,0,0,450.527,396.524Z" transform="translate(-413.779 -373.618)" fill="#f6b217"/>
      <path id="Caminho_390" data-name="Caminho 390" d="M380.05,331.1l-4.273-4.273a20.3,20.3,0,0,0-12.986,18.878h0a20.306,20.306,0,0,0,15.381,19.635A28.99,28.99,0,0,0,380.05,331.1Z" transform="translate(-362.791 -326.831)" fill="#f6b217"/>
    </g>
    <path id="Caminho_391" data-name="Caminho 391" d="M455.708,353.974a20.287,20.287,0,0,0-20.227-20.227h0a20.037,20.037,0,0,0-7.241,1.349l26.119,26.119a20.038,20.038,0,0,0,1.349-7.241Z" transform="translate(-409.103 -331.725)" fill="#f6b217"/>
  </g>
</svg>
