<svg id="logo3" xmlns="http://www.w3.org/2000/svg" width="66.442" height="41.117" viewBox="0 0 66.442 41.117">
  <g id="Grupo_231" data-name="Grupo 231" transform="translate(31.065 30.767)">
    <path id="Caminho_420" data-name="Caminho 420" d="M190.417,689.885a1.645,1.645,0,0,1,.368,1.066,1.684,1.684,0,0,1-.568,1.343,2.45,2.45,0,0,1-1.649.492h-2.9v-6.749h2.839a2.428,2.428,0,0,1,1.572.449,1.539,1.539,0,0,1,.55,1.262,1.574,1.574,0,0,1-.33,1.032,1.535,1.535,0,0,1-.865.526A1.638,1.638,0,0,1,190.417,689.885Zm-3.4-1.018h1.214a1.154,1.154,0,0,0,.77-.225.8.8,0,0,0,.263-.645.824.824,0,0,0-.258-.65,1.167,1.167,0,0,0-.794-.23h-1.195Zm2.1,2.586a.832.832,0,0,0,.287-.684.853.853,0,0,0-.291-.693,1.255,1.255,0,0,0-.827-.244h-1.271v1.854H188.3A1.269,1.269,0,0,0,189.122,691.453Z" transform="translate(-185.671 -686.038)" fill="#0064aa"/>
    <path id="Caminho_421" data-name="Caminho 421" d="M213.185,692.787l-1.577-2.629h-.592v2.629h-1.348v-6.749h2.571a2.539,2.539,0,0,1,1.792.574,2.15,2.15,0,0,1,.191,2.791,2.1,2.1,0,0,1-1.228.688l1.682,2.7Zm-2.169-3.556h1.109q1.156,0,1.157-1.023a1.009,1.009,0,0,0-.282-.76,1.219,1.219,0,0,0-.874-.272h-1.109Z" transform="translate(-202.651 -686.038)" fill="#0064aa"/>
    <path id="Caminho_422" data-name="Caminho 422" d="M235.983,691.615h-2.705l-.478,1.357h-1.424l2.486-6.672H235.4l2.476,6.672h-1.424Zm-.363-1.023-.994-2.849-.994,2.849Z" transform="translate(-218.012 -686.223)" fill="#0064aa"/>
    <path id="Caminho_423" data-name="Caminho 423" d="M265.077,692.787h-1.348l-3.021-4.588v4.588h-1.348v-6.749h1.348l3.021,4.627v-4.627h1.348Z" transform="translate(-237.816 -686.038)" fill="#0064aa"/>
    <path id="Caminho_424" data-name="Caminho 424" d="M291.881,691.171a2.93,2.93,0,0,1-1.219,1.19,3.981,3.981,0,0,1-1.9.425h-2.4v-6.749h2.4a4.057,4.057,0,0,1,1.9.416,2.88,2.88,0,0,1,1.219,1.175,3.94,3.94,0,0,1,0,3.542Zm-1.544-.163a2.471,2.471,0,0,0,0-3.221,2.339,2.339,0,0,0-1.687-.574h-.937v4.368h.937A2.339,2.339,0,0,0,290.337,691.009Z" transform="translate(-256.924 -686.038)" fill="#0064aa"/>
  </g>
  <g id="Grupo_235" data-name="Grupo 235" transform="translate(0 0)">
    <g id="Grupo_232" data-name="Grupo 232" transform="translate(14.138)">
      <path id="Caminho_425" data-name="Caminho 425" d="M135.419,611.3a15.244,15.244,0,0,1-7.642-2.055l2.953-5.089a9.363,9.363,0,1,0,0-16.206l-2.953-5.089a15.246,15.246,0,1,1,7.642,28.439Z" transform="translate(-127.777 -580.806)" fill="#0064aa"/>
    </g>
    <g id="Grupo_233" data-name="Grupo 233" transform="translate(8.149 18.454)">
      <ellipse id="Elipse_17" data-name="Elipse 17" cx="6.206" cy="6.206" rx="6.206" ry="6.206" transform="translate(0 12.079) rotate(-76.718)" fill="#0064aa"/>
    </g>
    <g id="Grupo_234" data-name="Grupo 234" transform="translate(0 10.672)">
      <path id="Caminho_426" data-name="Caminho 426" d="M94.644,647.752a15.222,15.222,0,1,1,11.745-24.906l-4.538,3.745a9.339,9.339,0,1,0-.4,12.333l4.288,4.03A15.282,15.282,0,0,1,94.644,647.752Z" transform="translate(-79.421 -617.307)" fill="#0064aa"/>
    </g>
  </g>
</svg>
