<svg id="logo2" xmlns="http://www.w3.org/2000/svg" width="51.432" height="52.471" viewBox="0 0 51.432 52.471">
  <g id="Grupo_227" data-name="Grupo 227" transform="translate(2.16 47.079)">
    <path id="Caminho_410" data-name="Caminho 410" d="M952.584,474.826a1.685,1.685,0,0,0,.346-.031,1.243,1.243,0,0,0,.252-.078.872.872,0,0,0,.178-.1l.13-.1a1.031,1.031,0,0,1,.108-.078.206.206,0,0,1,.109-.031.209.209,0,0,1,.1.02.159.159,0,0,1,.056.045l.413.5a2.27,2.27,0,0,1-.817.621,2.6,2.6,0,0,1-1.074.212,2.113,2.113,0,0,1-.886-.176,1.863,1.863,0,0,1-.65-.483,2.082,2.082,0,0,1-.4-.73,2.944,2.944,0,0,1-.136-.911,3.532,3.532,0,0,1,.1-.858,3.272,3.272,0,0,1,.286-.75,2.914,2.914,0,0,1,.444-.619,2.732,2.732,0,0,1,2.008-.865,2.415,2.415,0,0,1,.541.056,1.951,1.951,0,0,1,.442.156,1.671,1.671,0,0,1,.353.237,1.691,1.691,0,0,1,.271.3l-.412.478a.522.522,0,0,1-.1.09.263.263,0,0,1-.152.04.22.22,0,0,1-.113-.029.825.825,0,0,1-.1-.07l-.118-.092a.821.821,0,0,0-.155-.092,1.154,1.154,0,0,0-.216-.07,1.315,1.315,0,0,0-.294-.029,1.392,1.392,0,0,0-.621.141,1.464,1.464,0,0,0-.5.4,1.934,1.934,0,0,0-.331.637,2.741,2.741,0,0,0-.119.838,2.037,2.037,0,0,0,.081.6,1.388,1.388,0,0,0,.223.447.938.938,0,0,0,.76.375Z" transform="translate(-950.31 -470.405)" fill="#0064aa"/>
    <path id="Caminho_411" data-name="Caminho 411" d="M976.275,472.762a3.293,3.293,0,0,1-.1.818,3.152,3.152,0,0,1-.282.728,2.95,2.95,0,0,1-.442.612,2.7,2.7,0,0,1-.581.469,2.861,2.861,0,0,1-.7.3,2.891,2.891,0,0,1-.793.107,2.3,2.3,0,0,1-.936-.183,2.072,2.072,0,0,1-.7-.5,2.171,2.171,0,0,1-.444-.746,2.721,2.721,0,0,1-.154-.925,3.3,3.3,0,0,1,.1-.82,3.137,3.137,0,0,1,.282-.73,2.909,2.909,0,0,1,.444-.612,2.756,2.756,0,0,1,.583-.469,2.857,2.857,0,0,1,.7-.3,2.9,2.9,0,0,1,.8-.107,2.291,2.291,0,0,1,.932.183,2.046,2.046,0,0,1,.7.5,2.2,2.2,0,0,1,.441.749A2.719,2.719,0,0,1,976.275,472.762Zm-1.21.029a2.12,2.12,0,0,0-.078-.592,1.335,1.335,0,0,0-.228-.456,1.017,1.017,0,0,0-.368-.293,1.134,1.134,0,0,0-.492-.1,1.37,1.37,0,0,0-.648.15,1.423,1.423,0,0,0-.487.422,2,2,0,0,0-.308.653,3.132,3.132,0,0,0-.107.846,2.161,2.161,0,0,0,.076.59,1.327,1.327,0,0,0,.223.453,1,1,0,0,0,.364.291,1.138,1.138,0,0,0,.5.1,1.364,1.364,0,0,0,1.138-.569,2.012,2.012,0,0,0,.31-.652A3.087,3.087,0,0,0,975.065,472.791Z" transform="translate(-965.05 -470.405)" fill="#0064aa"/>
    <path id="Caminho_412" data-name="Caminho 412" d="M998.366,474.029c.039-.08.079-.158.121-.235s.086-.154.133-.232l1.615-2.777a.3.3,0,0,1,.181-.152.817.817,0,0,1,.21-.029h.927l-.651,5.276h-1.036l.369-3.07c.008-.065.019-.137.034-.216s.033-.16.052-.244l-1.586,2.723a.467.467,0,0,1-.188.183.546.546,0,0,1-.253.06h-.159a.459.459,0,0,1-.241-.061.321.321,0,0,1-.143-.181l-.927-2.73c-.005.082-.009.162-.013.239s-.009.147-.016.21l-.362,3.088H995.39l.652-5.272h1.032a.3.3,0,0,1,.1.016.192.192,0,0,1,.078.053.287.287,0,0,1,.054.1l.927,2.781C998.286,473.713,998.33,473.869,998.366,474.029Z" transform="translate(-982.21 -470.545)" fill="#0064aa"/>
    <path id="Caminho_413" data-name="Caminho 413" d="M1024.421,474.1l-.217,1.778h-1.173l.645-5.276h1.745a2.51,2.51,0,0,1,.806.114,1.5,1.5,0,0,1,.551.315,1.228,1.228,0,0,1,.317.474,1.68,1.68,0,0,1,.1.589,2.352,2.352,0,0,1-.132.8,1.678,1.678,0,0,1-.4.636,1.879,1.879,0,0,1-.688.42,2.871,2.871,0,0,1-.985.152Zm.326-2.618-.214,1.731h.568a1.071,1.071,0,0,0,.425-.074.7.7,0,0,0,.279-.21.854.854,0,0,0,.153-.324,1.691,1.691,0,0,0,.047-.413.955.955,0,0,0-.041-.286.577.577,0,0,0-.348-.371.845.845,0,0,0-.313-.052Z" transform="translate(-1001.769 -470.545)" fill="#0064aa"/>
    <path id="Caminho_414" data-name="Caminho 414" d="M1045.15,475.879h-.912a.392.392,0,0,1-.244-.07.281.281,0,0,1-.11-.187l-.163-.949h-1.793l-.391.949a.391.391,0,0,1-.156.179.448.448,0,0,1-.257.078h-.927l2.52-5.276h1.209Zm-2.893-2.01h1.325l-.257-1.506q-.033-.188-.071-.382t-.063-.353c-.02.058-.045.124-.076.2l-.092.215c-.031.07-.06.135-.087.2s-.048.1-.06.134Z" transform="translate(-1013.916 -470.545)" fill="#0064aa"/>
    <path id="Caminho_415" data-name="Caminho 415" d="M1065.75,470.609a.282.282,0,0,1,.094.025.238.238,0,0,1,.074.056.554.554,0,0,1,.065.094l1.85,3.259c0-.084.012-.165.022-.243s.018-.15.025-.218l.355-2.98h1.043l-.651,5.276h-.616a.57.57,0,0,1-.228-.04.344.344,0,0,1-.155-.156l-1.844-3.255c0,.068-.01.133-.016.2s-.012.122-.016.177l-.362,3.078h-1.043L1065,470.6h.623A1.216,1.216,0,0,1,1065.75,470.609Z" transform="translate(-1031.005 -470.545)" fill="#0064aa"/>
    <path id="Caminho_416" data-name="Caminho 416" d="M1090.985,473.858l-.249,2.02h-1.181l.25-2.01-1.358-3.266h1.05a.36.36,0,0,1,.237.071.4.4,0,0,1,.125.186l.507,1.6c.034.106.065.209.093.308s.051.194.07.286c.046-.092.1-.187.152-.284s.114-.2.177-.31l.9-1.6a.57.57,0,0,1,.159-.177.405.405,0,0,1,.254-.08h.978Z" transform="translate(-1048.059 -470.545)" fill="#0064aa"/>
  </g>
  <g id="Grupo_229" data-name="Grupo 229">
    <g id="Grupo_228" data-name="Grupo 228" transform="translate(18.559 12.194)">
      <path id="Caminho_417" data-name="Caminho 417" d="M1054.147,380.447l-16.436-29.356-10.291,18.38,6.146,10.977Z" transform="translate(-1021.275 -351.091)" fill="#0064aa"/>
      <path id="Caminho_418" data-name="Caminho 418" d="M1016.529,429.605l-5.064-9.045-5.064,9.045Z" transform="translate(-1006.401 -400.249)" fill="#0064aa"/>
    </g>
    <path id="Caminho_419" data-name="Caminho 419" d="M966.027,309.384l-23.1,41.55h16.168l15.019-27.112Z" transform="translate(-942.924 -309.384)" fill="#0064aa"/>
  </g>
</svg>
