<svg id="logo1" xmlns="http://www.w3.org/2000/svg" width="50.626" height="51.773" viewBox="0 0 50.626 51.773">
  <g id="Grupo_205" data-name="Grupo 205" transform="translate(0 0)">
    <path id="Caminho_342" data-name="Caminho 342" d="M686.743,69.107h-24.69L649.708,90.489l12.345,21.382h24.69l12.345-21.382Zm-1.09,40.553-.093.162H663.237L652.076,90.489l11.161-19.332h.187l2.53,4.382,2.7-4.669H669l-2.873,4.976,1.356,2.348,4.229-7.325h.473l-4.465,7.735,1.267,2.195,5.733-9.929h.71l-6.088,10.544,1.149,1.989,7.236-12.533h.947l-7.71,13.354,1.045,1.81,8.755-15.164h1.184L672.6,87.06l.912,1.579,10.259-17.768h1.42l-10.969,19,.879,1.522L686.1,72.356,687.043,74l-10.99,19.036Z" transform="translate(-649.708 -69.107)" fill="#f6b217"/>
  </g>
  <g id="Grupo_207" data-name="Grupo 207" transform="translate(0.211 47.848)">
    <g id="Grupo_206" data-name="Grupo 206">
      <path id="Caminho_343" data-name="Caminho 343" d="M653.727,235a.99.99,0,0,1,.191.62.908.908,0,0,1-.393.788,1.972,1.972,0,0,1-1.144.278H650.43v-3.925h1.839a1.8,1.8,0,0,1,1.071.272.873.873,0,0,1,.376.748.98.98,0,0,1-.135.516.922.922,0,0,1-.37.348A1.034,1.034,0,0,1,653.727,235Zm-2.568-1.668v1.082h1.032a1.045,1.045,0,0,0,.586-.138.453.453,0,0,0,.2-.4.459.459,0,0,0-.2-.406,1.048,1.048,0,0,0-.586-.137Zm2.024,2.215q0-.566-.846-.566h-1.177v1.133h1.177Q653.183,236.11,653.183,235.544Z" transform="translate(-650.43 -232.757)" fill="#f6b217"/>
      <path id="Caminho_344" data-name="Caminho 344" d="M671.426,236.682l-.8-1.15a1.46,1.46,0,0,1-.151.006h-.886v1.144h-.729v-3.925h1.615a2.169,2.169,0,0,1,.889.168,1.29,1.29,0,0,1,.581.482,1.35,1.35,0,0,1,.2.746,1.33,1.33,0,0,1-.216.763,1.283,1.283,0,0,1-.62.477l.9,1.29Zm-.263-3.106a1.12,1.12,0,0,0-.723-.2h-.852v1.564h.852a1.108,1.108,0,0,0,.723-.2.712.712,0,0,0,.246-.58A.7.7,0,0,0,671.162,233.576Z" transform="translate(-663.47 -232.757)" fill="#f6b217"/>
      <path id="Caminho_345" data-name="Caminho 345" d="M687.913,235.773h-1.962l-.387.908h-.751l1.766-3.925h.718l1.771,3.925h-.763Zm-.241-.572-.74-1.715L686.2,235.2Z" transform="translate(-674.76 -232.757)" fill="#f6b217"/>
      <path id="Caminho_346" data-name="Caminho 346" d="M708.4,232.757v3.925h-.6l-2.164-2.658v2.658h-.723v-3.925h.6l2.164,2.658v-2.658Z" transform="translate(-688.98 -232.757)" fill="#f6b217"/>
      <path id="Caminho_347" data-name="Caminho 347" d="M724.277,232.757h1.716a2.464,2.464,0,0,1,1.115.244,1.8,1.8,0,0,1,.757.69,2.1,2.1,0,0,1,0,2.058,1.8,1.8,0,0,1-.757.69,2.461,2.461,0,0,1-1.115.244h-1.716Zm1.682,3.308a1.66,1.66,0,0,0,.759-.165,1.183,1.183,0,0,0,.5-.471,1.515,1.515,0,0,0,0-1.419,1.185,1.185,0,0,0-.5-.471,1.664,1.664,0,0,0-.759-.165h-.953v2.691Z" transform="translate(-702.686 -232.757)" fill="#f6b217"/>
      <path id="Caminho_348" data-name="Caminho 348" d="M756.565,232.757v3.925h-.6l-2.164-2.658v2.658h-.723v-3.925h.6l2.164,2.658v-2.658Z" transform="translate(-723.066 -232.757)" fill="#f6b217"/>
      <path id="Caminho_349" data-name="Caminho 349" d="M773.649,235.773h-1.962l-.387.908h-.751l1.766-3.925h.718l1.772,3.925h-.763Zm-.241-.572-.74-1.715-.734,1.715Z" transform="translate(-735.428 -232.757)" fill="#f6b217"/>
      <path id="Caminho_350" data-name="Caminho 350" d="M794.25,236.682l-.006-2.6-1.289,2.153h-.325l-1.289-2.119v2.568h-.7v-3.925h.6l1.559,2.6,1.531-2.6h.6l.005,3.925Z" transform="translate(-749.649 -232.757)" fill="#f6b217"/>
      <path id="Caminho_351" data-name="Caminho 351" d="M815.737,236.071v.611h-2.944v-3.925h2.865v.611h-2.136v1.02h1.9v.6h-1.9v1.082Z" transform="translate(-765.322 -232.757)" fill="#f6b217"/>
    </g>
  </g>
</svg>
