<svg id="logo7" xmlns="http://www.w3.org/2000/svg" width="80.724" height="43.789" viewBox="0 0 80.724 43.789">
  <g id="Grupo_222" data-name="Grupo 222" transform="translate(40.295 13.028)">
    <path id="Caminho_392" data-name="Caminho 392" d="M777.451,376.8a3.27,3.27,0,0,1-.522-1.983v-2.873a3.3,3.3,0,0,1,.517-2.008,2.657,2.657,0,0,1,3.459-.089,2.623,2.623,0,0,1,.5,1.72v.676h-1.412v-.7a4.377,4.377,0,0,0-.04-.671.679.679,0,0,0-.2-.4.729.729,0,0,0-.512-.154.771.771,0,0,0-.537.164.784.784,0,0,0-.234.437,3.741,3.741,0,0,0-.055.711v3.489a2.042,2.042,0,0,0,.179.989.686.686,0,0,0,.646.3.7.7,0,0,0,.5-.159.742.742,0,0,0,.209-.422,4.362,4.362,0,0,0,.045-.7v-.726H781.4v.646a2.93,2.93,0,0,1-.487,1.8,2,2,0,0,1-1.69.641A2.071,2.071,0,0,1,777.451,376.8Z" transform="translate(-776.929 -369.251)" fill="#ce5959"/>
    <path id="Caminho_393" data-name="Caminho 393" d="M797.526,376.831a3.088,3.088,0,0,1-.537-1.964v-3.022a3,3,0,0,1,.537-1.938,2.755,2.755,0,0,1,3.569,0,3,3,0,0,1,.536,1.938v3.022a3.072,3.072,0,0,1-.542,1.959,2.694,2.694,0,0,1-3.564,0Zm2.445-.721a1.9,1.9,0,0,0,.169-.894v-3.708a1.883,1.883,0,0,0-.164-.885.686.686,0,0,0-.661-.3.7.7,0,0,0-.666.3,1.844,1.844,0,0,0-.169.88v3.708a1.9,1.9,0,0,0,.169.894.69.69,0,0,0,.666.308A.68.68,0,0,0,799.971,376.11Z" transform="translate(-791.124 -369.251)" fill="#ce5959"/>
    <path id="Caminho_394" data-name="Caminho 394" d="M818.344,369.557h1.521l1.143,5.577,1.183-5.577h1.481l.149,8.052h-1.093l-.119-5.6-1.143,5.6h-.885l-1.163-5.617-.109,5.617h-1.1Z" transform="translate(-806.136 -369.468)" fill="#ce5959"/>
    <path id="Caminho_395" data-name="Caminho 395" d="M843.2,369.557h2.366q2.058,0,2.058,2.286a1.92,1.92,0,0,1-2.157,2.187h-.805v3.579H843.2Zm2.028,3.44a1.012,1.012,0,0,0,.805-.254,1.469,1.469,0,0,0,.209-.91,2.939,2.939,0,0,0-.069-.731.623.623,0,0,0-.283-.383,1.314,1.314,0,0,0-.661-.129h-.566V373Z" transform="translate(-823.82 -369.468)" fill="#ce5959"/>
    <path id="Caminho_396" data-name="Caminho 396" d="M861.6,369.557h1.57l1.611,8.052H863.42l-.318-1.859h-1.4l-.328,1.859H859.99Zm1.342,5.258-.547-3.38-.547,3.38Z" transform="translate(-835.705 -369.468)" fill="#ce5959"/>
    <path id="Caminho_397" data-name="Caminho 397" d="M880.832,369.557h1.024l1.959,4.593v-4.593h1.212v8.052h-.974l-1.968-4.811v4.811h-1.253Z" transform="translate(-850.453 -369.468)" fill="#ce5959"/>
    <path id="Caminho_398" data-name="Caminho 398" d="M900.958,374.537l-1.63-4.98H900.7l.994,3.191.934-3.191h1.342l-1.61,4.98v3.072h-1.4Z" transform="translate(-863.541 -369.468)" fill="#ce5959"/>
  </g>
  <g id="Grupo_223" data-name="Grupo 223" transform="translate(40.182 24.647)">
    <path id="Caminho_399" data-name="Caminho 399" d="M779.435,409.133v.42h-1.193v3.272h-.5v-3.272h-1.2v-.42Z" transform="translate(-776.544 -409.092)" fill="#ce5959"/>
    <path id="Caminho_400" data-name="Caminho 400" d="M790.844,412.825h-.387a.165.165,0,0,1-.108-.034.208.208,0,0,1-.062-.085l-.345-.891h-1.657l-.346.891a.2.2,0,0,1-.061.082.164.164,0,0,1-.108.036h-.387l1.477-3.692h.508Zm-2.419-1.371H789.8l-.58-1.5a2.84,2.84,0,0,1-.111-.348q-.028.106-.055.194c-.018.059-.036.111-.053.156Z" transform="translate(-784.214 -409.092)" fill="#ce5959"/>
    <path id="Caminho_401" data-name="Caminho 401" d="M803.329,412.362a2.483,2.483,0,0,0,.275-.014,1.709,1.709,0,0,0,.235-.043,1.561,1.561,0,0,0,.209-.068c.065-.027.13-.057.2-.092v-.814h-.572a.109.109,0,0,1-.079-.028.092.092,0,0,1-.03-.07v-.283H804.7v1.417a2.033,2.033,0,0,1-.29.175,1.97,1.97,0,0,1-.322.125,2.352,2.352,0,0,1-.367.075,3.417,3.417,0,0,1-.425.025,1.914,1.914,0,0,1-.737-.138,1.7,1.7,0,0,1-.577-.387,1.754,1.754,0,0,1-.377-.6,2.09,2.09,0,0,1-.135-.765,2.142,2.142,0,0,1,.133-.77,1.655,1.655,0,0,1,.974-.982,2.129,2.129,0,0,1,.782-.137,2.4,2.4,0,0,1,.407.032,1.918,1.918,0,0,1,.349.092,1.653,1.653,0,0,1,.3.147,1.834,1.834,0,0,1,.255.194l-.142.227a.13.13,0,0,1-.113.07.183.183,0,0,1-.09-.028c-.043-.024-.091-.053-.144-.088a1.266,1.266,0,0,0-.195-.1,1.573,1.573,0,0,0-.271-.081,1.787,1.787,0,0,0-.37-.033,1.5,1.5,0,0,0-.564.1,1.194,1.194,0,0,0-.43.291,1.288,1.288,0,0,0-.273.458,1.8,1.8,0,0,0-.1.6,1.839,1.839,0,0,0,.1.625,1.324,1.324,0,0,0,.28.465,1.212,1.212,0,0,0,.428.291A1.433,1.433,0,0,0,803.329,412.362Z" transform="translate(-794.179 -408.992)" fill="#ce5959"/>
    <path id="Caminho_402" data-name="Caminho 402" d="M822.57,412.405h1.6v.42h-2.1v-3.692h.5Z" transform="translate(-808.759 -409.092)" fill="#ce5959"/>
    <path id="Caminho_403" data-name="Caminho 403" d="M833.708,412.825h-.5v-3.692h.5Z" transform="translate(-816.641 -409.092)" fill="#ce5959"/>
    <path id="Caminho_404" data-name="Caminho 404" d="M840.422,409.15a.257.257,0,0,1,.073.068L842.634,412c-.005-.045-.008-.088-.01-.13s0-.083,0-.123v-2.615h.438v3.692h-.252a.216.216,0,0,1-.1-.021.249.249,0,0,1-.079-.07l-2.136-2.78c0,.043.006.085.008.127s0,.079,0,.113v2.631h-.438v-3.692h.258A.223.223,0,0,1,840.422,409.15Z" transform="translate(-821.493 -409.092)" fill="#ce5959"/>
    <path id="Caminho_405" data-name="Caminho 405" d="M857.427,409.133v.407h-1.773v1.227h1.435v.392h-1.435v1.26h1.773v.407h-2.275v-3.692Z" transform="translate(-832.169 -409.092)" fill="#ce5959"/>
  </g>
  <g id="Grupo_225" data-name="Grupo 225" transform="translate(0 0)">
    <path id="Caminho_406" data-name="Caminho 406" d="M680.292,326.577l22.2,6.309v22.087l-22.2-6.309V326.577m-1.424-1.884V349.74l25.047,7.118V331.81l-25.047-7.117Z" transform="translate(-667.244 -324.693)" fill="#ce5959"/>
    <path id="Caminho_407" data-name="Caminho 407" d="M664.158,396.614,639.111,389.5V364.45l25.047,7.118Z" transform="translate(-639.111 -352.826)" fill="#ce5959"/>
    <path id="Caminho_408" data-name="Caminho 408" d="M651.15,326.291l21.912,6.227-9.319,9.319-21.912-6.226,9.319-9.319m-.415-1.6-11.624,11.624,25.047,7.117,11.624-11.624-25.047-7.117Z" transform="translate(-639.111 -324.693)" fill="#ce5959"/>
    <g id="Grupo_224" data-name="Grupo 224" transform="translate(26.457 29.262)">
      <path id="Caminho_409" data-name="Caminho 409" d="M729.6,437.892l10.215-10.215-10.215-2.9Z" transform="translate(-729.599 -424.775)" fill="#ce5959"/>
    </g>
  </g>
</svg>
