<svg id="logo6" xmlns="http://www.w3.org/2000/svg" width="55.352" height="43.919" viewBox="0 0 55.352 43.919">
  <g id="Grupo_209" data-name="Grupo 209" transform="translate(0 33.29)">
    <path id="Caminho_352" data-name="Caminho 352" d="M915.38,191.924a1.457,1.457,0,0,1,.326.945,1.493,1.493,0,0,1-.5,1.191,2.172,2.172,0,0,1-1.463.437H911.17v-5.986h2.518a2.153,2.153,0,0,1,1.395.4,1.365,1.365,0,0,1,.488,1.119,1.394,1.394,0,0,1-.293.916,1.36,1.36,0,0,1-.767.466A1.456,1.456,0,0,1,915.38,191.924Zm-3.014-.9h1.077a1.026,1.026,0,0,0,.683-.2.712.712,0,0,0,.233-.572.731.731,0,0,0-.229-.577,1.035,1.035,0,0,0-.7-.2h-1.06Zm1.865,2.294a.737.737,0,0,0,.254-.606.756.756,0,0,0-.259-.615,1.113,1.113,0,0,0-.734-.216h-1.127v1.645H913.5A1.126,1.126,0,0,0,914.231,193.314Z" transform="translate(-911.17 -188.511)" fill="#403449"/>
    <path id="Caminho_353" data-name="Caminho 353" d="M935.575,194.5l-1.4-2.332h-.526V194.5h-1.2v-5.986h2.281a2.252,2.252,0,0,1,1.59.509,1.908,1.908,0,0,1,.17,2.476,1.863,1.863,0,0,1-1.09.61L936.9,194.5Zm-1.925-3.154h.984q1.026,0,1.026-.907a.894.894,0,0,0-.25-.674,1.082,1.082,0,0,0-.776-.242h-.984Z" transform="translate(-926.232 -188.511)" fill="#403449"/>
    <path id="Caminho_354" data-name="Caminho 354" d="M955.8,193.457h-2.4l-.424,1.2h-1.264l2.2-5.918h1.365l2.2,5.918h-1.263Zm-.323-.907-.882-2.526-.882,2.526Z" transform="translate(-939.858 -188.675)" fill="#403449"/>
    <path id="Caminho_355" data-name="Caminho 355" d="M981.605,194.5h-1.2l-2.679-4.07v4.07h-1.2v-5.986h1.2l2.679,4.1v-4.1h1.2Z" transform="translate(-957.424 -188.511)" fill="#403449"/>
    <path id="Caminho_356" data-name="Caminho 356" d="M1005.382,193.064a2.6,2.6,0,0,1-1.081,1.056,3.534,3.534,0,0,1-1.683.377h-2.128v-5.986h2.128a3.6,3.6,0,0,1,1.683.369,2.552,2.552,0,0,1,1.081,1.043,3.493,3.493,0,0,1,0,3.141Zm-1.369-.144a2.191,2.191,0,0,0,0-2.857,2.074,2.074,0,0,0-1.5-.509h-.831v3.875h.831A2.072,2.072,0,0,0,1004.013,192.92Z" transform="translate(-974.375 -188.511)" fill="#403449"/>
  </g>
  <path id="Caminho_357" data-name="Caminho 357" d="M968.249,74.653s15.436,5.827,15.109,14.26h0v14.26s-15.436-5.827-15.108-14.26h-.005Z" transform="translate(-951.56 -74.653)" fill="#403449"/>
  <g id="Grupo_210" data-name="Grupo 210" transform="translate(33.83 3.305)">
    <path id="Caminho_358" data-name="Caminho 358" d="M1066.954,141.234a21.117,21.117,0,0,1,9.8-3.614v-4.465a20.117,20.117,0,0,0-9.8,8.079Z" transform="translate(-1055.237 -119.356)" fill="#403449"/>
    <path id="Caminho_359" data-name="Caminho 359" d="M1036.842,109.18A20.972,20.972,0,0,1,1048.4,98.82V85.958s-21.981,8.3-21.515,20.307h-.007v20.307s.981-.371,2.521-1.067c-.006-.651.016-1.306.07-1.964A21.1,21.1,0,0,1,1036.842,109.18Z" transform="translate(-1026.878 -85.958)" fill="#403449"/>
    <path id="Caminho_360" data-name="Caminho 360" d="M1044.405,181.124a21.1,21.1,0,0,1,.768-4.157,19.6,19.6,0,0,0-4.6,11.095c-.032.387-.049.773-.058,1.158,1.249-.6,2.7-1.349,4.228-2.229A20.979,20.979,0,0,1,1044.405,181.124Z" transform="translate(-1036.531 -150.358)" fill="#403449"/>
    <path id="Caminho_361" data-name="Caminho 361" d="M1056.637,164.56a20.1,20.1,0,0,0,.271,5.323c6.006-3.593,12.756-9.144,12.495-15.855h.007v-.572a19.714,19.714,0,0,0-11.427,5.336A20.075,20.075,0,0,0,1056.637,164.56Z" transform="translate(-1047.888 -133.722)" fill="#403449"/>
  </g>
</svg>
