<svg xmlns="http://www.w3.org/2000/svg" width="242.289" height="212.861" viewBox="0 0 242.289 212.861">
  <g id="clientes-img" transform="translate(-418.051 -136.843)">
    <g id="Grupo_193" data-name="Grupo 193" transform="translate(418.051 136.843)">
      <g id="Grupo_178" data-name="Grupo 178" transform="translate(0 33.215)">
        <rect id="Retângulo_95" data-name="Retângulo 95" width="170.421" height="25.024" transform="translate(35.934 118.804)" fill="#110239"/>
        <rect id="Retângulo_96" data-name="Retângulo 96" width="202.762" height="135.92" rx="3.995" transform="translate(19.764)" fill="#110239"/>
        <rect id="Retângulo_97" data-name="Retângulo 97" width="184.091" height="116.502" transform="translate(29.099 9.005)" fill="#fefefe"/>
        <g id="Grupo_177" data-name="Grupo 177" transform="translate(0 143.541)">
          <g id="Grupo_176" data-name="Grupo 176">
            <path id="Caminho_293" data-name="Caminho 293" d="M418.051,215.361v3.718c0,2.054,2.237,3.72,5,3.72H655.343c2.76,0,5-1.667,5-3.72v-3.718Z" transform="translate(-418.051 -186.695)" fill="#110239"/>
            <path id="Caminho_294" data-name="Caminho 294" d="M539.2,204.4H439.75c-.337.358-15.97,14.353-20.747,24.747-2.041,4.445-.706,6.784,3.1,6.784h234.2c3.8,0,5.133-2.339,3.092-6.784-4.775-10.394-20.409-24.389-20.747-24.747Z" transform="translate(-418.051 -204.404)" fill="#110239"/>
            <path id="Caminho_295" data-name="Caminho 295" d="M636.755,227.853h-211.9l14.684-21.739H622.071Z" transform="translate(-407.049 -201.639)" fill="#9c9eb9"/>
            <g id="Grupo_175" data-name="Grupo 175" transform="translate(20.386 4.476)">
              <g id="Grupo_174" data-name="Grupo 174">
                <g id="Grupo_173" data-name="Grupo 173">
                  <g id="Grupo_172" data-name="Grupo 172">
                    <path id="Caminho_296" data-name="Caminho 296" d="M632.585,224.039l-.458-.68H617.986l-2.632-5.274h13.21l-.458-.68H615.014l-2.634-5.274h12.163l-.458-.678H612.042l-2.666-5.337h-1.222l2.624,5.337H595.641l-2.124-5.337h-1.222l2.082,5.337H579.239l-1.58-5.337h-1.222l1.538,5.337H562.838l-1.039-5.337h-1.222l1,5.337H546.437l-.5-5.337h-1.222l.455,5.337H530.8v-5.337h-1.345v5.337H514.566l.455-5.337H513.8l-.5,5.337H498.164l1-5.337h-1.222l-1.039,5.337H481.763l1.538-5.337h-1.222l-1.58,5.337H465.362l2.08-5.337H466.22l-2.122,5.337H448.96l2.624-5.337h-1.222l-2.666,5.337H434.346l-.46.678h13.471l-2.632,5.274h-14.4l-.46.68h14.52l-2.632,5.274H426.3l-.461.68h15.569l-1.9,3.815H440.9l1.876-3.815h16.318l-1.518,3.815h1.392l1.486-3.815h16.318l-1.128,3.815h1.392l1.1-3.815h16.318l-.74,3.815H495.1l.712-3.815h16.318l-.353,3.815h1.392l.324-3.815h15.962v3.815H530.8v-3.815h15.441l.324,3.815h1.392l-.353-3.815h16.318l.712,3.815h1.392l-.74-3.815H581.6l1.1,3.815H584.1l-1.13-3.815h16.318l1.489,3.815h1.392l-1.517-3.815h16.318l1.876,3.815h1.392l-1.9-3.815ZM465.1,212.13h15.2l-1.562,5.274H463.041Zm-16.472,0h15.2l-2.1,5.274H446.035Zm10.737,11.229H443.108l2.593-5.274h15.76Zm17.613,0H460.72l2.056-5.274h15.758Zm17.61,0H478.33l1.52-5.274h15.76Zm1.159-5.955h-15.7l1.52-5.274h15.2Zm16.451,5.955H495.94l.986-5.274h15.758Zm.555-5.955h-15.7l.986-5.274h15.2Zm16.707,5.955h-15.9l.447-5.274h15.457Zm0-5.955h-15.4l.45-5.274h14.949Zm1.345-5.274h14.429l.45,5.274H530.8Zm0,11.229v-5.274h14.936l.447,5.274Zm80.309-11.229L613.7,217.4H598.008l-2.1-5.274Zm-16.469,0L596.7,217.4H581l-1.562-5.274Zm-48.142,0h15.2l.986,5.274h-15.7Zm1.044,11.229-.492-5.274h15.76l.984,5.274Zm15.425-11.229h15.2l1.52,5.274h-15.7Zm2.185,11.229-1.025-5.274h15.76l1.52,5.274Zm17.61,0-1.559-5.274h15.758l2.056,5.274Zm17.613,0-2.1-5.274h15.76l2.593,5.274Z" transform="translate(-425.843 -206.115)" fill="#d0d1de"/>
                  </g>
                </g>
              </g>
            </g>
          </g>
          <path id="Caminho_297" data-name="Caminho 297" d="M470.712,216.456h-10.29a2.116,2.116,0,0,0,.513,1.423,1.121,1.121,0,0,0,.78.29h18a1.121,1.121,0,0,0,.78-.29,2.116,2.116,0,0,0,.513-1.423Z" transform="translate(-349.569 -184.925)" fill="#110239"/>
        </g>
      </g>
      <rect id="Retângulo_98" data-name="Retângulo 98" width="184.077" height="116.493" transform="translate(29.099 42.229)" fill="#fefefe"/>
      <path id="Caminho_298" data-name="Caminho 298" d="M524.629,225.009,508.019,232.4l-21.007-21.007L429.173,255.46v26.617H613.25V145.189L536.343,238.26Z" transform="translate(-400.074 -123.354)" fill="#01c7e2"/>
      <g id="Grupo_179" data-name="Grupo 179" transform="translate(65.399 123.164)">
        <rect id="Retângulo_99" data-name="Retângulo 99" width="5.875" height="4.454" fill="#fefefe"/>
        <rect id="Retângulo_100" data-name="Retângulo 100" width="5.875" height="4.454" transform="translate(8.285)" fill="#fefefe"/>
        <rect id="Retângulo_101" data-name="Retângulo 101" width="5.875" height="4.454" transform="translate(16.569)" fill="#fd425f"/>
        <rect id="Retângulo_102" data-name="Retângulo 102" width="5.875" height="4.454" transform="translate(24.854)" fill="#fefefe"/>
        <rect id="Retângulo_103" data-name="Retângulo 103" width="5.875" height="4.454" transform="translate(33.138)" fill="#fefefe"/>
        <rect id="Retângulo_104" data-name="Retângulo 104" width="5.876" height="4.454" transform="translate(41.423)" fill="#fd425f"/>
        <rect id="Retângulo_105" data-name="Retângulo 105" width="5.875" height="4.454" transform="translate(0 7.605)" fill="#fefefe"/>
        <rect id="Retângulo_106" data-name="Retângulo 106" width="5.875" height="4.454" transform="translate(8.285 7.605)" fill="#fefefe"/>
        <rect id="Retângulo_107" data-name="Retângulo 107" width="5.875" height="4.454" transform="translate(16.569 7.605)" fill="#fefefe"/>
        <rect id="Retângulo_108" data-name="Retângulo 108" width="5.875" height="4.454" transform="translate(24.854 7.605)" fill="#fefefe"/>
        <rect id="Retângulo_109" data-name="Retângulo 109" width="5.875" height="4.454" transform="translate(33.138 7.605)" fill="#fd425f"/>
        <rect id="Retângulo_110" data-name="Retângulo 110" width="5.876" height="4.454" transform="translate(41.423 7.605)" fill="#fefefe"/>
        <rect id="Retângulo_111" data-name="Retângulo 111" width="5.875" height="4.454" transform="translate(0 15.21)" fill="#fefefe"/>
        <rect id="Retângulo_112" data-name="Retângulo 112" width="5.875" height="4.454" transform="translate(8.285 15.21)" fill="#fd425f"/>
        <rect id="Retângulo_113" data-name="Retângulo 113" width="5.875" height="4.454" transform="translate(16.569 15.21)" fill="#fefefe"/>
        <rect id="Retângulo_114" data-name="Retângulo 114" width="5.875" height="4.454" transform="translate(24.854 15.21)" fill="#fefefe"/>
        <rect id="Retângulo_115" data-name="Retângulo 115" width="5.875" height="4.454" transform="translate(33.138 15.21)" fill="#fefefe"/>
        <rect id="Retângulo_116" data-name="Retângulo 116" width="5.876" height="4.454" transform="translate(41.423 15.21)" fill="#fefefe"/>
        <rect id="Retângulo_117" data-name="Retângulo 117" width="5.875" height="4.454" transform="translate(0 22.815)" fill="#fefefe"/>
        <rect id="Retângulo_118" data-name="Retângulo 118" width="5.875" height="4.454" transform="translate(8.285 22.815)" fill="#fefefe"/>
        <rect id="Retângulo_119" data-name="Retângulo 119" width="5.875" height="4.454" transform="translate(16.569 22.815)" fill="#fd425f"/>
        <rect id="Retângulo_120" data-name="Retângulo 120" width="5.875" height="4.454" transform="translate(24.854 22.815)" fill="#fefefe"/>
      </g>
      <g id="Grupo_189" data-name="Grupo 189" transform="translate(32.53 35.144)">
        <g id="Grupo_180" data-name="Grupo 180" transform="translate(92.205 73.38)">
          <path id="Caminho_299" data-name="Caminho 299" d="M467.537,180.363l-.589-.583-.747.313-.472-1.152,1.466-.617,1.165,1.15Z" transform="translate(-465.728 -178.324)" fill="#fff"/>
        </g>
        <g id="Grupo_181" data-name="Grupo 181" transform="translate(80.154 74.835)">
          <path id="Caminho_300" data-name="Caminho 300" d="M461.6,184.262l-.474-1.159,2.017-.845.474,1.156Zm4.026-1.7-.471-1.156,2.009-.842.474,1.154Zm4.016-1.69-.471-1.154,2-.842.471,1.156Z" transform="translate(-461.122 -178.88)" fill="#fff"/>
        </g>
        <g id="Grupo_182" data-name="Grupo 182" transform="translate(75.934 79.666)">
          <path id="Caminho_301" data-name="Caminho 301" d="M460.727,182.74l-1.218-1.065.777-.948.649.566.778-.326.472,1.16Z" transform="translate(-459.509 -180.726)" fill="#fff"/>
        </g>
        <g id="Grupo_183" data-name="Grupo 183" transform="translate(58.11 64.114)">
          <path id="Caminho_302" data-name="Caminho 302" d="M468.739,189.726l-1.782-1.554.78-.947,1.779,1.554Zm-3.563-3.111-1.782-1.557.78-.944,1.782,1.554ZM461.61,183.5l-1.782-1.557.782-.944,1.779,1.557Zm-3.566-3.113-1.782-1.557.785-.942,1.782,1.554Zm-3.563-3.111-1.784-1.557.785-.942,1.784,1.554Z" transform="translate(-452.696 -174.782)" fill="#fff"/>
        </g>
        <g id="Grupo_184" data-name="Grupo 184" transform="translate(54.435 61.425)">
          <path id="Caminho_303" data-name="Caminho 303" d="M453.185,175.827l-.574-.5-.619.432-.7-1.032,1.385-.971,1.294,1.131Z" transform="translate(-451.292 -173.754)" fill="#fff"/>
        </g>
        <g id="Grupo_185" data-name="Grupo 185" transform="translate(0 63.834)">
          <path id="Caminho_304" data-name="Caminho 304" d="M431.2,212.5l-.717-1.057,2.14-1.5.717,1.054Zm4.275-3-.714-1.054,2.132-1.5.714,1.054Zm4.262-3-.714-1.052,2.127-1.491.714,1.052Zm4.249-2.982-.714-1.049,2.117-1.486.714,1.049Zm4.228-2.972L447.5,199.5l2.111-1.483.714,1.049Zm4.217-2.962-.712-1.046,2.1-1.473.712,1.044Zm4.2-2.948-.712-1.047,2.1-1.47.709,1.044Zm4.186-2.941-.709-1.044,2.088-1.462.709,1.039Zm4.17-2.93-.709-1.041,2.08-1.46.709,1.041Zm4.157-2.92-.709-1.039,2.072-1.452.709,1.036Zm4.139-2.909-.706-1.036,2.064-1.449.706,1.036Zm4.123-2.9-.7-1.033,2.059-1.444.7,1.033Zm4.115-2.886-.7-1.033,2.048-1.439.706,1.031Z" transform="translate(-430.485 -174.675)" fill="#fff"/>
        </g>
        <g id="Grupo_186" data-name="Grupo 186" transform="translate(107.402)">
          <path id="Caminho_305" data-name="Caminho 305" d="M472.44,233.81l-.9-.84,1.578-1.837.9.84Zm3.153-3.673-.9-.84,1.572-1.829.9.837Zm3.142-3.66-.9-.837,1.567-1.826.9.837Zm3.132-3.647-.9-.837,1.562-1.818.9.837Zm3.121-3.637-.9-.835,1.557-1.81.895.832Zm3.108-3.621-.895-.835,1.551-1.805.895.832Zm3.1-3.61-.892-.832,1.544-1.8.895.832Zm3.087-3.6-.892-.829,1.541-1.792.892.827Zm3.077-3.584-.889-.827L498,202.164l.889.827Zm3.066-3.574-.89-.824,1.531-1.782.89.824Zm3.056-3.558-.887-.824,1.525-1.776.884.824Zm3.045-3.548-.887-.824,1.52-1.769.884.822Zm3.035-3.537-.884-.822,1.512-1.761.884.819Zm3.022-3.521-.882-.821,1.51-1.756.882.819Zm3.016-3.511-.882-.821,1.5-1.748.879.819Zm3-3.5-.879-.819,1.5-1.745.879.819Zm2.993-3.487-.879-.819,1.494-1.737.876.819Zm2.982-3.474-.876-.816,1.486-1.732.876.816Zm2.972-3.464-.876-.814,1.483-1.727.874.814Zm2.962-3.451-.874-.814,1.478-1.719.874.814Zm2.951-3.438-.871-.814,1.473-1.714.871.811Zm2.943-3.43-.871-.811L537,156.77l.871.811Zm2.739-3.247-.871-.811,1.468-1.708.871.811Zm2.739-3.247-.871-.811,1.468-1.708.871.811Z" transform="translate(-471.537 -150.276)" fill="#fff"/>
        </g>
        <g id="Grupo_187" data-name="Grupo 187" transform="translate(104.194 84.538)">
          <path id="Caminho_306" data-name="Caminho 306" d="M471.644,184.821l-1.333-1.313.818-.895.427.42.38-.444.9.839Z" transform="translate(-470.31 -182.589)" fill="#fff"/>
        </g>
        <g id="Grupo_188" data-name="Grupo 188" transform="translate(96.048 76.536)">
          <path id="Caminho_307" data-name="Caminho 307" d="M473.306,186.442l-2.035-2.007.819-.892,2.036,2.007Zm-4.071-4.013-2.038-2.007.821-.892,2.036,2.007Z" transform="translate(-467.197 -179.53)" fill="#fff"/>
        </g>
      </g>
      <g id="Grupo_191" data-name="Grupo 191" transform="translate(29.098)">
        <g id="Grupo_190" data-name="Grupo 190" transform="translate(0 8.236)">
          <path id="Caminho_308" data-name="Caminho 308" d="M608.36,139.991,536.6,230.95l-11.611-14.013L508,225l-21.592-23.039-57.233,46.533v5.594L486.2,207.731l21.268,22.693,16.9-8.014,12.286,14.832,74.466-94.4A30.1,30.1,0,0,1,608.36,139.991Z" transform="translate(-429.173 -139.991)" fill="#fd425f"/>
        </g>
        <path id="Caminho_309" data-name="Caminho 309" d="M512.372,136.843l-16.932,5.733,11.2,11.2Z" transform="translate(-322.068 -136.843)" fill="#fd425f"/>
      </g>
      <g id="Grupo_192" data-name="Grupo 192" transform="translate(40.296 52.338)">
        <path id="Caminho_310" data-name="Caminho 310" d="M444.407,161.573c3.825.285,7.315,1.92,7.339,5.743l-6.376.039c-.042-1.447-1.525-1.748-2.457-1.742-.586,0-2.48.013-2.475,1.185.016,2.619,11.752-.173,11.794,7.237.026,4.445-3.443,6.119-7.715,6.454l.3,4.72-3.893.024.212-4.759c-3.964-.39-7.663-2.226-7.687-6.224l6.376-.039v.139c.045,1.758,2.012,2.09,3.011,2.085.965-.005,2.86-.086,2.852-1.36-.016-2.724-11.752-.173-11.794-7.341-.023-4.134,3.171-5.74,7.132-6.106l-.267-4.754,3.893-.024Z" transform="translate(-433.453 -156.848)" fill="#fd425f"/>
      </g>
    </g>
    <g id="Grupo_194" data-name="Grupo 194" transform="translate(526.026 182.989)">
      <path id="Caminho_311" data-name="Caminho 311" d="M482.818,207.886s.264,5.183-.489,5.952-11.017,1.889-11.977,1.015-.565-2.5,1.6-3.289c2.315-.845,3.527-.293,4.96-1.026s.858-3.043.858-3.043Z" transform="translate(-442.292 -68.796)" fill="#110239"/>
      <path id="Caminho_312" data-name="Caminho 312" d="M487.7,207.886s-.267,5.183.487,5.952,11.017,1.889,11.977,1.015.565-2.5-1.593-3.289c-2.318-.845-3.529-.293-4.963-1.026s-.858-3.043-.858-3.043Z" transform="translate(-413.528 -68.796)" fill="#110239"/>
      <path id="Caminho_313" data-name="Caminho 313" d="M512.579,214.986c-1.12-5.643-7.132-21.053-9.361-26.4-.895-.3-1.876-.6-2.87-.89.259-1.2.434-2.24.628-3.145-1.745.463-3.6.685-5.476,1.279-.254.081-.539.167-.835.256-.3-.089-.584-.175-.837-.256-1.876-.594-3.728-.816-5.473-1.279.191.905.366,1.941.628,3.145-.994.288-1.975.586-2.873.89-2.226,5.345-8.241,20.755-9.361,26.4-1.549,7.812-4.139,30.971-4.139,30.971l6.6.869s6.632-31.113,7.579-32.834c1.7-3.092,3.482-5.829,5.073-8.249a3.344,3.344,0,0,1,5.6,0c1.588,2.42,3.372,5.157,5.073,8.249.947,1.722,7.579,32.834,7.579,32.834l6.6-.869S514.13,222.8,512.579,214.986Z" transform="translate(-437.845 -105.877)" fill="#fd425f"/>
      <path id="Caminho_314" data-name="Caminho 314" d="M492.278,167.321c-.39-2.682-.79-3.1-1.69-3.624a3.462,3.462,0,0,1-1.133-.85,7.4,7.4,0,0,0-1.206-1.1,2.911,2.911,0,0,1-1.075-1.2c-.209-.644.636-.466,1.18-.267.594.215,1.706,1.844,2.334,1.619s-.848-2.127-1.146-2.5c-.709-.882-1.549-.764-2.491-1.169-.549-.238-.727-.515-.133-.869a1.788,1.788,0,0,1,1.455.1,6.121,6.121,0,0,1,2.535,1.575,7.15,7.15,0,0,0-2.211-1.714c-.476-.243-2.684-.921-2.368-1.7.633-1.57,4.926,1.389,5.395,2.219a8.374,8.374,0,0,0-2.117-1.868c-.455-.324-1.562-1.044-.633-1.418,1.374-.552,3.035,2,3.979,3a9.931,9.931,0,0,0-1.6-2.156c-.756-.921.183-1.156,1.122-.348a13.771,13.771,0,0,1,1.206,1.326c1.5,1.889,1.554,3.155,1.818,5.458.1.829.118,2.177.39,4.586C496.047,167.813,493.437,167.1,492.278,167.321Z" transform="translate(-415.723 -154.481)" fill="#f88667"/>
      <path id="Caminho_315" data-name="Caminho 315" d="M471.613,179.179c-2.535-.952-2.849-1.97-3.171-2.962a3.476,3.476,0,0,0-.589-1.29,7.477,7.477,0,0,1-.816-1.413,2.9,2.9,0,0,0-.939-1.306c-.583-.343-.591.521-.515,1.1.084.625,1.439,2.059,1.086,2.627s-1.9-1.285-2.2-1.656c-.712-.882-.416-1.677-.612-2.682-.115-.589-.348-.821-.819-.317a1.78,1.78,0,0,0-.209,1.442,6.122,6.122,0,0,0,1,2.815,7.134,7.134,0,0,1-1.2-2.527c-.136-.515-.327-2.818-1.156-2.676-1.669.283.3,5.11,1.012,5.745a8.411,8.411,0,0,1-1.374-2.467c-.22-.513-.685-1.75-1.251-.921-.832,1.222,1.3,3.388,2.082,4.529a9.794,9.794,0,0,1-1.763-2.025c-.738-.934-1.169-.068-.581,1.023a13.406,13.406,0,0,0,1.039,1.462c1.525,1.865,2.75,2.192,4.942,2.943a21.038,21.038,0,0,1,4.223,1.6C471.054,182.824,471.148,180.265,471.613,179.179Z" transform="translate(-459.322 -128.875)" fill="#f88667"/>
      <path id="Caminho_316" data-name="Caminho 316" d="M486.635,171.861a15.82,15.82,0,0,1-4.325.209,6.3,6.3,0,0,1-1.515-.324c.063,1.8.063,5.975-1.2,7.687,0,0,.45,2.017,4.126,2.069s4.131-2.069,4.131-2.069A18.742,18.742,0,0,1,486.635,171.861Z" transform="translate(-426.56 -126.578)" fill="#f88667"/>
      <path id="Caminho_317" data-name="Caminho 317" d="M507.737,178.906c-1-1.279-5.756-4.094-8.976-4.6a50.587,50.587,0,0,0-15.792,0c-3.221.51-6.423,1.326-7.425,2.6-1.256,1.6,2.5,10.593,3.126,18.842.518,6.839,1.449,12.124,1.449,12.124,2.064,3.788,18.193,3.893,20.255.1,0,0,.39-5.845,1.507-12.226C503.339,187.437,509.008,180.528,507.737,178.906Z" transform="translate(-433.516 -123.45)" fill="#e5e6ed"/>
      <path id="Caminho_318" data-name="Caminho 318" d="M481.641,189.763c.1-2.219.837-6.2.018-8.231-1.169-2.907-3.809-4-6.253-5.327.73,3.72,2.642,9.743,3.074,15.459.518,6.839,1.449,12.124,1.449,12.124a4.557,4.557,0,0,0,2.444,1.7C480.081,201.1,481.436,194.091,481.641,189.763Z" transform="translate(-433.326 -119.369)" fill="#abadc4"/>
      <path id="Caminho_319" data-name="Caminho 319" d="M493.566,170.158s-7.621-4.482-8.778-3.38-2.962,4.853-3.838,5.423-2.245,1.115-2.122,1.79.565.719.528,1.4-1.58,3.927-.738,4.887,6.381,3.074,9.709.861S497.318,172.165,493.566,170.158Z" transform="translate(-428.538 -134.889)" fill="#f88667"/>
      <path id="Caminho_320" data-name="Caminho 320" d="M491.223,168.611l-6.418.1a13.077,13.077,0,0,1-3.948,5.212s.154.947.84.753a2.138,2.138,0,0,0,1.57-.992c.46-.722,1.847-2.593,2.786-.95s-1.07,2.205-1.915,2.192c0,0-2.922,3.542-.649,4.207,0,0,2.535-.377,6.4-4.476S492.954,168.289,491.223,168.611Z" transform="translate(-424.516 -131.694)" fill="#110239"/>
      <path id="Caminho_321" data-name="Caminho 321" d="M480.953,165.724s-3.121,1.894.492,5.69,12.116,1.795,12.116,1.795.905-2.472-2.169-5.068c-2.3-1.939-4.817-2.928-6.842-2C481.11,167.725,480.953,165.724,480.953,165.724Z" transform="translate(-426.385 -136.311)" fill="#110239"/>
      <path id="Caminho_322" data-name="Caminho 322" d="M465.386,173.245l-2.729,4.343A123.569,123.569,0,0,0,477.75,189.68c4.7,3.116,20.789-1.868,23.274-2.614,3.55-1.065,6.221-8.581.3-11.375-3.469-1.635-17.4,8.945-20.807,7.153C476.238,180.6,465.386,173.245,465.386,173.245Z" transform="translate(-453.931 -124.155)" fill="#e5e6ed"/>
      <path id="Caminho_323" data-name="Caminho 323" d="M493.392,159.517l5.416-.905s3.576,15.64,3.365,21.275-9.17,26.1-11.213,27.7c-2.457,1.926-9.267-3.634-4.33-9.623s8.134-18.335,8.265-18.837S493.392,159.517,493.392,159.517Z" transform="translate(-418.018 -147.805)" fill="#e5e6ed"/>
    </g>
    <rect id="Retângulo_121" data-name="Retângulo 121" width="43.692" height="3.93" transform="translate(489.395 185.778)" fill="#d0d1de"/>
    <rect id="Retângulo_122" data-name="Retângulo 122" width="43.692" height="3.93" transform="translate(489.395 191.988)" fill="#d0d1de"/>
    <rect id="Retângulo_123" data-name="Retângulo 123" width="33.068" height="3.93" transform="translate(489.395 198.198)" fill="#d0d1de"/>
  </g>
</svg>
