<svg xmlns="http://www.w3.org/2000/svg" width="126.9" height="131.594" viewBox="0 0 126.9 131.594">
  <g id="Grupo_104" data-name="Grupo 104" transform="translate(-31.118 -131.285)">
    <g id="Grupo_92" data-name="Grupo 92" transform="translate(31.118 143.053)">
      <circle id="Elipse_5" data-name="Elipse 5" cx="55.318" cy="55.318" r="55.318" fill="#fd425f"/>
      <circle id="Elipse_6" data-name="Elipse 6" cx="41.929" cy="41.929" r="41.929" transform="matrix(0.122, -0.993, 0.993, 0.122, 8.58, 91.81)" fill="#fff"/>
      <circle id="Elipse_7" data-name="Elipse 7" cx="29.949" cy="29.949" r="29.949" transform="translate(19.289 33.051) rotate(-13.283)" fill="#fd425f"/>
      <path id="Caminho_182" data-name="Caminho 182" d="M96.088,183.695a20.612,20.612,0,1,1-20.613-20.613A20.612,20.612,0,0,1,96.088,183.695Z" transform="translate(-20.158 -128.376)" fill="#fff"/>
      <path id="Caminho_183" data-name="Caminho 183" d="M81.484,180.189a9.513,9.513,0,1,1-9.513-9.513A9.513,9.513,0,0,1,81.484,180.189Z" transform="translate(-16.653 -124.871)" fill="#fd425f"/>
    </g>
    <g id="Grupo_98" data-name="Grupo 98" transform="translate(105.495 163.165)">
      <path id="Caminho_184" data-name="Caminho 184" d="M87.573,160.82s-.805,1.947-.767,1.885a5.842,5.842,0,0,0-1.3-.583,9.884,9.884,0,0,1-1.546-.11,2.556,2.556,0,0,1-.894-.46c-.155-.094-.414-.392-.183-.46.2-.061.433.219.566.273a2.732,2.732,0,0,0,.6.057s-.174-.08-.513-.215a6.24,6.24,0,0,1-1.141-.528c-.115-.117-.088-.368.229-.308a4.45,4.45,0,0,1,.8.269c.066.019.669.238.669.238s-.522-.2-.707-.284c-.208-.094-.78-.319-1.143-.481s-.272-.551.05-.528a7.986,7.986,0,0,1,1.165.491c.127.042.681.3.681.3s-.665-.3-.775-.377-.848-.352-.934-.573a.21.21,0,0,1,.262-.278,3.868,3.868,0,0,1,.925.316,8.673,8.673,0,0,0,1.441.593c.209.007.44-.013.444-.278l.36-.664s.241.117.368.721C86.291,160.162,86.838,160.579,87.573,160.82Z" transform="translate(-82.006 -150.318)" fill="#f88667"/>
      <g id="Grupo_94" data-name="Grupo 94" transform="translate(4.285 10.299)">
        <g id="Grupo_93" data-name="Grupo 93">
          <path id="Caminho_185" data-name="Caminho 185" d="M108.189,168.117a3.33,3.33,0,0,0-2.885-3.208c-2.634-.4-7.529-1.153-9-1.494-2.054-.472-10.443-3.272-10.443-3.272l-.918,2.214s9.128,4.585,10.769,4.943,10.069,3.348,11.7,2.407A1.71,1.71,0,0,0,108.189,168.117Z" transform="translate(-84.938 -160.143)" fill="#00bad1"/>
        </g>
      </g>
      <g id="Grupo_95" data-name="Grupo 95" transform="translate(4.925 27.225)">
        <path id="Caminho_186" data-name="Caminho 186" d="M113.059,181.122l-.529-1.586h-23.7l.505,1.586Z" transform="translate(-83.783 -168.118)" fill="#110239"/>
        <path id="Caminho_187" data-name="Caminho 187" d="M115.028,186.909l-.535-1.6H90.666l.511,1.6Z" transform="translate(-82.934 -165.455)" fill="#110239"/>
        <path id="Caminho_188" data-name="Caminho 188" d="M110.62,175.341l-.529-1.586H86.39l.505,1.586Z" transform="translate(-84.908 -170.786)" fill="#110239"/>
        <path id="Caminho_189" data-name="Caminho 189" d="M117.018,192.757l-.54-1.62H92.523l.516,1.62Z" transform="translate(-82.077 -162.764)" fill="#110239"/>
        <path id="Caminho_190" data-name="Caminho 190" d="M119.03,198.669l-.546-1.638H94.4l.521,1.638Z" transform="translate(-81.211 -160.043)" fill="#110239"/>
        <path id="Caminho_191" data-name="Caminho 191" d="M121.064,204.644l-.552-1.656H96.3l.527,1.656Z" transform="translate(-80.335 -157.293)" fill="#110239"/>
        <path id="Caminho_192" data-name="Caminho 192" d="M123.12,210.685l-.558-1.674H98.215l.533,1.674Z" transform="translate(-79.45 -154.513)" fill="#110239"/>
        <path id="Caminho_193" data-name="Caminho 193" d="M124.593,240.592h.113a1.1,1.1,0,0,0,1.039-1.444l-22.258-66.676a1.1,1.1,0,0,0-1.041-.748h-1.533l22.64,68.117A1.1,1.1,0,0,0,124.593,240.592Z" transform="translate(-78.205 -171.724)" fill="#110239"/>
        <path id="Caminho_194" data-name="Caminho 194" d="M107.656,240.592h.121a1.1,1.1,0,0,0,1.045-1.431L87.541,172.487a1.1,1.1,0,0,0-1.044-.763h-.023a1.1,1.1,0,0,0-1.045,1.428l21.183,66.674A1.1,1.1,0,0,0,107.656,240.592Z" transform="translate(-85.376 -171.724)" fill="#110239"/>
      </g>
      <path id="Caminho_195" data-name="Caminho 195" d="M101.578,158.455c-.048.053-.092.107-.143.158a9.863,9.863,0,0,1-1.5,1.31c-.335.222-.855.367-1.143.6a3.339,3.339,0,0,1-.36.254,27.666,27.666,0,0,1,.517,4.369s3-.212,4.1-1.424A30.45,30.45,0,0,1,101.578,158.455Z" transform="translate(-74.426 -150.624)" fill="#f88667"/>
      <path id="Caminho_196" data-name="Caminho 196" d="M99.969,163.473a4.351,4.351,0,0,1,1.367-2.263,6.821,6.821,0,0,1,.719-.533,15.49,15.49,0,0,1-.476-2.222c-.048.053-.092.107-.143.158a9.863,9.863,0,0,1-1.5,1.31c-.335.222-.855.367-1.143.6a3.339,3.339,0,0,1-.36.254,27.666,27.666,0,0,1,.517,4.369,11.475,11.475,0,0,0,1.193-.165A2.259,2.259,0,0,1,99.969,163.473Z" transform="translate(-74.426 -150.624)" fill="#e45940"/>
      <path id="Caminho_197" data-name="Caminho 197" d="M101.884,195.239s-.082,2.993-.55,3.4-6.421.588-6.932.042-.212-1.466,1.065-1.82c1.369-.38,2.042-.009,2.9-.365s.63-1.71.63-1.71Z" transform="translate(-76.394 -133.854)" fill="#110239"/>
      <path id="Caminho_198" data-name="Caminho 198" d="M111.853,195.108s.457,2.914.006,3.341-6.514.9-7.048.377-.267-1.456,1-1.859c1.353-.434,2.01-.159,2.884-.476.687-.251.224-1.638.224-1.638Z" transform="translate(-71.6 -133.824)" fill="#110239"/>
      <g id="Grupo_96" data-name="Grupo 96" transform="translate(21.096 26.369)">
        <path id="Caminho_199" data-name="Caminho 199" d="M109.594,188.8a89.331,89.331,0,0,0-1.242-16.639,7.593,7.593,0,0,0-2.973.574c-1.817.827-3.644,1.621-5.469,2.416a117.721,117.721,0,0,1,5.118,15.173c.485,2.6,5.933,15.9,5.933,15.9l3.3-.415C114.2,203.67,109.583,189.522,109.594,188.8Z" transform="translate(-94.839 -170.664)" fill="#d0d1de"/>
        <path id="Caminho_200" data-name="Caminho 200" d="M102.839,173.772a30.009,30.009,0,0,1-2.941,1.2,125.191,125.191,0,0,1,4.706,13.543c.462-1.4,2.7-4.769,3.556-8.463a19.721,19.721,0,0,0,.278-7.529l0-.029A14.184,14.184,0,0,0,102.839,173.772Z" transform="translate(-94.844 -170.513)" fill="#abadc4"/>
        <path id="Caminho_201" data-name="Caminho 201" d="M106.9,173.946c-1.283.433-3.62,1.055-5.386,1.685-1.229,3.106-4.86,10.437-5.048,13.752-.208,3.657,1.058,17.513,1.058,17.513h3.771s.349-15.618.878-16.621c1.742-3.309,3.666-5.933,4.76-7.99a25.669,25.669,0,0,0,2.78-7.29c.143-.713.767-3.106-.444-3.856C108.264,171.423,107.973,173.583,106.9,173.946Z" transform="translate(-96.44 -171.138)" fill="#d0d1de"/>
      </g>
      <g id="Grupo_97" data-name="Grupo 97" transform="translate(24.506 12.57)">
        <path id="Caminho_202" data-name="Caminho 202" d="M99.061,180.741a15.321,15.321,0,0,0,6.288.979c2.309-.222,3.5-.257,4.857-.987,0,0-1.445-11.259-3.112-14.807a7.442,7.442,0,0,0-4.4-4.23,9.344,9.344,0,0,1-3.918,1.225s.044,6.918.177,9.68S99.061,180.741,99.061,180.741Z" transform="translate(-98.773 -161.697)" fill="#00bad1"/>
        <path id="Caminho_203" data-name="Caminho 203" d="M98.893,170.085q-.015-.456-.029-.966l0-.124c-.007-.324-.016-.662-.022-1.007l0-.172c-.007-.383-.015-.773-.02-1.162v-.019a2.168,2.168,0,0,0,.425-.029,9.743,9.743,0,0,0,3.012-1.393c.161-.094.332-.172.5-.254.191,1.479-.474,3.284-.76,4.459a25.42,25.42,0,0,0-.544,10.512,16.733,16.733,0,0,1-2.4-.693s.023-5.379-.111-8.14c-.012-.246-.022-.531-.032-.833Z" transform="translate(-98.754 -160.192)" fill="#00a7cc"/>
      </g>
      <path id="Caminho_204" data-name="Caminho 204" d="M104.306,157.35s-1.28-2.676-2.986-2.568-2.8.387-3.027,1.045a18.821,18.821,0,0,1-1.046,3.142c-.436.671-1.378,1.551-1.358,1.855s1,.409,1.049.533.582,2.333.938,2.562,3.632-1.049,4.139-2.024S104.455,159.079,104.306,157.35Z" transform="translate(-75.599 -152.32)" fill="#f88667"/>
      <path id="Caminho_205" data-name="Caminho 205" d="M100.7,158.379a4.291,4.291,0,0,0-.51.145c-.25.045-.507.066-.759.11a3.1,3.1,0,0,1-1.517,0c-.74-.243-.5-.973-.842-1.486-.165-.25-.516-.25-.7-.526a1.791,1.791,0,0,1-.222-.954c.012-.78.772-.852,1.37-1,.7-.172.738-.561,1.073-1.09.829-1.307,2,.507,2.916.4.469-.057.962-.364,1.418-.1a3.231,3.231,0,0,1,.893.968c.275.365.547.216.947.368a2.4,2.4,0,0,1,.829.631,2.543,2.543,0,0,1,.631,2.055c-.123.6-.607.927-.631,1.558a3.747,3.747,0,0,1-.237,1.583c-.355.666-1.147.754-1.676,1.207a2.264,2.264,0,0,1-1.9.588c-.07-.472-.026-1.266.389-1.5a2.621,2.621,0,0,0,.63-.323.735.735,0,0,0-.7-1.237c-.538.075-.78,1.545-1.367,1.305-.446-.181.091-.924.213-1.177.162-.335.248-1.181-.069-1.462A.233.233,0,0,0,100.7,158.379Z" transform="translate(-75.475 -153.097)" fill="#110239"/>
      <path id="Caminho_206" data-name="Caminho 206" d="M90.949,174.947a2.443,2.443,0,0,0-.443-.035,1.794,1.794,0,0,1-.969-.12,3.761,3.761,0,0,0-1.628-.393c-.275.048-1.915.43-1.513,1.1.054.091.256.231.313.21.17-.064.642-.235.642-.235a3.573,3.573,0,0,0-.437.186c-.063.045-.186.1-.227.165a.413.413,0,0,0,.189.488c.142.048.251-.094.37-.159l-.009.007c-.114.089-.361.152-.208.5.171.387.289.143.453.1a1.073,1.073,0,0,0,.177-.069c-.061.035-.292.145-.339.186-.153.137.186.593.49.554.187-.023.63-.292.735-.263a2.044,2.044,0,0,0,.379.042,2.229,2.229,0,0,0,1.108-.221c.153-.069.459-.19.612-.272a6.688,6.688,0,0,0,.912-.62C91.3,175.617,90.9,175.495,90.949,174.947Z" transform="translate(-80.009 -143.271)" fill="#f88667"/>
      <path id="Caminho_207" data-name="Caminho 207" d="M90.3,181.538l-1.326-2.624s6.57-4.206,8.971-6.628,5-7.353,6.83-7.663,3.674.7,2.613,3.249-6.431,5.927-7.526,7.048A108.657,108.657,0,0,1,90.3,181.538Z" transform="translate(-78.79 -147.802)" fill="#00bad1"/>
    </g>
    <g id="Grupo_99" data-name="Grupo 99" transform="translate(86.607 131.285)">
      <path id="Caminho_208" data-name="Caminho 208" d="M106.716,133.893c-1.171-.5-4.912-2.45-7.919,4.649-2.863,6.761-5.892,15.924-5.892,15.924s7.448-6.136,12.717-11.247C111.157,137.851,107.811,134.6,106.716,133.893Z" transform="translate(-58.087 -130.369)" fill="#fd425f"/>
      <path id="Caminho_209" data-name="Caminho 209" d="M111.32,137.406l-7.157,7.369a51.688,51.688,0,0,0-5.839,7.206l-29.24,43.565,33.131-35.87A51.679,51.679,0,0,0,111.3,146l2.8-6.155A8.625,8.625,0,0,1,111.32,137.406Z" transform="translate(-69.083 -128.46)" fill="#110239"/>
      <path id="Caminho_210" data-name="Caminho 210" d="M92.788,155.942s-4.817-13.432-.311-22.131,10.389,7.865,10.389,7.865Z" transform="translate(-59.173 -131.285)" fill="#fd425f"/>
      <path id="Caminho_211" data-name="Caminho 211" d="M92.057,152.622s14.269-.023,20.924-7.213-10.921-7.1-10.921-7.1Z" transform="translate(-58.479 -128.045)" fill="#fd425f"/>
    </g>
    <path id="Caminho_212" data-name="Caminho 212" d="M85.445,160.735c-.11-.045-.224.247-.33.213,0-.006.019-.322.018-.327-.041-.289-1.14-.362-1.384-.491-.737-.384-.44-.848-.105-.742.228.072.745.225.944.313a3.574,3.574,0,0,0,.763.088,5.5,5.5,0,0,1,.947.656C86.675,160.693,85.846,160.9,85.445,160.735Z" transform="translate(24.082 12.965)" fill="#f88667"/>
    <g id="Grupo_103" data-name="Grupo 103" transform="translate(36.332 205.264)">
      <path id="Caminho_213" data-name="Caminho 213" d="M56.3,189.267A33.567,33.567,0,0,0,46,194.01c-4.414,3.27-8.993,13.407-9.892,20.521s-2.7,12.672,0,16.31,11.446,4.374,18.968,5.111,17.9-1.064,19.987-3.68,1.923-22.419-2-29.891S62.027,189.1,56.3,189.267Z" transform="translate(-34.685 -178.502)" fill="#00bad1"/>
      <path id="Caminho_214" data-name="Caminho 214" d="M66.33,231.063a13.1,13.1,0,0,1-4.316-2.078c-2.678-2.207-4.31-2.862-7.643-2.83-3.049.031-6,.022-8.613-1.709a7.91,7.91,0,0,1-3.074-7.689A12.088,12.088,0,0,1,44.9,211.6a7.1,7.1,0,0,0,1.434-6.76,18.406,18.406,0,0,1,.159-9.68,8.764,8.764,0,0,1,3.1-4.145A24.864,24.864,0,0,0,46,193.2c-4.414,3.27-8.993,13.407-9.892,20.521s-2.7,12.672,0,16.31,11.446,4.374,18.968,5.111,17.9-1.064,19.987-3.68a7.782,7.782,0,0,0,.949-3.253C73.4,230.788,70.016,232.289,66.33,231.063Z" transform="translate(-34.685 -177.692)" fill="#00a7cc"/>
      <path id="Caminho_215" data-name="Caminho 215" d="M51.237,194.137s-6.315-1.533-7.173-6.315,1.655-6.438,3.587-5.335,2.238.509,3.587-.329,3.312.513,4.293,1.922,1.165-.244,3.495-.428,3.128,1.961,1.9,4.782S58.535,194.26,51.237,194.137Z" transform="translate(-30.436 -181.901)" fill="#00bad1"/>
      <g id="Grupo_100" data-name="Grupo 100" transform="translate(13.454 0.805)">
        <path id="Caminho_216" data-name="Caminho 216" d="M58.083,191.194c-1.637.421-.668-1.694-.934-2.428-.428.02-.588.731-.729,1.039a1.919,1.919,0,0,1-1.739,1.1c-1.02-.012-1.162-1.125-1.6-1.808-.184-.288-.269-.278-.383.067-.126.38,0,.824-.36,1.121-.653.548-1.739-.075-2.246-.514-.552-.481-.783-1.272-1.374-1.738a.817.817,0,0,0-.184.411c-.146.688-.1,2-1.225,1.758-.95-.2-1.587-1.757-1.894-2.548a8.661,8.661,0,0,1-.681-2.98,9.186,9.186,0,0,1,.086-1.257,3.529,3.529,0,0,1,.232-.965l-.007,0c-.909.8-1.457,2.485-.985,5.116.729,4.068,5.408,5.785,6.79,6.207a2.573,2.573,0,0,0,.745.111c5.748.016,7.534-1.988,8.661-4.244l-.01.01A10.734,10.734,0,0,1,58.083,191.194Z" transform="translate(-43.891 -182.452)" fill="#00a7cc"/>
      </g>
      <g id="Grupo_102" data-name="Grupo 102" transform="translate(14.339 22.564)">
        <g id="Grupo_101" data-name="Grupo 101">
          <path id="Caminho_217" data-name="Caminho 217" d="M53.618,201.219c3.1.305,5.893,1.7,5.839,4.8l-5.17-.092c-.006-1.172-1.2-1.445-1.959-1.459-.475-.007-2.011-.035-2.027.913-.038,2.124,9.528.086,9.421,6.092-.064,3.6-2.909,4.9-6.377,5.085l.155,3.832-3.157-.056.265-3.853c-3.207-.393-6.169-1.954-6.112-5.194l5.168.092v.111c0,1.425,1.589,1.733,2.4,1.747.783.015,2.32-.013,2.337-1.048.039-2.207-9.522-.364-9.42-6.175.06-3.351,2.682-4.592,5.9-4.813l-.126-3.86,3.156.056Z" transform="translate(-44.495 -197.339)" fill="#fff"/>
        </g>
      </g>
      <path id="Caminho_218" data-name="Caminho 218" d="M45.95,188.717l-.57,3.011s1.614,1.552,6.009,1.552a13.113,13.113,0,0,0,6.764-1.554l-.285-2.717A24.808,24.808,0,0,1,45.95,188.717Z" transform="translate(-29.749 -178.755)" fill="#110239"/>
    </g>
  </g>
</svg>
