<svg xmlns="http://www.w3.org/2000/svg" width="190.425" height="140.25" viewBox="0 0 190.425 140.25">
  <g id="Grupo_73" data-name="Grupo 73" transform="translate(-166.451 -242.42)">
    <g id="Grupo_43" data-name="Grupo 43" transform="translate(174.234 284.602)">
      <g id="Grupo_42" data-name="Grupo 42">
        <path id="Caminho_82" data-name="Caminho 82" d="M198.916,365.381q-14.107,0-20.789-7.114t-7.083-23.742l19.728-2.581a51.038,51.038,0,0,0,.517,7.915,14.743,14.743,0,0,0,1.491,4.9,6.525,6.525,0,0,0,2.093,2.381,4.888,4.888,0,0,0,2.61.688q3.9,0,3.9-5.621a17.369,17.369,0,0,0-2.494-9.462,40.437,40.437,0,0,0-8-8.659l-6.022-5.1Q181.6,316.176,179.5,314a40.424,40.424,0,0,1-4.243-5.363,23.2,23.2,0,0,1-3.184-7.026,32.928,32.928,0,0,1-1.032-8.546q0-12.328,7.427-19.009t20.5-6.739q23.4,0,23.571,27.757l-20.187,2.006q0-3.726-.086-5.592a25.171,25.171,0,0,0-.488-3.842,4.89,4.89,0,0,0-1.29-2.754,3.5,3.5,0,0,0-2.381-.773,3.569,3.569,0,0,0-3.211,2.235,9.788,9.788,0,0,0-1.09,4.416,13.648,13.648,0,0,0,.2,2.354q.2,1.146.374,2.035a6.917,6.917,0,0,0,.744,1.95q.574,1.06.861,1.691a8.173,8.173,0,0,0,1.147,1.662c.573.69.954,1.166,1.147,1.435a12.918,12.918,0,0,0,1.376,1.434q1.088,1.029,1.32,1.234c.151.134.649.573,1.49,1.318s1.3,1.156,1.378,1.232l5.506,4.875a75.463,75.463,0,0,1,5.934,5.907,47.11,47.11,0,0,1,4.674,6.338,28.376,28.376,0,0,1,3.355,7.8,35.317,35.317,0,0,1,1.118,9.088,23.4,23.4,0,0,1-7.026,17.262Q210.384,365.38,198.916,365.381Z" transform="translate(-171.044 -267.313)" fill="#d0d1de"/>
        <path id="Caminho_83" data-name="Caminho 83" d="M208.543,363.278V268.192h44.5v15.6H231.826v21.217h15.829v16.173H231.826v26.553h21.449v15.541Z" transform="translate(-144.999 -266.702)" fill="#d0d1de"/>
        <path id="Caminho_84" data-name="Caminho 84" d="M282.983,363.287a47.128,47.128,0,0,1-27.787,0,20.492,20.492,0,0,1-9.117-6.253,25.684,25.684,0,0,1-4.877-9.806,52.605,52.605,0,0,1-1.489-13.333V298.8a52.638,52.638,0,0,1,1.489-13.334,25.733,25.733,0,0,1,4.877-9.806,20.529,20.529,0,0,1,9.117-6.251,47.165,47.165,0,0,1,27.787,0,20.726,20.726,0,0,1,9.174,6.251,25.825,25.825,0,0,1,4.933,9.806,51.7,51.7,0,0,1,1.52,13.334v35.1a51.673,51.673,0,0,1-1.52,13.333,25.775,25.775,0,0,1-4.933,9.806A20.688,20.688,0,0,1,282.983,363.287Zm-13.909-14.022a5.348,5.348,0,0,0,3.1-.83,4.562,4.562,0,0,0,1.72-2.438,15.122,15.122,0,0,0,.659-2.925,31.765,31.765,0,0,0,.142-3.269V292.833a31.766,31.766,0,0,0-.142-3.269,14.634,14.634,0,0,0-.659-2.9,4.547,4.547,0,0,0-1.72-2.408,5.349,5.349,0,0,0-3.1-.832,5.188,5.188,0,0,0-2.638.63,4.808,4.808,0,0,0-1.635,1.462,6.517,6.517,0,0,0-.83,2.294,15.576,15.576,0,0,0-.317,2.408c-.019.632-.025,1.5-.025,2.61V339.8c0,1.071.007,1.932.025,2.579a15.569,15.569,0,0,0,.317,2.438,6.517,6.517,0,0,0,.83,2.294,5.04,5.04,0,0,0,4.274,2.15Z" transform="translate(-123.351 -267.313)" fill="#d0d1de"/>
      </g>
    </g>
    <g id="Grupo_46" data-name="Grupo 46" transform="translate(246.019 242.42)">
      <path id="Caminho_85" data-name="Caminho 85" d="M226.193,252.421s2.677,9.657,3.994,11.236,5.619,3.908,5.619,3.908l-1.142,2.018s-7.817-3.984-9.173-7.242a24.53,24.53,0,0,1-1.581-5c-.215-1.195-1.1-4.167-.657-5.355A1.686,1.686,0,0,1,226.193,252.421Z" transform="translate(-206.652 -236.25)" fill="#00bad1"/>
      <path id="Caminho_86" data-name="Caminho 86" d="M226.193,252.421s2.677,9.657,3.994,11.236,5.619,3.908,5.619,3.908l-1.142,2.018s-7.817-3.984-9.173-7.242a24.53,24.53,0,0,1-1.581-5c-.215-1.195-1.1-4.167-.657-5.355A1.686,1.686,0,0,1,226.193,252.421Z" transform="translate(-206.652 -236.25)" fill="#00a1cc" opacity="0.65" style="mix-blend-mode: multiply;isolation: isolate"/>
      <path id="Caminho_87" data-name="Caminho 87" d="M240.769,280.013l1.972-1.844s7.891-.579,8.352.112-7.481,4.44-8.5,4.372S240.9,280.772,240.769,280.013Z" transform="translate(-194.402 -217.749)" fill="#110239"/>
      <path id="Caminho_88" data-name="Caminho 88" d="M232.347,263.854s7.461-1.9,8.074-.669,8.361,25.521,8.361,25.521l-1.972,1.844S238.5,270.046,236.1,267.9,231.234,264.7,232.347,263.854Z" transform="translate(-200.443 -228.286)" fill="#f88667"/>
      <path id="Caminho_89" data-name="Caminho 89" d="M232.347,263.854s7.461-1.9,8.074-.669,8.361,25.521,8.361,25.521l-1.972,1.844S238.5,270.046,236.1,267.9,231.234,264.7,232.347,263.854Z" transform="translate(-200.443 -228.286)" fill="#e45940"/>
      <g id="Grupo_44" data-name="Grupo 44" transform="translate(27.12 30.086)">
        <path id="Caminho_90" data-name="Caminho 90" d="M230.347,261.184a6.625,6.625,0,0,0,1.551-.622,2.051,2.051,0,0,1,1.317-.373c.356.051,3.223,1.244,2.459,1.778-.247.173-.866-.13-1.113-.219-.351-.125-.707-.3-1.044-.449.308-.015,1.859.642,1.7,1-.285.637-1.856-.214-2.222-.419.28.042,1.251.407,1.249.761,0,.558-1.156.092-1.406-.036a1.659,1.659,0,0,0-.525-.256,2.109,2.109,0,0,0-.7.124,4.11,4.11,0,0,1-1.223.024c-.239-.022-.795.029-.913-.176a.878.878,0,0,1,.154-.871A1.754,1.754,0,0,1,230.347,261.184Z" transform="translate(-229.411 -260.175)" fill="#f88667"/>
        <path id="Caminho_91" data-name="Caminho 91" d="M230.347,261.184a6.625,6.625,0,0,0,1.551-.622,2.051,2.051,0,0,1,1.317-.373c.356.051,3.223,1.244,2.459,1.778-.247.173-.866-.13-1.113-.219-.351-.125-.707-.3-1.044-.449.308-.015,1.859.642,1.7,1-.285.637-1.856-.214-2.222-.419.28.042,1.251.407,1.249.761,0,.558-1.156.092-1.406-.036a1.659,1.659,0,0,0-.525-.256,2.109,2.109,0,0,0-.7.124,4.11,4.11,0,0,1-1.223.024c-.239-.022-.795.029-.913-.176a.878.878,0,0,1,.154-.871A1.754,1.754,0,0,1,230.347,261.184Z" transform="translate(-229.411 -260.175)" fill="#e45940"/>
      </g>
      <g id="Grupo_45" data-name="Grupo 45" transform="translate(24.098 18.199)">
        <path id="Caminho_92" data-name="Caminho 92" d="M240.07,253.16l1.755.72L235.8,268.427l-1.775-.959Z" transform="translate(-223.187 -253.16)" fill="#110239"/>
        <rect id="Retângulo_51" data-name="Retângulo 51" width="11.478" height="1.783" transform="translate(0 14.055)" fill="#110239"/>
      </g>
      <path id="Caminho_93" data-name="Caminho 93" d="M217.2,266.382c1.535-.879,1.793-1.849.942-5.06a6.746,6.746,0,0,1,3.516-7.424c1.573-.649,2.952-.934,3.909-2.61s-.856-5.25,2.172-7.9c2.206-1.928,5.373-.388,5.373-.388.681-.376.962,3.6,1.012,6.583-3.835,5.87-2.743,13.539-1.345,20.111a2.982,2.982,0,0,0,.141.441c-.3,5.087-.544,9.3-.544,9.3s-9.218,5.219-15.49.751S214.129,268.141,217.2,266.382Z" transform="translate(-213.406 -242.42)" fill="#110239"/>
      <path id="Caminho_94" data-name="Caminho 94" d="M232.471,278.452l2.342,1.347s2.867,7.373,2.34,8.017-6.438-5.851-6.671-6.846S231.785,278.8,232.471,278.452Z" transform="translate(-201.564 -217.395)" fill="#110239"/>
      <path id="Caminho_95" data-name="Caminho 95" d="M232.452,263.161s15.041,1.054,16.446,2.4-11.365,24.732-11.365,24.732l-2.1-1.207s3.16-11.118,3.98-13.694,2.4-5.677,2.106-6.087-15.449,1.874-15.332-2.4S232.452,263.161,232.452,263.161Z" transform="translate(-204.528 -228.029)" fill="#f88667"/>
      <path id="Caminho_96" data-name="Caminho 96" d="M227.919,249.191s-1.579,4.3-.615,7.505l-5.267-1.273s2.155-7.2,3.077-8.427S227.919,249.191,227.919,249.191Z" transform="translate(-207.412 -239.427)" fill="#f88667"/>
      <path id="Caminho_97" data-name="Caminho 97" d="M225.724,253.053a2.628,2.628,0,0,0-2.7,2.61l-.986-.239s2.155-7.2,3.077-8.427,2.8,2.194,2.8,2.194a17.689,17.689,0,0,0-.885,4.175A2.785,2.785,0,0,0,225.724,253.053Z" transform="translate(-207.412 -239.427)" fill="#e45940"/>
      <path id="Caminho_98" data-name="Caminho 98" d="M227.681,244.931a7.989,7.989,0,0,1,2.535,1.8c.49.825.063,1.964.1,2.718a11.611,11.611,0,0,1,.134,2.057c-.114.183-.868,0-.99.163s-1.1.774-1.4,1.466-.713.754-1.427.408-3.44-3.952-3.47-5.641S225.656,244.24,227.681,244.931Z" transform="translate(-206.631 -240.775)" fill="#f88667"/>
      <path id="Caminho_99" data-name="Caminho 99" d="M226.847,243.52a14.176,14.176,0,0,1,1.052,2.667,6.3,6.3,0,0,1-1.052,3.293c-.429.295-.066-2.5-1.152-1.647s.064,2.469,0,2.8a2.013,2.013,0,0,1-1.679,1.481c-1.12.1-2.964-5.465-1.745-6.848A6.3,6.3,0,0,1,226.847,243.52Z" transform="translate(-207.529 -241.656)" fill="#110239"/>
      <path id="Caminho_100" data-name="Caminho 100" d="M224.76,243.086a3.022,3.022,0,0,1,3.675.164c1.878,1.515,1.811,3.787,3.359,3.589,0,0-1.02,2.635-3.26,2.008S223.981,244.667,224.76,243.086Z" transform="translate(-205.628 -242.342)" fill="#110239"/>
      <path id="Caminho_101" data-name="Caminho 101" d="M222.036,260.641l6.976-.527s3.63,4.053,7.215,4.053h12.26a23.388,23.388,0,0,1-3.614,9.644s-11.647.366-17.323-.1S216.476,266.982,222.036,260.641Z" transform="translate(-209.034 -230.131)" fill="#fd425f"/>
      <path id="Caminho_102" data-name="Caminho 102" d="M220.694,261.459c.2-.273.412-.546.652-.818l6.976-.527s3.533,3.938,7.071,4.045C231.121,264.591,222.956,265.537,220.694,261.459Z" transform="translate(-208.345 -230.131)" fill="#e42244"/>
      <path id="Caminho_103" data-name="Caminho 103" d="M236.931,263.326c-1.778-.175-3.5-.6-5.253-.82h7.692C238.61,262.9,238.236,263.453,236.931,263.326Z" transform="translate(-200.716 -228.47)" fill="#e42244"/>
      <path id="Caminho_104" data-name="Caminho 104" d="M223.564,250.426a29.775,29.775,0,0,0,4.287,1.376s2.257,4.975,3.135,6.321-2.227,6.5-2.4,8.72c0,0-1.864,1.781-7.515.685C221.07,267.527,219.6,253.556,223.564,250.426Z" transform="translate(-208.27 -236.86)" fill="#00bad1"/>
      <path id="Caminho_105" data-name="Caminho 105" d="M222.707,252.251a2.7,2.7,0,0,1,3.162.993c.59,1.215-.017,3.374.054,4.691a25.656,25.656,0,0,0,.512,4.567,9.493,9.493,0,0,0,1.842,3.413c-.725.437-2.823,1.317-7.207.466,0,0-.9-8.518.6-13.743C222.075,252.5,222.451,252.368,222.707,252.251Z" transform="translate(-208.27 -235.712)" fill="#00a1cc" opacity="0.65" style="mix-blend-mode: multiply;isolation: isolate"/>
      <path id="Caminho_106" data-name="Caminho 106" d="M229.7,261.184a6.684,6.684,0,0,0,1.551-.622,2.051,2.051,0,0,1,1.317-.373c.354.051,3.221,1.244,2.459,1.778-.249.173-.866-.13-1.113-.219-.352-.125-.707-.3-1.044-.449.308-.015,1.859.642,1.7,1-.286.637-1.857-.214-2.222-.419.278.042,1.249.407,1.249.761,0,.558-1.156.092-1.406-.036a1.668,1.668,0,0,0-.527-.256,2.116,2.116,0,0,0-.7.124,4.1,4.1,0,0,1-1.222.024c-.241-.022-.8.029-.915-.176a.886.886,0,0,1,.154-.871A1.752,1.752,0,0,1,229.7,261.184Z" transform="translate(-202.74 -230.089)" fill="#f88667"/>
      <path id="Caminho_107" data-name="Caminho 107" d="M236.212,267.312l-.613,2.31s-15.1-1.756-15.451-4.433.615-15.141,4.258-13.846.044,10.335.613,11.037S236.212,267.312,236.212,267.312Z" transform="translate(-208.771 -236.289)" fill="#00bad1"/>
    </g>
    <path id="Caminho_108" data-name="Caminho 108" d="M286.594,302.282H262.4c-4.518,0-7.746-3.82-6.316-7.525.024-.061.046-.122.073-.185,2.278-5.006,9-3.686,10.782-1.361,0,0-4.543-8.232,5.162-8.232,8.142,0,5.621,8,5.621,8s1.532-6.172,6.312-5.7c7.742.761,3.138,8.469,3.138,8.469s7.758-1.744,7.681,2.43S286.594,302.282,286.594,302.282Z" transform="translate(62.018 29.559)" fill="#01c7e2"/>
    <path id="Caminho_109" data-name="Caminho 109" d="M193.892,301.6H177.3c-3.1,0-5.316-2.621-4.333-5.163.015-.041.031-.083.049-.125,1.562-3.435,6.177-2.53,7.4-.935,0,0-3.118-5.648,3.542-5.648,5.585,0,3.857,5.49,3.857,5.49s1.051-4.235,4.33-3.913c5.312.522,2.154,5.811,2.154,5.811s5.323-1.2,5.27,1.666S193.892,301.6,193.892,301.6Z" transform="translate(4.359 32.857)" fill="#01c7e2"/>
    <path id="Caminho_110" data-name="Caminho 110" d="M239.571,323.6H205.914c-6.285,0-10.779-5.314-8.788-10.469.032-.085.063-.171.1-.256,3.169-6.966,12.524-5.129,15-1.895,0,0-6.321-11.453,7.181-11.453,11.326,0,7.82,11.133,7.82,11.133s2.13-8.588,8.783-7.936c10.77,1.057,4.365,11.782,4.365,11.782s10.794-2.427,10.687,3.381S239.571,323.6,239.571,323.6Z" transform="translate(20.974 39.664)" fill="#01c7e2"/>
    <g id="Grupo_48" data-name="Grupo 48" transform="translate(183.17 273.56)">
      <path id="Caminho_111" data-name="Caminho 111" d="M202.033,275.411a11.643,11.643,0,0,0,0-3.386l-2.61-.41a10.407,10.407,0,0,0-.319-1.168l2.069-1.669a12.871,12.871,0,0,0-1.7-2.925l-2.476.956a10.607,10.607,0,0,0-.851-.851l.956-2.476a12.867,12.867,0,0,0-2.925-1.7l-1.669,2.071a10.062,10.062,0,0,0-1.168-.32l-.408-2.61a11.646,11.646,0,0,0-3.386,0l-.41,2.61a9.943,9.943,0,0,0-1.166.32L184.3,261.78a12.868,12.868,0,0,0-2.925,1.7l.956,2.476a10.6,10.6,0,0,0-.851.851L179,265.853a12.871,12.871,0,0,0-1.7,2.925l2.071,1.669a10.413,10.413,0,0,0-.32,1.168l-2.61.41a11.645,11.645,0,0,0,0,3.386l2.61.408a10.41,10.41,0,0,0,.32,1.168l-2.071,1.669a12.87,12.87,0,0,0,1.7,2.925l2.476-.956a10.6,10.6,0,0,0,.851.851l-.956,2.476a12.873,12.873,0,0,0,2.925,1.7l1.671-2.069a10.27,10.27,0,0,0,1.166.319l.41,2.61a11.649,11.649,0,0,0,3.386,0l.408-2.61a10.4,10.4,0,0,0,1.168-.319l1.669,2.069a12.872,12.872,0,0,0,2.925-1.7l-.956-2.476a10.606,10.606,0,0,0,.851-.851l2.476.956a12.87,12.87,0,0,0,1.7-2.925l-2.069-1.669a10.4,10.4,0,0,0,.319-1.168Zm-12.8,5.07A6.763,6.763,0,1,1,196,273.718,6.762,6.762,0,0,1,189.238,280.481Z" transform="translate(-176.317 -260.797)" fill="#fd425f"/>
      <g id="Grupo_47" data-name="Grupo 47" transform="translate(5.316 5.316)">
        <path id="Caminho_112" data-name="Caminho 112" d="M187.059,263.934a7.6,7.6,0,1,0,7.605,7.605A7.6,7.6,0,0,0,187.059,263.934Zm0,12.333a4.729,4.729,0,1,1,4.728-4.728A4.729,4.729,0,0,1,187.059,276.267Z" transform="translate(-179.454 -263.934)" fill="#110239"/>
      </g>
    </g>
    <g id="Grupo_50" data-name="Grupo 50" transform="translate(294.359 333.635)">
      <path id="Caminho_113" data-name="Caminho 113" d="M269.147,317.244a14.487,14.487,0,0,0,.766-1.734,14.273,14.273,0,0,0,.507-1.825l-2.588-1.412a11.269,11.269,0,0,0,.1-1.347l2.8-.976a14.386,14.386,0,0,0-.688-3.714l-2.962.073a11.5,11.5,0,0,0-.574-1.213l1.937-2.242a14.387,14.387,0,0,0-2.433-2.889l-2.533,1.545a12.158,12.158,0,0,0-1.107-.774l.551-2.9a14.621,14.621,0,0,0-1.732-.766,14.423,14.423,0,0,0-1.825-.507l-1.412,2.588a11.312,11.312,0,0,0-1.347-.1l-.976-2.8a14.315,14.315,0,0,0-3.714.69L252,299.9a11.494,11.494,0,0,0-1.213.574l-2.242-1.937a14.44,14.44,0,0,0-2.891,2.433L247.2,303.5a11.534,11.534,0,0,0-.774,1.107l-2.9-.551a13.1,13.1,0,0,0-1.274,3.557l2.589,1.412a11.318,11.318,0,0,0-.1,1.347l-2.8.976a14.459,14.459,0,0,0,.69,3.714l2.962-.073a11.834,11.834,0,0,0,.573,1.213l-1.935,2.242a14.439,14.439,0,0,0,2.433,2.891l2.533-1.547a11.337,11.337,0,0,0,1.107.774l-.552,2.9a14.23,14.23,0,0,0,1.734.766,14.732,14.732,0,0,0,1.825.508l1.412-2.589a11.324,11.324,0,0,0,1.347.1l.976,2.8a14.455,14.455,0,0,0,3.714-.69l-.073-2.962a11.63,11.63,0,0,0,1.212-.573l2.244,1.935a14.384,14.384,0,0,0,2.889-2.433l-1.545-2.533a11.941,11.941,0,0,0,.774-1.107Zm-15.354.513a7.548,7.548,0,1,1,9.65-4.563A7.548,7.548,0,0,1,253.793,317.758Z" transform="translate(-241.933 -296.249)" fill="#01c7e2"/>
      <g id="Grupo_49" data-name="Grupo 49" transform="translate(5.913 5.911)">
        <path id="Caminho_114" data-name="Caminho 114" d="M256.773,300.237a8.489,8.489,0,1,0,5.131,10.852A8.486,8.486,0,0,0,256.773,300.237Zm-4.64,12.962a5.278,5.278,0,1,1,6.748-3.191A5.278,5.278,0,0,1,252.134,313.2Z" transform="translate(-245.422 -299.737)" fill="#110239"/>
      </g>
    </g>
    <g id="Grupo_72" data-name="Grupo 72" transform="translate(166.451 284.416)">
      <g id="Grupo_51" data-name="Grupo 51" transform="translate(13.566 0)">
        <rect id="Retângulo_52" data-name="Retângulo 52" width="1.868" height="1.091" fill="#110239"/>
      </g>
      <g id="Grupo_52" data-name="Grupo 52" transform="translate(3.074)">
        <path id="Caminho_115" data-name="Caminho 115" d="M177.009,268.294H175.26V267.2h1.749Zm-3.5,0h-1.749V267.2h1.749Zm-3.5,0h-1.749V267.2h1.749Z" transform="translate(-168.265 -267.203)" fill="#110239"/>
      </g>
      <g id="Grupo_53" data-name="Grupo 53" transform="translate(0 0)">
        <path id="Caminho_116" data-name="Caminho 116" d="M167.543,268.529h-1.092V267.2h1.326v1.091h-.234Z" transform="translate(-166.451 -267.203)" fill="#110239"/>
      </g>
      <g id="Grupo_54" data-name="Grupo 54" transform="translate(0.001 2.86)">
        <path id="Caminho_117" data-name="Caminho 117" d="M167.542,294.977h-1.091v-1.534h1.091Zm0-3.067h-1.091v-1.535h1.091Zm0-3.069h-1.091V287.3h1.091Zm0-3.07h-1.091v-1.535h1.091Zm0-3.069h-1.091v-1.535h1.091Zm0-3.069h-1.091V278.1h1.091Zm0-3.069h-1.091v-1.535h1.091Zm0-3.071h-1.091V271.96h1.091Zm0-3.069h-1.091v-1.534h1.091Z" transform="translate(-166.451 -268.891)" fill="#110239"/>
      </g>
      <g id="Grupo_55" data-name="Grupo 55" transform="translate(0 30.481)">
        <path id="Caminho_118" data-name="Caminho 118" d="M167.777,286.516h-1.326v-1.326h1.092v.235h.234Z" transform="translate(-166.451 -285.191)" fill="#110239"/>
      </g>
      <g id="Grupo_56" data-name="Grupo 56" transform="translate(2.866 30.715)">
        <path id="Caminho_119" data-name="Caminho 119" d="M191.225,286.42h-1.539v-1.091h1.539Zm-3.077,0h-1.54v-1.091h1.54Zm-3.079,0H183.53v-1.091h1.539Zm-3.077,0h-1.539v-1.091h1.539Zm-3.077,0h-1.54v-1.091h1.54Zm-3.079,0H174.3v-1.091h1.539Zm-3.077,0h-1.539v-1.091h1.539Zm-3.077,0h-1.539v-1.091h1.539Z" transform="translate(-168.142 -285.329)" fill="#110239"/>
      </g>
      <g id="Grupo_57" data-name="Grupo 57" transform="translate(27.488 30.716)">
        <path id="Caminho_120" data-name="Caminho 120" d="M184,286.655h-1.092v-.235h-.234v-1.091H184Z" transform="translate(-182.672 -285.329)" fill="#110239"/>
      </g>
      <g id="Grupo_58" data-name="Grupo 58" transform="translate(27.722 33.525)">
        <path id="Caminho_121" data-name="Caminho 121" d="M183.9,297.354H182.81v-1.481H183.9Zm0-2.962H182.81v-1.481H183.9Zm0-2.962H182.81v-1.483H183.9Zm0-2.962H182.81v-1.481H183.9Z" transform="translate(-182.81 -286.987)" fill="#110239"/>
      </g>
      <g id="Grupo_59" data-name="Grupo 59" transform="translate(27.722 45.373)">
        <path id="Caminho_122" data-name="Caminho 122" d="M184.136,295.3H182.81v-1.326H183.9v.235h.234Z" transform="translate(-182.81 -293.979)" fill="#110239"/>
      </g>
      <g id="Grupo_60" data-name="Grupo 60" transform="translate(30.638 45.609)">
        <path id="Caminho_123" data-name="Caminho 123" d="M211.554,295.209h-1.589v-1.091h1.589Zm-3.179,0h-1.589v-1.091h1.589Zm-3.179,0h-1.589v-1.091H205.2Zm-3.179,0h-1.589v-1.091h1.589Zm-3.179,0h-1.591v-1.091h1.591Zm-3.179,0h-1.591v-1.091h1.591Zm-3.179,0h-1.591v-1.091h1.591Zm-3.181,0H187.71v-1.091H189.3Zm-3.179,0h-1.589v-1.091h1.589Z" transform="translate(-184.531 -294.118)" fill="#110239"/>
      </g>
      <g id="Grupo_61" data-name="Grupo 61" transform="translate(59.25 45.608)">
        <path id="Caminho_124" data-name="Caminho 124" d="M202.742,295.443H201.65v-.235h-.234v-1.091h1.326Z" transform="translate(-201.416 -294.118)" fill="#110239"/>
      </g>
      <g id="Grupo_62" data-name="Grupo 62" transform="translate(59.484 48.566)">
        <path id="Caminho_125" data-name="Caminho 125" d="M202.647,317.082h-1.093V315.45h1.093Zm0-3.264h-1.093v-1.632h1.093Zm0-3.265h-1.093v-1.632h1.093Zm0-3.264h-1.093v-1.632h1.093Zm0-3.265h-1.093v-1.632h1.093Zm0-3.264h-1.093v-1.632h1.093Zm0-3.265h-1.093v-1.632h1.093Z" transform="translate(-201.554 -295.863)" fill="#110239"/>
      </g>
      <g id="Grupo_63" data-name="Grupo 63" transform="translate(59.484 71.417)">
        <path id="Caminho_126" data-name="Caminho 126" d="M202.88,310.674h-1.326v-1.326h1.092v.235h.234Z" transform="translate(-201.554 -309.349)" fill="#110239"/>
      </g>
      <g id="Grupo_64" data-name="Grupo 64" transform="translate(62.329 71.652)">
        <path id="Caminho_127" data-name="Caminho 127" d="M238.178,310.578H236.66v-1.091h1.518Zm-3.038,0h-1.518v-1.091h1.518Zm-3.038,0h-1.52v-1.091h1.52Zm-3.038,0h-1.52v-1.091h1.52Zm-3.04,0H224.5v-1.091h1.518Zm-3.038,0h-1.518v-1.091h1.518Zm-3.038,0h-1.52v-1.091h1.52Zm-3.038,0h-1.52v-1.091h1.52Zm-3.04,0H212.35v-1.091h1.518Zm-3.038,0h-1.52v-1.091h1.52Zm-3.038,0h-1.518v-1.091h1.518Zm-3.038,0h-1.52v-1.091h1.52Z" transform="translate(-203.233 -309.487)" fill="#110239"/>
      </g>
      <g id="Grupo_65" data-name="Grupo 65" transform="translate(98.795 71.417)">
        <path id="Caminho_128" data-name="Caminho 128" d="M226.079,310.674h-1.326v-1.091h.234v-.235h1.092Z" transform="translate(-224.752 -309.349)" fill="#110239"/>
      </g>
      <g id="Grupo_66" data-name="Grupo 66" transform="translate(99.028 37.219)">
        <path id="Caminho_129" data-name="Caminho 129" d="M225.983,321.812H224.89v-1.556h1.093Zm0-3.11H224.89v-1.556h1.093Zm0-3.109H224.89v-1.554h1.093Zm0-3.108H224.89V310.93h1.093Zm0-3.109H224.89V307.82h1.093Zm0-3.109H224.89v-1.554h1.093Zm0-3.109H224.89V301.6h1.093Zm0-3.108H224.89V298.5h1.093Zm0-3.109H224.89v-1.556h1.093Zm0-3.109H224.89v-1.554h1.093Zm0-3.109H224.89v-1.554h1.093Z" transform="translate(-224.89 -289.167)" fill="#110239"/>
      </g>
      <g id="Grupo_67" data-name="Grupo 67" transform="translate(99.028 34.339)">
        <path id="Caminho_130" data-name="Caminho 130" d="M225.983,288.793H224.89v-1.325h1.326v1.091h-.234Z" transform="translate(-224.89 -287.468)" fill="#110239"/>
      </g>
      <g id="Grupo_68" data-name="Grupo 68" transform="translate(101.902 34.34)">
        <path id="Caminho_131" data-name="Caminho 131" d="M265.274,288.558h-1.547v-1.09h1.547Zm-3.094,0h-1.549v-1.09h1.549Zm-3.1,0h-1.547v-1.09h1.547Zm-3.1,0h-1.545v-1.09h1.545Zm-3.094,0h-1.547v-1.09h1.547Zm-3.094,0h-1.549v-1.09H249.8Zm-3.094,0h-1.549v-1.09h1.549Zm-3.1,0h-1.547v-1.09h1.547Zm-3.1,0h-1.547v-1.09h1.547Zm-3.094,0h-1.547v-1.09h1.547Zm-3.1,0h-1.547v-1.09h1.547Zm-3.094,0H229.68v-1.09h1.549Zm-3.1,0h-1.547v-1.09h1.547Z" transform="translate(-226.586 -287.468)" fill="#110239"/>
      </g>
      <g id="Grupo_69" data-name="Grupo 69" transform="translate(142.138 34.339)">
        <path id="Caminho_132" data-name="Caminho 132" d="M251.656,288.793h-1.091v-.234h-.235v-1.091h1.326Z" transform="translate(-250.33 -287.468)" fill="#110239"/>
      </g>
      <g id="Grupo_70" data-name="Grupo 70" transform="translate(142.372 37.178)">
        <path id="Caminho_133" data-name="Caminho 133" d="M251.56,296.711h-1.091V295.2h1.091Zm0-3.028h-1.091v-1.513h1.091Zm0-3.028h-1.091v-1.512h1.091Z" transform="translate(-250.469 -289.143)" fill="#110239"/>
      </g>
      <g id="Grupo_71" data-name="Grupo 71" transform="translate(142.372 46.259)">
        <rect id="Retângulo_53" data-name="Retângulo 53" width="1.091" height="1.487" fill="#110239"/>
      </g>
    </g>
  </g>
</svg>
