<svg xmlns="http://www.w3.org/2000/svg" width="172.402" height="129.038" viewBox="0 0 172.402 129.038">
  <g id="Grupo_82" data-name="Grupo 82" transform="translate(-290.438 -354.131)">
    <g id="Grupo_80" data-name="Grupo 80" transform="translate(290.438 354.131)">
      <rect id="Retângulo_54" data-name="Retângulo 54" width="4.881" height="27.353" transform="translate(31.476 95.926)" fill="#110239"/>
      <rect id="Retângulo_55" data-name="Retângulo 55" width="4.881" height="27.353" transform="translate(123.745 95.926)" fill="#110239"/>
      <rect id="Retângulo_56" data-name="Retângulo 56" width="160.102" height="98.416" fill="#d0d1de"/>
      <rect id="Retângulo_57" data-name="Retângulo 57" width="144.798" height="85.231" transform="translate(7.652 6.592)" fill="#fff"/>
      <path id="Caminho_134" data-name="Caminho 134" d="M392.021,423.671H300.693s.454-34.413,11.664-39.359,18.711,19.947,23.987,20.277,4.808-20.38,12.486-23.449c19.783-7.914,17.763,23.285,21.389,22.955s6.88-28.807,11.87-28.807C394.328,375.288,392.021,423.671,392.021,423.671Z" transform="translate(-283.517 -339.853)" fill="#e4e5ec"/>
      <path id="Caminho_135" data-name="Caminho 135" d="M392.021,422.376H300.693s2.308-29.343,13.519-34.289,16.154,18.793,21.43,19.123,10.222-16.485,18.464-17.145,13.848,19.453,17.474,19.123,5.562-31.981,10.551-31.981C392.021,377.207,392.021,422.376,392.021,422.376Z" transform="translate(-283.517 -338.558)" fill="#01c7e2"/>
      <path id="Caminho_136" data-name="Caminho 136" d="M392.021,416.5H300.693s2.968-14.507,14.178-19.452,17.145,8.736,22.419,9.066,7.42-19.535,15.661-20.194,3.668,23.985,16.733,23.985c9.478,0,8.033-20.277,13.022-20.277C392.6,389.631,392.021,416.5,392.021,416.5Z" transform="translate(-283.517 -332.685)" fill="#fd425f"/>
      <rect id="Retângulo_58" data-name="Retângulo 58" width="27.076" height="4.745" transform="translate(119.135 33.904)" fill="#e4e5ec"/>
      <rect id="Retângulo_59" data-name="Retângulo 59" width="27.076" height="4.745" transform="translate(119.135 44.463)" fill="#e4e5ec"/>
      <rect id="Retângulo_60" data-name="Retângulo 60" width="27.076" height="4.745" transform="translate(119.135 55.022)" fill="#01c7e2"/>
      <rect id="Retângulo_61" data-name="Retângulo 61" width="27.076" height="4.745" transform="translate(119.135 65.581)" fill="#e4e5ec"/>
      <rect id="Retângulo_62" data-name="Retângulo 62" width="27.076" height="4.745" transform="translate(119.135 76.14)" fill="#fd425f"/>
      <rect id="Retângulo_63" data-name="Retângulo 63" width="4.944" height="4.944" transform="translate(14.715 11.713)" fill="#01c7e2"/>
      <rect id="Retângulo_64" data-name="Retângulo 64" width="22.426" height="4.944" transform="translate(24.427 11.713)" fill="#e4e5ec"/>
      <rect id="Retângulo_65" data-name="Retângulo 65" width="4.944" height="4.944" transform="translate(14.715 20.013)" fill="#01c7e2"/>
      <rect id="Retângulo_66" data-name="Retângulo 66" width="22.426" height="4.944" transform="translate(24.427 20.013)" fill="#e4e5ec"/>
      <rect id="Retângulo_67" data-name="Retângulo 67" width="4.944" height="4.944" transform="translate(14.715 28.312)" fill="#01c7e2"/>
      <rect id="Retângulo_68" data-name="Retângulo 68" width="22.426" height="4.944" transform="translate(24.427 28.312)" fill="#e4e5ec"/>
      <rect id="Retângulo_69" data-name="Retângulo 69" width="70.404" height="6.887" transform="translate(75.807 11.713)" fill="#e4e5ec"/>
      <rect id="Retângulo_70" data-name="Retângulo 70" width="35.317" height="5.827" transform="translate(56.601 26.37)" fill="#e4e5ec"/>
      <rect id="Retângulo_71" data-name="Retângulo 71" width="12.971" height="4.835" transform="translate(27.431 119.803)" fill="#d0d1de"/>
      <rect id="Retângulo_72" data-name="Retângulo 72" width="12.971" height="4.835" transform="translate(119.7 119.803)" fill="#d0d1de"/>
      <g id="Grupo_79" data-name="Grupo 79" transform="translate(56.796 10.847)">
        <g id="Grupo_78" data-name="Grupo 78">
          <path id="Caminho_137" data-name="Caminho 137" d="M329.407,362.788c1.765.132,3.378.888,3.388,2.653l-2.944.017c-.018-.668-.705-.806-1.134-.8-.271,0-1.146.007-1.142.548.007,1.209,5.425-.08,5.445,3.341.013,2.052-1.589,2.825-3.562,2.98l.141,2.181-1.8.01.1-2.2c-1.831-.179-3.539-1.028-3.549-2.874l2.943-.017,0,.062c.02.812.928.966,1.388.963s1.321-.039,1.318-.628c-.008-1.258-5.426-.079-5.447-3.388-.01-1.909,1.466-2.651,3.294-2.82l-.124-2.2,1.8-.01Z" transform="translate(-324.349 -360.607)" fill="#01c7e2"/>
        </g>
      </g>
      <path id="Caminho_138" data-name="Caminho 138" d="M336.46,365.8l-2.77-5.392-2.77,5.392h1.9v8.054h1.762V365.8Z" transform="translate(-263.119 -349.897)" fill="#fd425f"/>
    </g>
    <g id="Grupo_81" data-name="Grupo 81" transform="translate(416.577 375.923)">
      <path id="Caminho_139" data-name="Caminho 139" d="M389.712,382.689a14.935,14.935,0,0,0-4.777,5.929c-2.176,4.346-3.537,6.676-3.8,6.468-1.159-.928-4.219-3.547-8.7-10.567-.544-.854.02-1.407.038-2.073s.913-2.212.719-2.651-.737-.333-1.263.72-.352,1.7-.774,1.4a11.587,11.587,0,0,1-1.79-2.142c-.333-.544-1.387-1.615-1.668-1.439-.266.166-.33.452,1.258,2.728-.576-.811-1.995-2.688-2.486-2.238-.367.337,1.03,2.021,1.661,2.77-.541-.628-1.775-1.951-2.216-1.514-.534.531,2.094,2.527,2.094,2.527s-1.961-1.554-2.224-1.1.878,1.465,2,2.1,1.325.859,1.779,1.089a4.612,4.612,0,0,1,1.028,1.328c.018.037,8.23,17.619,11.178,16s6.867-7.383,6.867-7.383a13.717,13.717,0,0,0,1.517-4.6A17.7,17.7,0,0,0,389.712,382.689Z" transform="translate(-365.752 -359.6)" fill="#f88667"/>
      <path id="Caminho_140" data-name="Caminho 140" d="M376.24,389.215c.595-1.39,4.033-8.352,6.487-9.4l3.291,1.286c1.452,1.809-.4,6.1-1,6.584-.506.41-2.944,5.427-3.45,5.949A42.5,42.5,0,0,1,376.24,389.215Z" transform="translate(-358.674 -358.589)" fill="#fd425f"/>
      <path id="Caminho_141" data-name="Caminho 141" d="M384.492,373.817l4.72.735a10.8,10.8,0,0,0,.708,7.775s-3.393,3.676-5.76,2.7a2.784,2.784,0,0,1-1.586-3.593S385.15,379.4,384.492,373.817Z" transform="translate(-354.516 -362.638)" fill="#e45940"/>
      <path id="Caminho_142" data-name="Caminho 142" d="M394.268,426.551s1.273,5.051.546,5.874-11.31,2.63-12.33,1.79-.7-2.517,1.452-3.428c2.311-.978,3.572-.477,4.993-1.3s.715-3.137.715-3.137Z" transform="translate(-354.838 -327.186)" fill="#110239"/>
      <path id="Caminho_143" data-name="Caminho 143" d="M386.86,426.028s.255,6.336-.59,7.038-11.58.864-12.459-.122-.37-2.39,1.807-2.872c1.956-.434,3.413-.05,4.922-.7,1.325-.566,1.986-3.536,1.986-3.536Z" transform="translate(-360.59 -327.53)" fill="#110239"/>
      <path id="Caminho_144" data-name="Caminho 144" d="M379.089,395.406l13.8-2.452s-5.222,28.41-5.917,31.686-2.752,24.873-2.752,24.873l-6.016-.707s.07-23.6.372-25.7S379.089,395.406,379.089,395.406Z" transform="translate(-357.349 -349.723)" fill="#01c7e2"/>
      <path id="Caminho_145" data-name="Caminho 145" d="M383.048,406.813c-.683-4.455-.223-7.917-1.206-10.089-.392-.863-1.665-.638-1.953-1.519a2.725,2.725,0,0,0,.429-.678l11.459-1.717s-5.2,24.491-6.545,30.5C385.232,423.311,383.594,410.369,383.048,406.813Z" transform="translate(-356.212 -349.82)" fill="#00a7cc"/>
      <path id="Caminho_146" data-name="Caminho 146" d="M382.15,393.6l11.082,2.82a21.173,21.173,0,0,1,.67,9.192c-.913,6.165-1,15.834-1.114,17.145s2.072,22.145,2.239,27.131l-5.971.253s-4.579-26.1-4.845-26.669S382.15,393.6,382.15,393.6Z" transform="translate(-354.686 -349.29)" fill="#01c7e2"/>
      <path id="Caminho_147" data-name="Caminho 147" d="M379.959,394.344c.233-4.669-1.028-11.714,1.713-13.372,2.3-1.388,4.2-2.514,4.2-2.514a3.24,3.24,0,0,0,2.321,1.891c1.636.221,4.234-2.243,4.234-2.243s2.99,1.764,5.686,2.968c-.653,2.164.693,4.1.683,6.261a13.142,13.142,0,0,0,.469,3.515,26.76,26.76,0,0,0-2.388,6.289c-.6,4.256,1.325,10.789,1.325,10.789a74.8,74.8,0,0,1-10.267,1.556,32.681,32.681,0,0,1-10.128-1.2A128.417,128.417,0,0,0,379.959,394.344Z" transform="translate(-357.619 -359.743)" fill="#fd425f"/>
      <path id="Caminho_148" data-name="Caminho 148" d="M393.787,388.462c-.085-.317-.134-.646-.2-.971-.047-.241-.112-.474-.147-.72a13.005,13.005,0,0,1-.121-1.817c.005-1.057-.07-2.187-.079-3.32-.558.409-1.241,1.39-1.918.993-3.176-1.862-3.611,6.646-3.611,10.932s-.107,9.292-1.8,13.174c4.073-.523,6.813-1.186,6.813-1.186s-.271-.919-.578-2.293c-.152-.685-.315-1.486-.456-2.341-.049-.285-.094-.576-.134-.871a27.012,27.012,0,0,1-.256-2.708,14.523,14.523,0,0,1,.1-2.576A26.855,26.855,0,0,1,393.787,388.462Z" transform="translate(-352.147 -357.363)" fill="#e42244"/>
      <path id="Caminho_149" data-name="Caminho 149" d="M389.86,369.389s-6.756-1.023-7.535-.275-.906,3.47-.874,5.77-.935,6.7,1.75,7.513,7.8-1.695,9.617-6.25C395.127,370.345,390.324,369.456,389.86,369.389Z" transform="translate(-355.254 -365.996)" fill="#f88667"/>
      <path id="Caminho_150" data-name="Caminho 150" d="M388.793,368.847s-3.2.109-3.757,4.924c-.253,2.169-.8,3.842-.131,3.951a1.128,1.128,0,0,0,1.36-.971c0-.626.194-2.671,1.469-2.1s.842,3.03-.777,3.742a2.03,2.03,0,0,0,.961,2.159,9.04,9.04,0,0,0,3.854-5.9C392.259,370.866,390.833,368.739,388.793,368.847Z" transform="translate(-353.042 -365.995)" fill="#110239"/>
      <path id="Caminho_151" data-name="Caminho 151" d="M392.873,370.42a4.636,4.636,0,0,0-4.318-3.259c-3.562-.238-6.413,1.9-8.118,4.75,0,0,.971,1.7,4.641,1.921a13.457,13.457,0,0,0,5.592-1.037A3.983,3.983,0,0,0,392.873,370.42Z" transform="translate(-355.842 -367.142)" fill="#110239"/>
      <path id="Caminho_152" data-name="Caminho 152" d="M397.03,396.4c-.221-1.085-1.243-7.483-1.6-9.851-2.073.683-3.984,1.392-6.12,1.961a59.127,59.127,0,0,1,2.273,8.764c.229,2.16-.75,11.712-1.043,15.022h0c-.023.265-.044.489-.06.675a4.643,4.643,0,0,1-.764,1.96c-.484.608-2.1,2.588-1.827,3.45s1.623-.717,2.117-1.254.579,1.259.457,2.226-2.07,2.588-1.864,3.251c.146.464.742.129,1.5-.727-.355.531-.623,1.047-.425,1.182.265.181.75-.152,1.28-.724-.283.439-.466.832-.278.928.276.146.832-.317,1.338-.871-.263.4-.442.782-.256.9.352.223,1.491-.821,1.924-2.192.353-1.11-.486-4.241-.787-5.842a2.824,2.824,0,0,1,.1-1.425C393.906,411.056,397.648,399.438,397.03,396.4Z" transform="translate(-350.836 -354.045)" fill="#f88667"/>
      <path id="Caminho_153" data-name="Caminho 153" d="M389.562,395.2a35.264,35.264,0,0,0,7.458-2.241c-.571-4.023-1.986-9.55-4.065-11.752-.578-.613-1.6-1.733-2.541-1.412-1.231.422-2.807,2.1-2.933,5.37a37.152,37.152,0,0,0,1.234,7.111C388.97,392.956,389.222,394.209,389.562,395.2Z" transform="translate(-351.089 -358.644)" fill="#fd425f"/>
    </g>
  </g>
</svg>
