<svg xmlns="http://www.w3.org/2000/svg" width="127.681" height="133.811" viewBox="0 0 127.681 133.811">
  <g id="Grupo_91" data-name="Grupo 91" transform="translate(-159.598 -131.886)">
    <g id="Grupo_83" data-name="Grupo 83" transform="translate(159.598 152.066)">
      <path id="Caminho_154" data-name="Caminho 154" d="M217.421,224.977H194.036l1.922-28.191H215.5Z" transform="translate(-141.888 -118.691)" fill="#110239"/>
      <path id="Caminho_155" data-name="Caminho 155" d="M222.815,212.652a1.526,1.526,0,0,0-1.269-.677H194.57a1.528,1.528,0,0,0-1.27.677l-3.533,5.271a1.529,1.529,0,0,0,1.27,2.38h34.042a1.529,1.529,0,0,0,1.269-2.38Z" transform="translate(-144.218 -110.88)" fill="#110239"/>
      <rect id="Retângulo_73" data-name="Retângulo 73" width="127.681" height="85.589" rx="4.346" fill="#110239"/>
      <rect id="Retângulo_74" data-name="Retângulo 74" width="115.924" height="73.362" transform="translate(5.878 5.671)" fill="#fd425f"/>
    </g>
    <g id="Grupo_86" data-name="Grupo 86" transform="translate(236.729 207.122)">
      <path id="Caminho_156" data-name="Caminho 156" d="M239.953,212.848c-13.468-2.5-29.171-5.456-29.213-.241-.041,4.929,5.928,8.751,11.084,11.192,2.794-1.066,5.948-1.267,8.931-1.729,5.277-.816,10.454.027,15.736.017a21.145,21.145,0,0,0,8.416-6.23S250.332,214.772,239.953,212.848Z" transform="translate(-210.429 -167.096)" fill="#616161"/>
      <path id="Caminho_157" data-name="Caminho 157" d="M227.183,222.284c.427.22-4.721,2.655-4.311,2.857,2.2.692,23.906.816,25.9.3,3.439-.886-6.378-5.155-2.95-5.868,5.639-3.987,8.808-9.207,5.756-9.858-3.445-.734-8.827,1.081-12.308,1.445-2.653.277-4.188.456-6.707-.422l-8.475-.934c-8.689,1.726-10.479,4.853-10.569,4.812,0,1.239,6.339,3.793,12.019,6.8A6.062,6.062,0,0,1,227.183,222.284Z" transform="translate(-209.002 -167.185)" fill="#00bad1"/>
      <path id="Caminho_158" data-name="Caminho 158" d="M227.183,222.284c.427.22-4.721,2.655-4.311,2.857,2.2.692,23.906.816,25.9.3,3.439-.886-6.378-5.155-2.95-5.868,5.639-3.987,8.808-9.207,5.756-9.858-3.445-.734-8.827,1.081-12.308,1.445-2.653.277-4.188.456-6.707-.422l-8.475-.934c-8.689,1.726-10.479,4.853-10.569,4.812,0,1.239,6.339,3.793,12.019,6.8A6.062,6.062,0,0,1,227.183,222.284Z" transform="translate(-209.002 -167.185)" fill="#00547a" opacity="0.32" style="mix-blend-mode: multiply;isolation: isolate"/>
      <path id="Caminho_159" data-name="Caminho 159" d="M224.523,215.756l2.756,3.731s-2.992,2.09-3.828,2.461-7.6.647-9.366-.712c-1.588-1.219-2.135-2.816-1.322-3.571,1.037-.96,3.542-1.266,4.791-1.429C220.3,215.873,224.523,215.756,224.523,215.756Z" transform="translate(-209.581 -163.992)"/>
      <path id="Caminho_160" data-name="Caminho 160" d="M219.3,219.234l1.588,5.624s26.683-.4,29.47-4.493c3.58-3.695,5.029-10.96-2.184-11.107a15.511,15.511,0,0,0-4.652.936C233.736,213.494,219.3,219.234,219.3,219.234Z" transform="translate(-206.026 -167.334)" fill="#00bad1"/>
      <path id="Caminho_161" data-name="Caminho 161" d="M248.787,217.385a8.611,8.611,0,0,1-4.422-1.66,18.815,18.815,0,0,0-5.527-2.168c-1.685-.392-3.449-.983-4.8-1.445-7.756,2.517-14.735,5.654-14.735,5.654l1.245,4.408c.68.164,1.364.339,2.044.525a14.335,14.335,0,0,1,2.423.38c.168.045.336.077.506.107,7.668-.419,23.118-1.608,25.167-4.617a15.543,15.543,0,0,0,1.248-1.858A13.9,13.9,0,0,1,248.787,217.385Z" transform="translate(-206.026 -165.866)" fill="#00547a" opacity="0.32" style="mix-blend-mode: multiply;isolation: isolate"/>
      <path id="Caminho_162" data-name="Caminho 162" d="M235.26,216.015l-2.314,2.932s3.775,2.3,4.561,2.677,6.24.634,7.971-.607c1.551-1.115,2.12-2.621,1.367-3.365-.96-.948-3.339-1.314-4.526-1.51A39.966,39.966,0,0,0,235.26,216.015Z" transform="translate(-199.009 -163.912)"/>
      <path id="Caminho_163" data-name="Caminho 163" d="M249.464,218.888l-2.374,6.572s-32.772-2.582-35.438-7.156c-1.593-2.735-1.825-6.99,1.61-8.507,2.111-.933,5.1-1.413,9.347.05C233.172,213.482,249.464,218.888,249.464,218.888Z" transform="translate(-210.535 -167.509)" fill="#00bad1"/>
      <path id="Caminho_164" data-name="Caminho 164" d="M230.009,186.718h-4.64s-.668,6.32-1.878,7.073c0,0-1.493,7.467,4.2,7.467,6.888,0,4.2-7.467,4.2-7.467C230.679,193.038,230.009,186.718,230.009,186.718Z" transform="translate(-203.962 -178.925)" fill="#e45940"/>
      <g id="Grupo_84" data-name="Grupo 84" transform="translate(16.699)">
        <path id="Caminho_165" data-name="Caminho 165" d="M234.255,189.827c-.642-.739-1.414.386-1.414.386s1.061-4.179,0-6.012-4.5-.869-4.5-.869-3.44-.965-4.5.869,0,6.012,0,6.012-.772-1.125-1.414-.386,1.06,2.6,1.446,2.83c0,0,2.476,4.629,4.47,4.629s4.469-4.629,4.469-4.629C233.195,192.431,234.9,190.567,234.255,189.827Z" transform="translate(-221.194 -180.796)" fill="#f88667"/>
        <path id="Caminho_166" data-name="Caminho 166" d="M227.479,185.066s-2.6.457-2.894,1.856a5.541,5.541,0,0,0,.139,2.085,13.613,13.613,0,0,1,.223,2.3.4.4,0,0,1-.338-.059,4.756,4.756,0,0,1-.88-1.063c-.5-.724-1.205-.6-1.411-.145,0,0-.578-6.86,2.291-7.1S227.479,185.066,227.479,185.066Z" transform="translate(-221.198 -180.874)" fill="#110239"/>
        <path id="Caminho_167" data-name="Caminho 167" d="M226.829,185.066s2.6.457,2.894,1.856a5.51,5.51,0,0,1-.139,2.085,13.746,13.746,0,0,0-.221,2.3.4.4,0,0,0,.338-.059,4.8,4.8,0,0,0,.88-1.063c.5-.724,1.205-.6,1.41-.145,0,0,.578-6.86-2.291-7.1S226.829,185.066,226.829,185.066Z" transform="translate(-218.854 -180.874)" fill="#110239"/>
        <path id="Caminho_168" data-name="Caminho 168" d="M233.365,184.048a2.1,2.1,0,0,0-1.224-1.829,6.964,6.964,0,0,0-5.866,0c-2.026,1.013-2.641,1.242-3.231.9s-.217-.675-.217-.675-1.326-.012-1.263,2.046,2.6,4.614,5.9,4.614C232.513,189.107,234.147,185.579,233.365,184.048Z" transform="translate(-221.563 -181.571)" fill="#110239"/>
      </g>
      <path id="Caminho_169" data-name="Caminho 169" d="M235.02,191.389c-.244,6.348-4.2,5.692-4.2,5.692s-3.954.656-4.2-5.692c0,0-6.316,1.746-9.4,3.81a61.037,61.037,0,0,1,1.393,11.7l3.611,13.986,8.589-1.566,8.587,1.566,3.611-13.986a60.967,60.967,0,0,1,1.395-11.7C241.334,193.135,235.02,191.389,235.02,191.389Z" transform="translate(-207.093 -176.523)" fill="#d0d1de"/>
      <path id="Caminho_170" data-name="Caminho 170" d="M242.209,196.6c-3.925,2.093-5.834,6.907-9.647,9.266-3.945,2.441-6.737-2.489-8.655-5.055a14.914,14.914,0,0,0-6.314-5.026,59.533,59.533,0,0,1,.84,8.846l3.611,13.986,8.589-1.052,8.587,1.052,3.611-13.986a59.358,59.358,0,0,1,.819-8.711C243.151,196.14,242.664,196.361,242.209,196.6Z" transform="translate(-206.905 -174.26)" fill="#b8b9cd"/>
      <path id="Caminho_171" data-name="Caminho 171" d="M219.688,193.905s-7.159,16.811-7.244,19.127c-.164,4.484,9.643,6.3,14.116,5.476l1.82-.335S221.741,193.784,219.688,193.905Z" transform="translate(-209.554 -175.229)" fill="#d0d1de"/>
      <path id="Caminho_172" data-name="Caminho 172" d="M238.123,193.905s7.228,16.81,7.243,19.127c.029,4.535-9.643,6.3-14.116,5.476l-1.82-.335S236.07,193.784,238.123,193.905Z" transform="translate(-200.818 -175.229)" fill="#d0d1de"/>
      <path id="Caminho_173" data-name="Caminho 173" d="M219.724,197.8a11.755,11.755,0,0,1-.3,2.465c-.692,3.05-1.779,6.234-.637,9.332a49.7,49.7,0,0,0,3.525,6.972,5.628,5.628,0,0,0,1.239-.071l1.82-.335S222.328,204.988,219.724,197.8Z" transform="translate(-206.546 -173.224)" fill="#b8b9cd"/>
      <path id="Caminho_174" data-name="Caminho 174" d="M233.852,216.133a10.981,10.981,0,0,0,.866-4.5c-.106-3.116-.123-6.234-.073-9.352.021-1.348.056-2.653.135-3.931-2.532,7.182-5.35,17.532-5.35,17.532l1.82.335A7.4,7.4,0,0,0,233.852,216.133Z" transform="translate(-200.818 -172.941)" fill="#b8b9cd"/>
      <g id="Grupo_85" data-name="Grupo 85" transform="translate(7.83 27.532)">
        <rect id="Retângulo_75" data-name="Retângulo 75" width="22.509" height="1.334" transform="translate(4.643 15.605)" fill="#110239"/>
        <path id="Caminho_175" data-name="Caminho 175" d="M246.169,199.753h-29.13a1.349,1.349,0,0,0-1.3,1.754c.268,1.755,3.94,14.023,4.681,14.023h22.372c.651,0,4.413-12.268,4.682-14.023A1.349,1.349,0,0,0,246.169,199.753Z" transform="translate(-215.705 -199.753)" fill="#110239"/>
        <path id="Caminho_176" data-name="Caminho 176" d="M227.819,205.771a1.205,1.205,0,1,1-1.205-1.205A1.2,1.2,0,0,1,227.819,205.771Z" transform="translate(-210.716 -197.278)" fill="#fff"/>
      </g>
    </g>
    <g id="Grupo_88" data-name="Grupo 88" transform="translate(184.444 173.619)">
      <g id="Grupo_87" data-name="Grupo 87" transform="translate(0 0.349)">
        <path id="Caminho_177" data-name="Caminho 177" d="M176.006,180.126s36.475,46.014,77.989,0C212.481,134.114,176.006,180.126,176.006,180.126Z" transform="translate(-176.006 -159.676)" fill="#110239"/>
        <path id="Caminho_178" data-name="Caminho 178" d="M179.611,179.154s31.369,39.572,67.069,0C210.98,139.583,179.611,179.154,179.611,179.154Z" transform="translate(-174.152 -158.704)" fill="#fff"/>
      </g>
      <circle id="Elipse_4" data-name="Elipse 4" cx="17.334" cy="17.334" r="17.334" transform="translate(18.195 33.775) rotate(-76.959)" fill="#01c7e2"/>
      <path id="Caminho_179" data-name="Caminho 179" d="M216.384,176.889a10.919,10.919,0,1,1-10.919-10.918A10.919,10.919,0,0,1,216.384,176.889Z" transform="translate(-166.471 -156.09)" fill="#110239"/>
      <path id="Caminho_180" data-name="Caminho 180" d="M213.305,170.147a4.441,4.441,0,1,1-4.44-4.44A4.441,4.441,0,0,1,213.305,170.147Z" transform="translate(-161.392 -156.226)" fill="#fff"/>
    </g>
    <g id="Grupo_90" data-name="Grupo 90" transform="translate(170.196 131.886)">
      <g id="Grupo_89" data-name="Grupo 89">
        <rect id="Retângulo_76" data-name="Retângulo 76" width="51.628" height="34.925" rx="1.55" fill="#e5e6ed"/>
        <rect id="Retângulo_77" data-name="Retângulo 77" width="46.934" height="29.361" transform="translate(2.347 2.782)" fill="#110239"/>
      </g>
      <path id="Caminho_181" data-name="Caminho 181" d="M179.472,138.932v14.382l14-7.191Z" transform="translate(-159.976 -128.262)" fill="#fd425f"/>
    </g>
  </g>
</svg>
