<svg xmlns="http://www.w3.org/2000/svg" width="13.806" height="26.252" viewBox="0 0 13.806 26.252">
  <g id="facebook" transform="translate(356.193 -77.8)">
    <path id="Caminho_275" data-name="Caminho 275" d="M-345.839,77.8c.7,0,1.409.038,2.109.069.457.019.914.084,1.343.131l-.033,4.227h-.335c-.464,0-.928-.006-1.392-.006-.348,0-.7,0-1.044.015-1.12.037-1.944.457-2,1.857-.035,1.008-.061,3.233-.062,3.35.058,0,1.165,0,2.279,0,.557,0,1.1,0,1.481,0h.9c-.227,1.624-.435,3.182-.661,4.749h-4l-.091,11.86h-4.917l.09-11.878h-4.021l.036-4.722h4.04l0-.354c.007-.952,0-1.9.031-2.856a11.762,11.762,0,0,1,.154-1.81,5.374,5.374,0,0,1,2.154-3.527,6.184,6.184,0,0,1,3.545-1.1C-346.1,77.8-345.969,77.8-345.839,77.8Z" fill="#f83771"/>
  </g>
</svg>
