<svg xmlns="http://www.w3.org/2000/svg" width="26.265" height="26.252" viewBox="0 0 26.265 26.252">
  <g id="instagram" transform="translate(244.3 -77.8)">
    <g id="Grupo_137" data-name="Grupo 137">
      <path id="Caminho_277" data-name="Caminho 277" d="M-224.116,82.365h.02a1.563,1.563,0,0,1,1.559,1.581,1.592,1.592,0,0,1-1.594,1.571,1.569,1.569,0,0,1-1.559-1.581A1.579,1.579,0,0,1-224.116,82.365Z" fill="#f83771"/>
    </g>
    <g id="Grupo_138" data-name="Grupo 138">
      <path id="Caminho_278" data-name="Caminho 278" d="M-218.2,84.39c.2,2.067.322,11.831-.286,14.119a6.721,6.721,0,0,1-5.8,5.251,64.961,64.961,0,0,1-7.243.292,44.612,44.612,0,0,1-7.3-.387,6.588,6.588,0,0,1-5.229-5.726c-.352-2.214-.389-12.505.25-14.741a6.7,6.7,0,0,1,5.722-5.1,51.135,51.135,0,0,1,6.58-.295c2.451,0,4.923.066,6.412.148a7.229,7.229,0,0,1,4.793,1.961A6.91,6.91,0,0,1-218.2,84.39Zm-2.525,13.117a94.218,94.218,0,0,0,.162-12.9,4.417,4.417,0,0,0-3.933-4.186,60.518,60.518,0,0,0-6.565-.247c-2.615,0-5.216.07-6.362.195a4.5,4.5,0,0,0-4.2,3.954,89.434,89.434,0,0,0-.09,13.254,4.256,4.256,0,0,0,3.24,3.711,40.61,40.61,0,0,0,7.062.388c2.755,0,5.459-.087,6.476-.2a4.482,4.482,0,0,0,4.205-3.975" fill="#f83771"/>
    </g>
    <g id="Grupo_139" data-name="Grupo 139">
      <path id="Caminho_279" data-name="Caminho 279" d="M-231.112,84.2a6.673,6.673,0,0,1,6.676,6.738,6.8,6.8,0,0,1-6.789,6.727,6.667,6.667,0,0,1-6.676-6.738A6.784,6.784,0,0,1-231.112,84.2Zm-.1,11.082a4.4,4.4,0,0,0,4.391-4.312,4.31,4.31,0,0,0-4.279-4.4h-.039a4.4,4.4,0,0,0-4.391,4.313,4.317,4.317,0,0,0,4.279,4.4h.039" fill="#f83771"/>
    </g>
  </g>
</svg>
