<svg xmlns="http://www.w3.org/2000/svg" width="26.657" height="26.702" viewBox="0 0 26.657 26.702">
  <g id="linkedin" transform="translate(180.157 -77.35)">
    <g id="Grupo_141" data-name="Grupo 141">
      <path id="Caminho_280" data-name="Caminho 280" d="M-176.918,77.35a3.183,3.183,0,0,1,3.19,3.215,3.242,3.242,0,0,1-3.239,3.214,3.189,3.189,0,0,1-3.19-3.214A3.249,3.249,0,0,1-176.918,77.35Z" fill="#f83771"/>
    </g>
    <g id="Grupo_142" data-name="Grupo 142">
      <path id="Caminho_281" data-name="Caminho 281" d="M-174.205,86.208l-.136,17.844h-5.549l.136-17.844Z" fill="#f83771"/>
    </g>
    <g id="Grupo_143" data-name="Grupo 143">
      <path id="Caminho_282" data-name="Caminho 282" d="M-160.088,85.774c5.619,0,6.624,3.684,6.587,8.494l-.075,9.784h-5.537l.066-8.67c.016-2.076-.011-4.74-2.85-4.74-2.886,0-3.337,2.253-3.355,4.588l-.067,8.822h-5.55l.136-17.844h5.315l-.019,2.44h.083A5.879,5.879,0,0,1-160.088,85.774Z" fill="#f83771"/>
    </g>
  </g>
</svg>
