<svg xmlns="http://www.w3.org/2000/svg" width="168.714" height="212.545" viewBox="0 0 168.714 212.545">
  <g id="paperplane" transform="translate(-284.987 -2480.569)">
    <path id="Caminho_269" data-name="Caminho 269" d="M439.347,1719.167l-.056,0c-2.487-.1-4.991-.314-7.441-.639a1.376,1.376,0,1,1,.362-2.729c2.367.313,4.786.521,7.189.617a1.377,1.377,0,0,1-.054,2.752Zm7.338-.034a1.377,1.377,0,0,1-.066-2.752c2.374-.115,4.795-.336,7.2-.657a1.377,1.377,0,1,1,.365,2.729c-2.477.331-4.976.56-7.426.679Zm-21.877-1.9a1.391,1.391,0,0,1-.31-.035c-2.414-.555-4.835-1.233-7.194-2.016a1.377,1.377,0,1,1,.867-2.613c2.278.755,4.614,1.41,6.945,1.945a1.377,1.377,0,0,1-.307,2.719Zm36.422-.027a1.377,1.377,0,0,1-.288-2.723c2.335-.5,4.7-1.1,7.017-1.787a1.377,1.377,0,0,1,.778,2.641c-2.387.7-4.815,1.321-7.217,1.837A1.364,1.364,0,0,1,461.229,1717.205Zm14.086-4.134a1.377,1.377,0,0,1-.481-2.667c2.249-.839,4.5-1.769,6.7-2.765a1.377,1.377,0,1,1,1.136,2.508c-2.256,1.022-4.57,1.977-6.878,2.837A1.379,1.379,0,0,1,475.315,1713.071Zm-64.442-.436a1.38,1.38,0,0,1-.541-.111c-2.229-.955-4.493-2.026-6.732-3.184a1.377,1.377,0,1,1,1.264-2.446c2.18,1.127,4.385,2.169,6.552,3.1a1.377,1.377,0,0,1-.543,2.643Zm77.816-5.628a1.377,1.377,0,0,1-.656-2.588c1.936-1.047,3.778-2.128,5.475-3.213a1.377,1.377,0,0,1,1.483,2.32c-1.753,1.121-3.654,2.236-5.648,3.315A1.368,1.368,0,0,1,488.689,1707.007Zm-90.866-1.108a1.372,1.372,0,0,1-.713-.2c-2.132-1.294-4.227-2.666-6.226-4.075a1.377,1.377,0,0,1,1.588-2.25c1.947,1.374,3.988,2.709,6.067,3.971a1.377,1.377,0,0,1-.715,2.554Zm-11.993-8.48a1.371,1.371,0,0,1-.875-.315c-1.866-1.538-3.655-3.134-5.321-4.747a1.4,1.4,0,0,1,1.44-2.392,62.272,62.272,0,0,0,6.735,1.126,1.377,1.377,0,1,1-.3,2.737q-1.276-.141-2.559-.336.866.751,1.759,1.488a1.377,1.377,0,0,1-.876,2.439Zm9.156-3.209a1.377,1.377,0,0,1-.012-2.754c1.918-.016,3.854-.128,5.757-.33.39-.041.85-.091,1.42-.159a1.377,1.377,0,1,1,.326,2.734c-.584.07-1.055.121-1.4.157q-3.073.327-6.081.352Zm14.588-1.7a1.377,1.377,0,0,1-.282-2.724c2.4-.5,4.752-1.112,7-1.8a1.377,1.377,0,0,1,.812,2.632c-2.325.716-4.761,1.345-7.241,1.867A1.371,1.371,0,0,1,409.574,1692.51Zm-36.2-1.948a1.37,1.37,0,0,1-.456-.078,68.9,68.9,0,0,1-6.919-2.868,1.377,1.377,0,0,1,1.191-2.483,65.915,65.915,0,0,0,6.64,2.753,1.377,1.377,0,0,1-.456,2.676Zm50.219-2.411a1.377,1.377,0,0,1-.544-2.642,55.185,55.185,0,0,0,6.391-3.236,1.377,1.377,0,1,1,1.407,2.367,57.925,57.925,0,0,1-6.711,3.4A1.378,1.378,0,0,1,423.6,1688.151Zm-48.233-1a1.374,1.374,0,0,1-1.055-.492,63.462,63.462,0,0,1-4.488-6.012,1.377,1.377,0,1,1,2.3-1.509,60.852,60.852,0,0,0,4.293,5.751,1.377,1.377,0,0,1-1.053,2.262Zm-15.2-2.921a1.373,1.373,0,0,1-.723-.206,70.985,70.985,0,0,1-6.147-4.27,1.376,1.376,0,1,1,1.688-2.175,68.267,68.267,0,0,0,5.909,4.1,1.377,1.377,0,0,1-.726,2.548Zm75.982-3.623a1.377,1.377,0,0,1-.886-2.432,36.231,36.231,0,0,0,4.951-5.031,1.377,1.377,0,0,1,2.147,1.725,39.034,39.034,0,0,1-5.326,5.415A1.37,1.37,0,0,1,436.141,1680.6Zm-87.56-5.364a1.371,1.371,0,0,1-.955-.385,69.37,69.37,0,0,1-5.108-5.474,1.377,1.377,0,0,1,2.112-1.766,66.861,66.861,0,0,0,4.9,5.257,1.377,1.377,0,0,1-.955,2.369Zm18.81-.376a1.376,1.376,0,0,1-1.249-.8,43.91,43.91,0,0,1-2.6-7.105,1.377,1.377,0,0,1,2.659-.714,41.157,41.157,0,0,0,2.441,6.657,1.377,1.377,0,0,1-1.247,1.958Zm77.83-5.649a1.377,1.377,0,0,1-1.233-1.987,32.619,32.619,0,0,0,2.307-6.212l.1-.389a1.377,1.377,0,0,1,2.671.669l-.106.415a35.343,35.343,0,0,1-2.5,6.737A1.377,1.377,0,0,1,445.222,1669.215Zm-106.035-5.222a1.376,1.376,0,0,1-1.149-.617,65.914,65.914,0,0,1-3.777-6.473,1.377,1.377,0,0,1,2.453-1.25,63.213,63.213,0,0,0,3.619,6.2,1.377,1.377,0,0,1-1.147,2.137Zm24.478-3.231a1.377,1.377,0,0,1-1.372-1.288c-.051-.783-.076-1.58-.076-2.368a37.035,37.035,0,0,1,.375-5.238,1.377,1.377,0,0,1,2.726.391,34.236,34.236,0,0,0-.347,4.847c0,.729.024,1.465.071,2.19a1.376,1.376,0,0,1-1.285,1.463C363.725,1660.762,363.695,1660.763,363.665,1660.763Zm85.105-5.682h-.061a1.377,1.377,0,0,1-1.316-1.435q.035-.8.034-1.6a38.926,38.926,0,0,0-.392-5.472,1.377,1.377,0,1,1,2.726-.388,41.668,41.668,0,0,1,.42,5.86q0,.857-.036,1.715A1.377,1.377,0,0,1,448.77,1655.081Zm-116.234-4.144a1.377,1.377,0,0,1-1.29-.9,67.93,67.93,0,0,1-2.224-7.154,1.377,1.377,0,1,1,2.67-.672,65.163,65.163,0,0,0,2.134,6.863,1.377,1.377,0,0,1-1.29,1.859Zm33.149-4.622a1.377,1.377,0,0,1-1.3-1.82,49.915,49.915,0,0,1,2.977-6.934,1.377,1.377,0,0,1,2.443,1.271,47.158,47.158,0,0,0-2.813,6.549A1.377,1.377,0,0,1,365.685,1646.316Zm81.058-5.7a1.377,1.377,0,0,1-1.31-.955,44.32,44.32,0,0,0-2.723-6.572,1.377,1.377,0,0,1,2.452-1.254,47.14,47.14,0,0,1,2.892,6.981,1.377,1.377,0,0,1-1.311,1.8Zm-117.8-3.889a1.377,1.377,0,0,1-1.362-1.184,74.65,74.65,0,0,1-.671-7.45,1.377,1.377,0,0,1,2.752-.109,71.794,71.794,0,0,0,.646,7.172,1.38,1.38,0,0,1-1.365,1.57Zm43.454-3.419a1.377,1.377,0,0,1-1.125-2.169,59.555,59.555,0,0,1,4.708-5.857,1.377,1.377,0,1,1,2.033,1.857,56.887,56.887,0,0,0-4.49,5.585A1.374,1.374,0,0,1,372.4,1633.307Zm67.687-5.716a1.377,1.377,0,0,1-1.112-.564,43.452,43.452,0,0,0-4.654-5.377,1.377,1.377,0,0,1,1.926-1.968,46.209,46.209,0,0,1,4.95,5.718,1.377,1.377,0,0,1-1.11,2.19Zm-57.8-5.1a1.377,1.377,0,0,1-.891-2.427,55.482,55.482,0,0,1,6.054-4.47,1.377,1.377,0,1,1,1.479,2.323,52.723,52.723,0,0,0-5.752,4.247A1.371,1.371,0,0,1,382.286,1622.489Zm-53.93-.415-.08,0a1.377,1.377,0,0,1-1.3-1.454,74.4,74.4,0,0,1,.8-7.438,1.377,1.377,0,0,1,2.719.434,71.632,71.632,0,0,0-.768,7.161A1.378,1.378,0,0,1,328.356,1622.074ZM429.61,1617.4a1.372,1.372,0,0,1-.771-.238,35.788,35.788,0,0,0-6.2-3.376,1.377,1.377,0,0,1,1.067-2.539,38.583,38.583,0,0,1,6.677,3.636,1.377,1.377,0,0,1-.774,2.516Zm-34.957-2.729a1.377,1.377,0,0,1-.555-2.637,43.329,43.329,0,0,1,7.166-2.441,1.377,1.377,0,1,1,.651,2.676,40.58,40.58,0,0,0-6.709,2.286A1.369,1.369,0,0,1,394.653,1614.666Zm21.5-2.873a1.386,1.386,0,0,1-.249-.023,32.074,32.074,0,0,0-5.743-.517c-.389-.007-.845.008-1.267.024a1.377,1.377,0,0,1-.106-2.752c.458-.018.947-.009,1.374-.026a34.83,34.83,0,0,1,6.237.562,1.377,1.377,0,0,1-.246,2.731Zm-85.434-4.186a1.377,1.377,0,0,1-1.326-1.75,69.77,69.77,0,0,1,2.412-7.083,1.377,1.377,0,0,1,2.555,1.027,66.854,66.854,0,0,0-2.317,6.8A1.377,1.377,0,0,1,330.721,1607.607Zm5.456-13.594a1.377,1.377,0,0,1-1.215-2.022,72.864,72.864,0,0,1,3.843-6.419,1.377,1.377,0,1,1,2.287,1.534,70.107,70.107,0,0,0-3.7,6.174A1.376,1.376,0,0,1,336.177,1594.013Zm8.16-12.182a1.377,1.377,0,0,1-1.06-2.254c1.575-1.906,3.269-3.765,5.035-5.524a1.377,1.377,0,1,1,1.944,1.95c-1.7,1.7-3.337,3.491-4.856,5.329A1.374,1.374,0,0,1,344.337,1581.831Zm10.386-10.36a1.377,1.377,0,0,1-.877-2.439c1.9-1.572,3.913-3.083,5.97-4.488a1.377,1.377,0,1,1,1.554,2.273c-1.989,1.359-3.931,2.819-5.771,4.338A1.37,1.37,0,0,1,354.723,1571.471Zm12.114-8.283a1.377,1.377,0,0,1-.674-2.578c2.154-1.208,4.4-2.339,6.664-3.364a1.377,1.377,0,0,1,1.134,2.509c-2.2.993-4.367,2.088-6.451,3.257A1.37,1.37,0,0,1,366.837,1563.187Zm13.374-6.048a1.377,1.377,0,0,1-.459-2.675c2.328-.822,4.726-1.558,7.127-2.187a1.377,1.377,0,1,1,.7,2.664c-2.327.609-4.651,1.323-6.907,2.12A1.381,1.381,0,0,1,380.211,1557.139Z" transform="translate(-41.926 973.947)" fill="#fff"/>
    <g id="Grupo_130" data-name="Grupo 130" transform="translate(1775.707 1447.976)">
      <path id="Caminho_270" data-name="Caminho 270" d="M-1340.946,1052.039l-134.761,17.981,32.672,24.781.512,45.61,28.154-23.914,15.821,11.929Z" transform="translate(0 -16.68)" fill="#232323" opacity="0.1"/>
      <g id="Grupo_129" data-name="Grupo 129" transform="translate(-1472.766 1032.593)">
        <g id="Grupo_128" data-name="Grupo 128" transform="translate(0 0)">
          <path id="Caminho_271" data-name="Caminho 271" d="M-1226.262,1120.966l-.747-66.624,102.325-21.749Z" transform="translate(1259.445 -1032.593)" fill="#46c1aa"/>
          <path id="Caminho_272" data-name="Caminho 272" d="M-1422.142,1075.523c.518-.26,101.868-42.93,101.868-42.93l-134.76,17.981Z" transform="translate(1455.035 -1032.593)" fill="#52d1bd"/>
          <path id="Caminho_273" data-name="Caminho 273" d="M-1210.876,1377.9l-10.88,36.939,46.665-39.637Z" transform="translate(1254.939 -1326.468)" fill="#3caf99"/>
          <path id="Caminho_274" data-name="Caminho 274" d="M-1145.268,1084.027l33.095,24.954,57.6-76.387Z" transform="translate(1189.331 -1032.593)" fill="#52d1bd"/>
        </g>
      </g>
    </g>
  </g>
</svg>
