<svg xmlns="http://www.w3.org/2000/svg" width="59.828" height="59.954" viewBox="0 0 59.828 59.954">
  <g id="phone" transform="translate(12.461)">
    <g id="Grupo_170" data-name="Grupo 170" transform="translate(-12.461 0)">
      <path id="Caminho_292" data-name="Caminho 292" d="M58.8,44l-8.367-8.367a5.565,5.565,0,0,0-9.263,2.092,5.694,5.694,0,0,1-6.574,3.586c-5.976-1.494-14.044-9.263-15.538-15.538A5.416,5.416,0,0,1,22.642,19.2a5.565,5.565,0,0,0,2.092-9.263L16.367,1.569a5.968,5.968,0,0,0-8.068,0L2.622,7.246c-5.677,5.976.6,21.813,14.642,35.857S47.145,63.722,53.121,57.745L58.8,52.068A5.968,5.968,0,0,0,58.8,44Z" transform="translate(-0.539 0)" fill="#364f6b"/>
    </g>
  </g>
</svg>
