<svg xmlns="http://www.w3.org/2000/svg" width="616.598" height="528.788" viewBox="0 0 616.598 528.788">
  <g id="Grupo_35" data-name="Grupo 35" transform="translate(-303.988 -247.467)">
    <g id="Grupo_27" data-name="Grupo 27" transform="translate(373.876 329.738)">
      <path id="Caminho_41" data-name="Caminho 41" d="M442.48,423.585H347.052L354.9,308.548h79.741Z" transform="translate(-134.257 10.129)" fill="#110239"/>
      <path id="Caminho_42" data-name="Caminho 42" d="M478.715,325.615a6.237,6.237,0,0,0-5.179-2.77H363.454a6.237,6.237,0,0,0-5.179,2.77l-14.422,21.511a6.239,6.239,0,0,0,5.186,9.708H487.951a6.236,6.236,0,0,0,5.179-9.708Z" transform="translate(-157.986 89.682)" fill="#110239"/>
      <rect id="Retângulo_32" data-name="Retângulo 32" width="521.018" height="349.26" rx="4.091" fill="#110239"/>
      <rect id="Retângulo_33" data-name="Retângulo 33" width="473.042" height="299.364" transform="translate(23.988 23.139)" fill="#fefefe"/>
      <rect id="Retângulo_34" data-name="Retângulo 34" width="449.406" height="266.762" transform="translate(35.805 55.741)" fill="#e5e6ed"/>
      <rect id="Retângulo_35" data-name="Retângulo 35" width="449.406" height="22.068" transform="translate(35.805 55.741)" fill="#b3eef6"/>
      <rect id="Retângulo_36" data-name="Retângulo 36" width="139.567" height="18.423" transform="translate(323.83 149.789)" fill="#fefefe"/>
      <rect id="Retângulo_37" data-name="Retângulo 37" width="139.567" height="18.424" transform="translate(323.83 182.359)" fill="#fefefe"/>
      <rect id="Retângulo_38" data-name="Retângulo 38" width="139.567" height="18.423" transform="translate(323.83 214.93)" fill="#fefefe"/>
      <rect id="Retângulo_39" data-name="Retângulo 39" width="139.568" height="18.423" transform="translate(77.254 99.956)" fill="#fefefe"/>
      <rect id="Retângulo_40" data-name="Retângulo 40" width="139.568" height="18.423" transform="translate(77.254 132.527)" fill="#fefefe"/>
    </g>
    <g id="Grupo_30" data-name="Grupo 30" transform="translate(303.988 247.467)">
      <g id="Grupo_28" data-name="Grupo 28" transform="translate(0 220.493)">
        <path id="Caminho_43" data-name="Caminho 43" d="M584.2,281.057H320.7a16.708,16.708,0,0,0-16.712,16.706V382.73A16.712,16.712,0,0,0,320.7,399.436H485.778L548.65,452.9,518.8,399.436h65.4A16.711,16.711,0,0,0,600.9,382.73V297.763A16.707,16.707,0,0,0,584.2,281.057Z" transform="translate(-303.988 -281.057)" fill="#fd425f"/>
        <rect id="Retângulo_41" data-name="Retângulo 41" width="177.573" height="10.224" transform="translate(99.291 22.91)" fill="#fff"/>
        <rect id="Retângulo_42" data-name="Retângulo 42" width="177.573" height="10.224" transform="translate(99.291 43.77)" fill="#fff"/>
        <rect id="Retângulo_43" data-name="Retângulo 43" width="177.573" height="10.224" transform="translate(99.291 64.629)" fill="#fff"/>
        <rect id="Retângulo_44" data-name="Retângulo 44" width="117.857" height="10.224" transform="translate(99.291 85.488)" fill="#fff"/>
        <path id="Caminho_44" data-name="Caminho 44" d="M375.046,318.836a34.255,34.255,0,1,1-34.259-34.259A34.258,34.258,0,0,1,375.046,318.836Z" transform="translate(-289.816 -261.471)" fill="#110239"/>
        <ellipse id="Elipse_1" data-name="Elipse 1" cx="9.668" cy="9.97" rx="9.668" ry="9.97" transform="translate(41.306 37.207)" fill="#fff"/>
        <path id="Caminho_45" data-name="Caminho 45" d="M326.625,289.992h-.348a17.162,17.162,0,0,0-17.165,17.159v10.943a33.3,33.3,0,0,0,34.679,0V307.151A17.162,17.162,0,0,0,326.625,289.992Z" transform="translate(-275.477 -231.341)" fill="#fff"/>
      </g>
      <g id="Grupo_29" data-name="Grupo 29" transform="translate(319.691)">
        <path id="Caminho_46" data-name="Caminho 46" d="M632.891,247.467H369.4a16.7,16.7,0,0,0-16.706,16.706V349.14A16.7,16.7,0,0,0,369.4,365.846h76.29l-20.441,53.466L478.7,365.846H632.891A16.707,16.707,0,0,0,649.6,349.14V264.173A16.706,16.706,0,0,0,632.891,247.467Z" transform="translate(-352.69 -247.467)" fill="#d0d1de"/>
        <rect id="Retângulo_45" data-name="Retângulo 45" width="177.573" height="10.224" transform="translate(99.285 22.912)" fill="#fff"/>
        <rect id="Retângulo_46" data-name="Retângulo 46" width="177.573" height="10.224" transform="translate(99.285 43.771)" fill="#fff"/>
        <rect id="Retângulo_47" data-name="Retângulo 47" width="177.573" height="10.224" transform="translate(99.285 64.63)" fill="#fff"/>
        <rect id="Retângulo_48" data-name="Retângulo 48" width="117.857" height="10.224" transform="translate(99.285 85.489)" fill="#fff"/>
        <path id="Caminho_47" data-name="Caminho 47" d="M423.747,285.246a34.255,34.255,0,1,1-34.252-34.259A34.256,34.256,0,0,1,423.747,285.246Z" transform="translate(-338.524 -227.881)" fill="#110239"/>
        <path id="Caminho_48" data-name="Caminho 48" d="M378.314,263.106a9.67,9.67,0,1,1-9.663-9.971A9.82,9.82,0,0,1,378.314,263.106Z" transform="translate(-317.68 -215.929)" fill="#fff"/>
        <path id="Caminho_49" data-name="Caminho 49" d="M375.326,256.4h-.348a17.168,17.168,0,0,0-17.166,17.165V284.51a33.338,33.338,0,0,0,34.679,0V273.568A17.167,17.167,0,0,0,375.326,256.4Z" transform="translate(-324.184 -197.751)" fill="#fff"/>
      </g>
    </g>
    <g id="Grupo_32" data-name="Grupo 32" transform="translate(710.089 593.028)">
      <rect id="Retângulo_49" data-name="Retângulo 49" width="135.295" height="42.939" rx="2.345" fill="#fd425f"/>
      <g id="Grupo_31" data-name="Grupo 31" transform="translate(36.407 10.889)">
        <path id="Caminho_50" data-name="Caminho 50" d="M389.1,307.053a4.639,4.639,0,0,1-3.617,4.536,5.161,5.161,0,0,1,4.3,5.278c0,3.584-3.131,5.822-8.054,5.822H371.4v-20.92h9.932C386.084,301.769,389.1,303.83,389.1,307.053Zm-5.612.952c0-1.254-.926-2-2.448-1.969h-4.175V310.1h4.175C382.559,310.1,383.485,309.318,383.485,308.005Zm.656,8.179c0-1.313-1.195-2.146-3.1-2.12h-4.175v4.385h4.175C382.947,318.449,384.141,317.615,384.141,316.184Z" transform="translate(-371.4 -301.769)" fill="#fff"/>
        <path id="Caminho_51" data-name="Caminho 51" d="M384.326,318.271c2.416,0,4.09-1.641,4.09-4.352v-12.15h5.461v12.15c0,5.514-3.7,9.006-9.584,9.006-5.908,0-9.7-3.492-9.7-9.006v-12.15h5.461v12.15A4.078,4.078,0,0,0,384.326,318.271Z" transform="translate(-353.605 -301.769)" fill="#fff"/>
        <path id="Caminho_52" data-name="Caminho 52" d="M390.924,316.007v6.682h-5.461v-6.531l-7.7-14.389h5.461l4.956,8.986,4.838-8.986h5.455Z" transform="translate(-335.995 -301.769)" fill="#fff"/>
      </g>
    </g>
    <g id="Grupo_34" data-name="Grupo 34" transform="translate(423.784 329.444)">
      <path id="Caminho_53" data-name="Caminho 53" d="M385.923,279.932a77.446,77.446,0,0,1-21.137.932,31.187,31.187,0,0,1-7.424-1.615c.341,8.8.407,29.434-5.855,37.981,0,0,2.251,10.142,20.572,10.444s20.382-13.516,20.382-13.516S386.3,292.916,385.923,279.932Z" transform="translate(-159.377 -152.602)" fill="#f88667"/>
      <path id="Caminho_54" data-name="Caminho 54" d="M351.605,317.551a6.236,6.236,0,0,0,.276.715l.046.092a10.43,10.43,0,0,0,.571,1.07l.026.052a13.8,13.8,0,0,0,.932,1.3l.158.184a14.808,14.808,0,0,0,3.322,2.882l.236.164a19.794,19.794,0,0,0,2.481,1.3c.118.052.25.1.368.151a24.215,24.215,0,0,0,3.217,1.1,25.781,25.781,0,0,1,5.4-13,32.339,32.339,0,0,1,20.625-11.973c-1.562-6.873-3.151-15.255-3.334-21.649a77.446,77.446,0,0,1-21.137.932,31.187,31.187,0,0,1-7.424-1.615c.341,8.8.407,29.434-5.855,37.981l.059.217Z" transform="translate(-159.377 -152.602)" fill="#e45940"/>
      <path id="Caminho_55" data-name="Caminho 55" d="M359.569,275.6s30.018-8.862,34.8-1.595,3.912,19.01,5.908,24.183,9.439,10.627,10.234,12.7-4.989,6.026-5.8,7.641-3.827,18.6-9.039,22.351-33.156-6.2-40.081-19.4S351.522,279.95,359.569,275.6Z" transform="translate(-158.401 -197.683)" fill="#f88667"/>
      <path id="Caminho_56" data-name="Caminho 56" d="M386.946,283.825a29.775,29.775,0,0,1-3.164,15.5c-1.792,3.591,7.168,13.135,4.674,17.474-1.661,2.888-4.089,2.159-6.295-3.551-.755-1.95-2.908-3.3-4.851-4.142-7.345-3.177-9.059,8.015-2.468,11.343,4.608,2.324,1.865,14,1.865,14-4.949,3.807-21.314-.788-19.522-12.735,1.142-7.608,1.647-10.5-1.018-12.354-4.825-3.354-11.1-12.669-3.164-20.559,10.943-10.877.965-14.336,13.614-17.474S389.716,275.915,386.946,283.825Z" transform="translate(-172.104 -200.633)" fill="#110239"/>
      <path id="Caminho_57" data-name="Caminho 57" d="M351.556,284.41c.709-2.757,5.7-6.315,8.173-8.153a36.394,36.394,0,0,1,12.945-5.842,33.354,33.354,0,0,1,14.428-.486c4.1.781,7.542,2.606,11.743,3.079,3.879.446,7.739.269,10.463-2.028a26.8,26.8,0,0,1,.519,9.5c-.683,3.742-3.157,7.1-5.4,10.437-6.092,9.085-22.653,14.12-34.331,9.315-5.646-2.317-10.707-4.326-13.477-9.229A29.625,29.625,0,0,0,351.556,284.41Z" transform="translate(-159.104 -207.618)" fill="#110239"/>
      <path id="Caminho_58" data-name="Caminho 58" d="M404.141,274.636l29.021,64.4s-8.494,9.551-11.33,7.431-46.35-54.378-50.6-57.089S404.141,274.636,404.141,274.636Z" transform="translate(-51.49 -178.27)" fill="#110239"/>
      <path id="Caminho_59" data-name="Caminho 59" d="M365,345.951s.118,18.518,11.442,22.765c0,0,58.034-24.051,69.712-26.355s54.142-2.665,54.142-2.665l-42.818-76.434s-20.527,41.046-39.281,54.5S365,345.951,365,345.951Z" transform="translate(-84.299 -241.563)" fill="#fd425f"/>
      <path id="Caminho_60" data-name="Caminho 60" d="M380.477,304.6c4.595-1.825,9.38-3.715,14.1-5.534-7.115-8-10.8-19.167-12.216-26.191-4.4,2.521-8.96,4.956-13.378,7.214A53.281,53.281,0,0,0,380.477,304.6Z" transform="translate(-62.137 -188.062)" fill="#110239"/>
      <path id="Caminho_61" data-name="Caminho 61" d="M447.124,301.314c12.091,29.152,7.818,58.625-9.538,65.819s-41.23-10.608-53.315-39.759-7.818-58.625,9.538-65.82S435.039,272.155,447.124,301.314Z" transform="translate(-15.327 -259.955)" fill="#01c7e2"/>
      <path id="Caminho_62" data-name="Caminho 62" d="M437.946,296.229c10.28,24.8,6.643,49.869-8.12,55.986S394.753,343.2,384.474,318.4s-6.65-49.869,8.114-55.993S427.66,271.423,437.946,296.229Z" transform="translate(-8.487 -253.899)" fill="#110239"/>
      <path id="Caminho_63" data-name="Caminho 63" d="M382.1,294.451c-1.378-.84-.991-6.026-.709-7.372.44-2.114,1.9-4.864.433-6.879-2.586-3.571-6.229,6.033-6.7,7.424-.906,2.665-1.234,4.483-.663,6.4.472,1.6,3.334,6.591,5.553,8.383-.269.958-.564,1.949-.932,3.006a63.014,63.014,0,0,1,7,3.545c2.8,1.608,2.652,3.61,5.278,5.409l2.619-6.013C392.869,306.982,384.4,295.843,382.1,294.451Z" transform="translate(-33.259 -151.708)" fill="#f88667"/>
      <path id="Caminho_64" data-name="Caminho 64" d="M392.3,279.861c-2.508-2.7-6.413-1.667-9.446.552-2.219,1.615-8.6,6.774-6.879,10.516,1.431,3.118,9.643-3.774,9.643-3.774-3.026,2.606-8.665,4.687-7.247,7.293,1.582,2.9,8.75-1.234,10.319-2.389-1.608.414-9.616,5.271-6.406,7.811,2.2,1.733,8.08-1.91,9.846-3.151-2.363.715-5.58,2.816-4.956,6.091,1.024,1.786,4.595.6,6.584-.21,3.006-1.214,5.829-1.687,6.072-5.416a15.722,15.722,0,0,0,.1-2.022,20.3,20.3,0,0,0-2.639-8.114A35.258,35.258,0,0,0,392.3,279.861Z" transform="translate(-24.869 -158.196)" fill="#f88667"/>
      <path id="Caminho_65" data-name="Caminho 65" d="M384.173,331.717a32.937,32.937,0,0,1-3.354-7.135c-.748-2.14-1.273-4.326-2.015-6.459-.709-2.061-1.556-4.109-1.444-6.328a18.2,18.2,0,0,1,.781-3.866c.427-1.641,1.031-3.236,1.365-4.9.3-1.484.171-2.921.453-4.4a26.222,26.222,0,0,1,2.553-8.113,30.494,30.494,0,0,1,3.729-5.133,19.112,19.112,0,0,1,2.206-2.35,5.826,5.826,0,0,0,2.022-2.488,2.381,2.381,0,0,0-1.733-3.21c-2.58-.656-6.649.532-8.225,2.7-2.186,3.006-3.216,6.689-5.652,9.59-7.444,8.868-14.428-1.576-23.113-5.324a51.988,51.988,0,0,1-8.4-5.416c-1.549-1.168-8.219-7.5-11.369-5.849-2.317,1.214,2.219,6.538,4.418,7.838.867.512,8.3,6.558,9.275,6.846-2.193-.374-7.9-4.142-12.479-7.726-3.3-2.58-6.486-5.12-8.284-3.65-5.527,4.529,16.161,14.894,17.855,15.846-1.805.151-18.787-11.868-20.388-7.451-.886,2.429,2.639,4.838,5.521,6.407,3.61,1.963,9.676,3.367,11.041,4.424-2.56.873-13.8-6.774-13.8-2.107,0,3.052,6.978,5.337,9.6,6.138,2.711.827,10.66,6.236,13.181,7.431,8.389,4,11.855,3.538,15.163,8.56,2.107,3.21,5.862,20.126,8.908,26.565Z" transform="translate(-322.238 -188.679)" fill="#f88667"/>
      <path id="Caminho_66" data-name="Caminho 66" d="M454.737,283.02c-7.483,21.787-23.487,60.325-28.764,57.621-9.912-5.081-31.239-22.515-47.171-33.182-12.347-8.264-18.524-10.674-18.524-10.674l11.087,52.586s52.573,39.93,63.588,33.812c8.665-4.812,29.985-65.524,37.508-90.685C472.461,292.5,454.862,283.119,454.737,283.02Z" transform="translate(-110.573 -131.619)" fill="#01c7e2"/>
      <path id="Caminho_67" data-name="Caminho 67" d="M396.109,323.745c-5.921-7.693-28.535-29.841-34.653-34.561l1.766,24.944s52.993,39.838,64.723,34.863C417.85,342.5,403.311,333.086,396.109,323.745Z" transform="translate(-104.013 -97.321)" fill="#00a7cc"/>
      <path id="Caminho_68" data-name="Caminho 68" d="M449.893,323.038s-64.657,26.1-71.695,24.261-30.478-68.5-30.478-68.5l-19.581,7.956s20.913,96.153,34.377,100.643,93.7-18.682,93.7-18.682S457.54,345.37,449.893,323.038Z" transform="translate(-289.396 -155.089)" fill="#01c7e2"/>
      <path id="Caminho_69" data-name="Caminho 69" d="M352.962,325.9c-5.7,2.048-11.494,4.057-17.316,5.77,27.425-3.623,78.81-18.459,78.81-18.459a140.3,140.3,0,0,0-1.4-24.439C397.133,306.015,374.493,318.178,352.962,325.9Z" transform="translate(-247.631 -99.586)" fill="#00a7cc"/>
      <path id="Caminho_70" data-name="Caminho 70" d="M405.507,279.679c-2.96-9.118-11.855-14.409-19.876-11.809a13.827,13.827,0,0,0-6.682,4.844,79.9,79.9,0,0,0,3.729,11.382,76.962,76.962,0,0,0,9.978,17.4,13.455,13.455,0,0,0,3.682-.6C404.358,298.3,408.461,288.8,405.507,279.679Z" transform="translate(-6.689 -219.599)" fill="#d0d1de"/>
      <g id="Grupo_33" data-name="Grupo 33" transform="translate(155.199 159.042)">
        <path id="Caminho_71" data-name="Caminho 71" d="M351.283,371.738c-2.278,22.443-4.057,69.607-5.4,76.2H451.972c1.871-35.237,1.247-86.267-.5-105.047-3.039-32.716-11.087-52.586-11.087-52.586s-7.923-2.508-17.316-6.125c0,0-19.529,11.934-37.712.164,0,0-32.821,7.772-36.786,9.669C345.277,295.586,353.725,347.778,351.283,371.738Z" transform="translate(-345.881 -284.184)" fill="#01c7e2"/>
        <path id="Caminho_72" data-name="Caminho 72" d="M379.345,371.026a83.8,83.8,0,0,0-6.072-30.6,27.943,27.943,0,0,1-1.95-6.873c-.919-7.043-2.435-11.665-4.49-15.669-2.37-3.584-4.772-7.148-7.116-10.752-1.306-1.759-2.672-3.63-4.181-5.835a100.9,100.9,0,0,1-6.479-11.461c1.241,16.476,3.447,38.479,2.225,50.472-2.278,22.443-4.057,69.607-5.4,76.2h49.376c-6.348-8.166-10.155-18.1-13.884-30.228A54.121,54.121,0,0,1,379.345,371.026Z" transform="translate(-345.881 -252.752)" fill="#00a7cc"/>
      </g>
    </g>
  </g>
</svg>
