<svg xmlns="http://www.w3.org/2000/svg" width="1507.433" height="490.354" viewBox="0 0 1507.433 490.354">
  <g id="Grupo_199" data-name="Grupo 199" transform="translate(-52.935 -140)">
    <circle id="Elipse_2" data-name="Elipse 2" cx="76.5" cy="76.5" r="76.5" transform="translate(674 140)" fill="#f0f0f0"/>
    <circle id="Elipse_3" data-name="Elipse 3" cx="24.5" cy="24.5" r="24.5" transform="translate(848 173)" fill="#43dde6" opacity="0.29"/>
    <g id="Grupo_26" data-name="Grupo 26" transform="translate(-70.413 192.992)" opacity="0.5">
      <path id="Caminho_32" data-name="Caminho 32" d="M123.348,431.5,127.5,176.78H195.4l23.2,131.046,25.81-131.046h65.14L313.7,431.5H270.373l-4.917-165.154L239.493,431.5H199.7L171.588,264.81,167.439,431.5Z" transform="translate(0 1.866)" fill="#f0f0f0"/>
      <path id="Caminho_33" data-name="Caminho 33" d="M237.965,431.5,284.209,176.78h72.513L402.5,431.5h-57l-7.99-50.852H304.488L296.806,431.5ZM309.4,344.7h22.892l-11.524-95.1Z" transform="translate(100.467 1.866)" fill="#f0f0f0"/>
      <path id="Caminho_34" data-name="Caminho 34" d="M339.319,431.5V176.78h76.047a217.743,217.743,0,0,1,28.807,1.691,104.34,104.34,0,0,1,23.967,6.146,52.428,52.428,0,0,1,18.743,11.9q7.3,7.454,11.6,19.358t4.3,28.037q0,25.66-6.452,40.867T471.6,309.519L506.316,431.5H441.024L414.6,318.89h-12.9V431.5Zm62.374-146.873h16.285q15.36,0,21.278-8.833t5.915-25.118q0-15.673-5.607-24.2t-18.512-8.527H401.693Z" transform="translate(189.307 1.866)" fill="#f0f0f0"/>
      <path id="Caminho_35" data-name="Caminho 35" d="M443.867,431.5V176.78h62.374v99.247L544.8,176.78h61.3L559.858,292.465,606.717,431.5H542.652L509.467,321.193l-3.226,4V431.5Z" transform="translate(280.948 1.866)" fill="#f0f0f0"/>
      <path id="Caminho_36" data-name="Caminho 36" d="M542.519,431.5V176.78H661.738v41.789H604.893v56.842h42.4v43.326h-42.4v71.13h57.46V431.5Z" transform="translate(367.421 1.866)" fill="#f0f0f0"/>
      <path id="Caminho_37" data-name="Caminho 37" d="M649.124,431.5V222.87H611.946V176.78H748.523v46.09H711.5V431.5Z" transform="translate(428.276 1.866)" fill="#f0f0f0"/>
      <path id="Caminho_38" data-name="Caminho 38" d="M696.844,431.5V176.78h62.222V431.5Z" transform="translate(502.693 1.866)" fill="#f0f0f0"/>
      <path id="Caminho_39" data-name="Caminho 39" d="M749.732,431.5V176.78h44.245l46.551,109.08V176.78H892V431.5H849.44L803.2,311.668V431.5Z" transform="translate(549.051 1.866)" fill="#f0f0f0"/>
      <path id="Caminho_40" data-name="Caminho 40" d="M914.923,437.361q-19.819,0-33.954-6.452a51.288,51.288,0,0,1-22.123-18.589,84.675,84.675,0,0,1-11.6-27.656,158.87,158.87,0,0,1-3.612-35.8V263.145q0-20.742,4.072-36.489A77.554,77.554,0,0,1,860.766,199q8.991-11.9,24.506-18.129t37.332-6.223a112.921,112.921,0,0,1,30.65,3.764q13.286,3.769,21.894,10.218a52.743,52.743,0,0,1,14.134,16.054,69.734,69.734,0,0,1,7.834,20.511,117,117,0,0,1,2.3,24.119V267.6h-61.3V243.173q0-4.3-.154-6.992a51.074,51.074,0,0,0-.921-6.605,17.462,17.462,0,0,0-2.229-6.146,12.747,12.747,0,0,0-4.378-3.916,13.887,13.887,0,0,0-7.065-1.691,14.649,14.649,0,0,0-8.45,2.3,12.613,12.613,0,0,0-4.84,6.529,39.046,39.046,0,0,0-1.922,7.99,73.628,73.628,0,0,0-.462,8.833v124.9a47.493,47.493,0,0,0,.769,8.833A36.715,36.715,0,0,0,911,385.281a14.48,14.48,0,0,0,5.376,6.375,15.389,15.389,0,0,0,8.681,2.379,15.044,15.044,0,0,0,10.985-4.3,21.276,21.276,0,0,0,5.838-9.756,45.439,45.439,0,0,0,1.458-11.753V335.043H922.911V299.248H999.42v134.12H957.785l-3.072-18.591Q943.493,437.363,914.923,437.361Z" transform="translate(631.361 0)" fill="#f0f0f0"/>
    </g>
    <path id="Caminho_73" data-name="Caminho 73" d="M764.642,137.926h-18.6v-18.6H735.569v18.6h-18.6v10.469h18.6V167h10.469v-18.6h18.6Z" transform="translate(-139.116 53.528)" fill="#364f6b"/>
    <path id="Caminho_74" data-name="Caminho 74" d="M740.394,128.463h-9.142v-9.142h-5.144v9.142h-9.142v5.144h9.142v9.142h5.144v-9.142h9.142Z" transform="translate(-23.867 444.528)" fill="#43dde6"/>
  </g>
</svg>
