<svg xmlns="http://www.w3.org/2000/svg" width="466.001" height="440.617" viewBox="0 0 466.001 440.617">
  <g id="Grupo_112" data-name="Grupo 112" transform="translate(-294.16 -133.202)">
    <g id="Grupo_106" data-name="Grupo 106" transform="translate(573.471 133.202)">
      <path id="Caminho_219" data-name="Caminho 219" d="M388.283,140.825s22.974,5.121,49.5,28.247l-31.811,58.081a67.8,67.8,0,0,0-32.613-17.462Z" transform="translate(-251.095 -102.172)" fill="#fd425f"/>
      <path id="Caminho_220" data-name="Caminho 220" d="M394.013,177.681c2.789-10.394,5.065-20.935,7.758-31.355a98.738,98.738,0,0,0-13.487-5.5l-14.922,68.866c8.326-7.235,10.551-4.482,12.007-5.243C387.857,195.494,391.619,186.59,394.013,177.681Z" transform="translate(-251.095 -102.172)" fill="#e42244"/>
      <path id="Caminho_221" data-name="Caminho 221" d="M351.75,135.791s89.958-8.969,139.947,16.884l-18.365,78.388S429.215,207.364,356,217.495Z" transform="translate(-339.06 -128.787)" fill="#fd425f"/>
      <rect id="Retângulo_79" data-name="Retângulo 79" width="7.199" height="308.292" transform="translate(12.611)" fill="#110239"/>
      <rect id="Retângulo_80" data-name="Retângulo 80" width="18.206" height="14.465" transform="translate(7.108 298.976)" fill="#110239"/>
      <rect id="Retângulo_81" data-name="Retângulo 81" width="32.421" height="7.274" transform="translate(0 310.282)" fill="#110239"/>
    </g>
    <g id="Grupo_107" data-name="Grupo 107" transform="translate(294.16 262.974)">
      <path id="Caminho_222" data-name="Caminho 222" d="M326.343,165.428v51.378h12.833V180.593a6.626,6.626,0,0,1,6.627-6.627h55.089a6.63,6.63,0,0,1,6.632,6.627v36.212h12.828V165.428a6.63,6.63,0,0,0-6.627-6.632H332.97A6.633,6.633,0,0,0,326.343,165.428Z" transform="translate(-163.164 -158.796)" fill="#d0d1de"/>
      <path id="Retângulo_82" data-name="Retângulo 82" d="M4.442,0H415.929a4.441,4.441,0,0,1,4.441,4.441V265.8a4.441,4.441,0,0,1-4.441,4.441H4.441A4.441,4.441,0,0,1,0,265.8V4.442A4.442,4.442,0,0,1,4.442,0Z" transform="translate(0 40.606)" fill="#110239"/>
      <path id="Caminho_223" data-name="Caminho 223" d="M714.533,242.095V189.322a22.52,22.52,0,0,0-22.522-22.517H316.682a22.52,22.52,0,0,0-22.522,22.517v52.772a58.01,58.01,0,0,0,58,58.01H656.523A58.011,58.011,0,0,0,714.533,242.095Z" transform="translate(-294.16 -126.197)" fill="#453964"/>
      <rect id="Retângulo_83" data-name="Retângulo 83" width="26.746" height="30.368" transform="translate(196.813 161.736)" fill="#d0d1de"/>
      <rect id="Retângulo_84" data-name="Retângulo 84" width="8.644" height="7.507" transform="translate(205.864 176.294)" fill="#110239"/>
    </g>
    <g id="Grupo_110" data-name="Grupo 110" transform="translate(324.386 146.521)">
      <path id="Caminho_224" data-name="Caminho 224" d="M330.284,140.412h-14.07s-2.023,19.166-5.694,21.448c0,0-4.528,22.639,12.732,22.639,20.88,0,12.726-22.639,12.726-22.639C332.312,159.578,330.284,140.412,330.284,140.412Z" transform="translate(-259.98 -117.172)" fill="#f88667"/>
      <path id="Caminho_225" data-name="Caminho 225" d="M330.284,140.412h-14.07s-2.023,19.166-5.694,21.448c0,0-4.528,22.639,12.732,22.639,20.88,0,12.726-22.639,12.726-22.639C332.312,159.578,330.284,140.412,330.284,140.412Z" transform="translate(-259.98 -117.172)" fill="#e45940"/>
      <g id="Grupo_108" data-name="Grupo 108" transform="translate(45.208)">
        <path id="Caminho_226" data-name="Caminho 226" d="M345.354,157.575c-1.947-2.241-4.29,1.171-4.29,1.171s3.22-12.676,0-18.228-13.644-2.632-13.644-2.632-10.435-2.926-13.65,2.632,0,18.228,0,18.228-2.337-3.412-4.29-1.171,3.215,7.895,4.386,8.579c0,0,7.509,14.04,13.553,14.04s13.548-14.04,13.548-14.04C342.139,165.47,347.306,159.816,345.354,157.575Z" transform="translate(-309.001 -130.583)" fill="#f88667"/>
        <path id="Caminho_227" data-name="Caminho 227" d="M324.829,143.466s-7.895,1.389-8.772,5.628a16.747,16.747,0,0,0,.421,6.323c.2,1.075.958,6.845.674,6.987a1.217,1.217,0,0,1-1.024-.178A14.442,14.442,0,0,1,313.462,159c-1.5-2.2-3.656-1.83-4.279-.441,0,0-1.754-20.8,6.946-21.529S324.829,143.466,324.829,143.466Z" transform="translate(-309.038 -131.142)" fill="#110239"/>
        <path id="Caminho_228" data-name="Caminho 228" d="M313.166,143.466s7.895,1.389,8.772,5.628a16.741,16.741,0,0,1-.421,6.323c-.2,1.075-.958,6.845-.674,6.987a1.216,1.216,0,0,0,1.024-.178A14.442,14.442,0,0,0,324.534,159c1.5-2.2,3.656-1.83,4.279-.441,0,0,1.754-20.8-6.946-21.529S313.166,143.466,313.166,143.466Z" transform="translate(-292.233 -131.142)" fill="#110239"/>
        <path id="Caminho_229" data-name="Caminho 229" d="M341.429,144.649a9.7,9.7,0,0,0-5.694-6.916,26.206,26.206,0,0,0-16.762-1c-11.038,2.8-11.206,14.232-7.028,17.675,3.149,2.6,5.3,3.884,10.171,3.884C337.424,158.288,343.8,149.293,341.429,144.649Z" transform="translate(-307.471 -135.828)" fill="#110239"/>
      </g>
      <path id="Caminho_230" data-name="Caminho 230" d="M358.418,144.642c-.735,19.247-12.732,17.26-12.732,17.26s-11.986,1.987-12.727-17.26c0,0-19.151,5.294-28.49,11.55a184.867,184.867,0,0,1,4.229,35.472l10.947,42.4,26.041,1.288,26.041-1.288,10.947-42.4a184.878,184.878,0,0,1,4.228-35.472C377.564,149.936,358.418,144.642,358.418,144.642Z" transform="translate(-282.421 -99.954)" fill="#00bad1"/>
      <path id="Caminho_231" data-name="Caminho 231" d="M379.442,151.1c-11.905,6.343-17.691,20.935-29.251,28.09-11.961,7.4-20.423-7.55-26.244-15.323A45.192,45.192,0,0,0,304.8,148.626a181.038,181.038,0,0,1,2.55,26.822l10.947,42.4,26.041,1.288,26.041-1.288,10.947-42.4a179.832,179.832,0,0,1,2.484-26.411C382.3,149.691,380.821,150.36,379.442,151.1Z" transform="translate(-281.073 -83.738)" fill="#00547a" opacity="0.32" style="mix-blend-mode: multiply;isolation: isolate"/>
      <path id="Caminho_232" data-name="Caminho 232" d="M401.539,185.468c0-14.882-18.456-24.667-18.456-24.667H321.067s-18.456,9.786-18.456,24.667a74.422,74.422,0,0,0,1.491,11.489h20.6c-.837,1.511-1.6,2.921-2.2,4.112-.183.36-.385.679-.578,1.024h14.983c1.131,0,.766.472.451-1.192-.456-2.368-1.922-3.712-.482-6.2,1.131-1.947,6.663-3.544,8.893-3.59.487-.01.974-.01,1.445,0q4.86.114,9.72,0a17.319,17.319,0,0,1,3.615.6c1.05.172,4.163-.1,5.506,1.668.877,1.156.8,2.185,1.055,3.595a34.064,34.064,0,0,1-.568,5.116h18.776a55.128,55.128,0,0,1-3.6-5.136h18.329A74.425,74.425,0,0,0,401.539,185.468Z" transform="translate(-289.987 -34.181)" fill="#fd425f"/>
      <path id="Caminho_233" data-name="Caminho 233" d="M401.539,185.468c0-14.882-18.456-24.667-18.456-24.667H321.067s-18.456,9.786-18.456,24.667a74.422,74.422,0,0,0,1.491,11.489h20.6c-.837,1.511-1.6,2.921-2.2,4.112-.183.36-.385.679-.578,1.024h14.983c1.131,0,.766.472.451-1.192-.456-2.368-1.922-3.712-.482-6.2,1.131-1.947,6.663-3.544,8.893-3.59.487-.01.974-.01,1.445,0q4.86.114,9.72,0a17.319,17.319,0,0,1,3.615.6c1.05.172,4.163-.1,5.506,1.668.877,1.156.8,2.185,1.055,3.595a34.064,34.064,0,0,1-.568,5.116h18.776a55.128,55.128,0,0,1-3.6-5.136h18.329A74.425,74.425,0,0,0,401.539,185.468Z" transform="translate(-289.987 -34.181)" fill="#bd1337"/>
      <path id="Caminho_234" data-name="Caminho 234" d="M322.171,146.921s-23.684,51.18-21.96,57.99c.431,1.7,29.236,19.1,42.8,16.605l5.517-1.019S328.4,146.556,322.171,146.921Z" transform="translate(-300.121 -90.683)" fill="#00bad1"/>
      <path id="Caminho_235" data-name="Caminho 235" d="M341.877,146.921s23.684,51.18,21.96,57.99c-.431,1.7-29.235,19.1-42.8,16.605l-5.517-1.019S335.65,146.556,341.877,146.921Z" transform="translate(-237.439 -90.683)" fill="#00bad1"/>
      <path id="Caminho_236" data-name="Caminho 236" d="M309.781,150.451a35.73,35.73,0,0,1-.908,7.474c-2.094,9.248-5.395,18.9-1.932,28.293,2.621,7.1,6.82,14.319,10.688,21.143a17.241,17.241,0,0,0,3.757-.218l5.517-1.019S317.676,172.228,309.781,150.451Z" transform="translate(-278.499 -76.31)" fill="#00547a" opacity="0.32" style="mix-blend-mode: multiply;isolation: isolate"/>
      <path id="Caminho_237" data-name="Caminho 237" d="M328.927,204.861a33.241,33.241,0,0,0,2.621-13.639c-.314-9.451-.37-18.9-.218-28.358.066-4.082.172-8.042.411-11.915-7.676,21.772-16.22,53.152-16.22,53.152l5.517,1.019A22.623,22.623,0,0,0,328.927,204.861Z" transform="translate(-237.439 -74.287)" fill="#00547a" opacity="0.32" style="mix-blend-mode: multiply;isolation: isolate"/>
      <path id="Caminho_238" data-name="Caminho 238" d="M321.729,183.851s-15.023,17.878-16.783,21.681,2.54,8.584,8.391,6.632,9.269-5.947,9.365-8.488,3.22-3.889,4.583-4.092,9.172-9.076,8.392-11.515-4.7-5.111-4.7-5.111Z" transform="translate(-282.096 56.009)"/>
      <path id="Caminho_239" data-name="Caminho 239" d="M328.042,183.851s15.018,17.878,16.778,21.681-2.535,8.584-8.391,6.632-9.269-5.947-9.365-8.488-3.22-3.889-4.584-4.092-9.172-9.076-8.391-11.515,4.7-5.111,4.7-5.111Z" transform="translate(-243.495 56.009)"/>
      <path id="Caminho_240" data-name="Caminho 240" d="M335,176.155c-1.79-4.254-2.155-13.259-14.2-13.259-23.207,0-17.767,18.6-17.412,21.377,3.509,27.689,20.347,82.931,20.347,82.931h23.243s-8.452-67.689-9.76-78.124C337.035,187.644,336.224,179.081,335,176.155Z" transform="translate(-290.105 -25.654)" fill="#fd425f"/>
      <path id="Caminho_241" data-name="Caminho 241" d="M325.382,176.155c1.79-4.254,2.155-13.259,14.2-13.259,23.222,0,17.766,18.6,17.411,21.377-3.509,27.689-20.347,82.931-20.347,82.931H313.406s8.452-67.689,9.76-78.124C323.344,187.644,324.155,179.081,325.382,176.155Z" transform="translate(-246.048 -25.654)" fill="#fd425f"/>
      <g id="Grupo_109" data-name="Grupo 109" transform="translate(15.065 83.086)">
        <rect id="Retângulo_85" data-name="Retângulo 85" width="68.248" height="4.046" transform="translate(14.081 47.317)" fill="#110239"/>
        <path id="Caminho_242" data-name="Caminho 242" d="M395.457,152.215h-88.32s-4.766,0-3.95,5.319,11.951,42.52,14.2,42.52h67.831c1.972,0,13.376-37.2,14.192-42.52S395.457,152.215,395.457,152.215Z" transform="translate(-303.092 -152.215)" fill="#110239"/>
        <path id="Caminho_243" data-name="Caminho 243" d="M319.191,160.225a3.656,3.656,0,1,1-3.656-3.651A3.654,3.654,0,0,1,319.191,160.225Z" transform="translate(-267.328 -134.472)" fill="#d0d1de"/>
      </g>
    </g>
    <g id="Grupo_111" data-name="Grupo 111" transform="translate(461.377 506.494)">
      <path id="Caminho_244" data-name="Caminho 244" d="M344.5,206.824l4.1,12.611h13.26l-10.726,7.793,4.1,12.61L344.5,232.045l-10.727,7.794,4.1-12.61-10.727-7.793H340.4Z" transform="translate(-327.139 -206.824)" fill="#d0d1de"/>
      <path id="Caminho_245" data-name="Caminho 245" d="M353.839,206.824l4.1,12.611h13.259l-10.727,7.793,4.1,12.61-10.726-7.794-10.727,7.794,4.1-12.61-10.727-7.793h13.259Z" transform="translate(-289.113 -206.824)" fill="#d0d1de"/>
      <path id="Caminho_246" data-name="Caminho 246" d="M363.181,206.824l4.1,12.611h13.259l-10.727,7.793,4.1,12.61-10.726-7.794-10.728,7.794,4.1-12.61-10.727-7.793h13.26Z" transform="translate(-251.086 -206.824)" fill="#d0d1de"/>
      <path id="Caminho_247" data-name="Caminho 247" d="M372.523,206.824l4.1,12.611h13.259l-10.726,7.793,4.1,12.61-10.726-7.794L361.8,239.839l4.1-12.61-10.728-7.793h13.26Z" transform="translate(-213.06 -206.824)" fill="#d0d1de"/>
      <path id="Caminho_248" data-name="Caminho 248" d="M381.865,206.824l4.1,12.611h13.259l-10.727,7.793,4.1,12.61-10.726-7.794-10.727,7.794,4.1-12.61-10.727-7.793h13.259Z" transform="translate(-175.033 -206.824)" fill="#d0d1de"/>
    </g>
  </g>
</svg>
