<svg xmlns="http://www.w3.org/2000/svg" width="30.108" height="24.398" viewBox="0 0 30.108 24.398">
  <g id="twitter" transform="translate(309.152 -79.654)">
    <g id="Grupo_135" data-name="Grupo 135">
      <path id="Caminho_276" data-name="Caminho 276" d="M-279.044,82.573a9.569,9.569,0,0,1-.7.945,11.619,11.619,0,0,1-2.252,2.132l-.105.2a16.677,16.677,0,0,1-.136,2.732,18.287,18.287,0,0,1-1.621,5.486,18.212,18.212,0,0,1-3.368,4.852,16.606,16.606,0,0,1-8.506,4.725,19.03,19.03,0,0,1-3.438.4c-.186.006-.371.008-.555.008A17.255,17.255,0,0,1-309,101.393l-.149-.092a13.408,13.408,0,0,0,1.448.079,12.523,12.523,0,0,0,4.725-.92,12.237,12.237,0,0,0,2.94-1.717,6.111,6.111,0,0,1-5.7-4.276,5.936,5.936,0,0,0,1.144.111,6.467,6.467,0,0,0,1.495-.18l.093-.046a6.046,6.046,0,0,1-3.978-2.824,5.994,5.994,0,0,1-.885-3.273,6.064,6.064,0,0,0,2.737.738,6.125,6.125,0,0,1-2.507-3.734,6.068,6.068,0,0,1,.7-4.461,17.455,17.455,0,0,0,12.651,6.443c-.033-.254-.066-.461-.1-.68a5.978,5.978,0,0,1,.941-4.022,5.94,5.94,0,0,1,4.194-2.789,6.8,6.8,0,0,1,1.121-.1,5.942,5.942,0,0,1,4.259,1.813.325.325,0,0,0,.226.1.386.386,0,0,0,.1-.013,12.188,12.188,0,0,0,3.6-1.371l.081-.047a6.071,6.071,0,0,1-2.619,3.354A11.906,11.906,0,0,0-279.044,82.573Z" fill="#f83771"/>
    </g>
  </g>
</svg>
