<svg xmlns="http://www.w3.org/2000/svg" xmlns:xlink="http://www.w3.org/1999/xlink" width="101.77" height="101.77" viewBox="0 0 101.77 101.77">
  <defs>
    <clipPath id="clip-path">
      <circle id="Elipse_13" data-name="Elipse 13" cx="50.885" cy="50.885" r="50.885" fill="#364f6b"/>
    </clipPath>
    <linearGradient id="linear-gradient" x1="0.03" y1="0.493" x2="0.353" y2="0.5" gradientUnits="objectBoundingBox">
      <stop offset="0" stop-color="#c1c1c6"/>
      <stop offset="1" stop-color="#ddd"/>
    </linearGradient>
    <linearGradient id="linear-gradient-2" x1="0.799" y1="0.5" x2="0.658" y2="0.5" xlink:href="#linear-gradient"/>
  </defs>
  <g id="user" transform="translate(-150 -2445)">
    <circle id="Elipse_12" data-name="Elipse 12" cx="50.885" cy="50.885" r="50.885" transform="translate(150 2445)" fill="#364f6b"/>
    <g id="Grupo_de_m치scara_1" data-name="Grupo de m치scara 1" transform="translate(150 2445)" clip-path="url(#clip-path)">
      <g id="Grupo_121" data-name="Grupo 121" transform="translate(-15.149 -9.668)">
        <path id="Caminho_250" data-name="Caminho 250" d="M2336.678,1225.44s-2.838,1.2-1.539,7.718,2.424,15.369,6.666,16.061,1.125-24.155,1.125-24.155Z" transform="translate(-2283.296 -1198.227)" fill="#211347"/>
        <path id="Caminho_251" data-name="Caminho 251" d="M2359.685,1213.977s4.388.266,6.479-6.62,5.3-17.276-1.631-19.094c0,0,1.233-4.242-3.712-5.368a52.22,52.22,0,0,0-14.123-1.732,6.22,6.22,0,0,0-4.894,9.783C2344.5,1195.11,2359.685,1213.977,2359.685,1213.977Z" transform="translate(-2288.102 -1162.552)" fill="#211347"/>
        <g id="Grupo_117" data-name="Grupo 117" transform="translate(24.479 25.191)">
          <g id="Grupo_116" data-name="Grupo 116" transform="translate(0 47.895)">
            <path id="Caminho_252" data-name="Caminho 252" d="M2556.075,1535.586l-11.7,2.175-.288-2.458-.62-5.29-.25-2.139-.938-8.006-.25-2.139-.478-4.075-.459-3.928-.25-2.142-.938-8-.25-2.14-.707-6.029.606-1.976.813-2.645,1.055-3.441,3.689-12.024s4.3.922,6.342,7.718a55.554,55.554,0,0,1,1.182,7.748c.093.837.182,1.721.272,2.645.242,2.438.478,5.151.709,8.006.054.7.112,1.419.166,2.14.2,2.612.4,5.312.59,8q.074,1.073.144,2.142c.188,2.734.361,5.437.522,8,.046.723.09,1.438.133,2.139.182,2.958.342,5.684.476,8.006.044.758.084,1.473.123,2.139C2555.964,1533.455,2556.075,1535.586,2556.075,1535.586Z" transform="translate(-2473.584 -1471.325)" fill="url(#linear-gradient)"/>
            <path id="Caminho_253" data-name="Caminho 253" d="M2208.028,1491.412l-.707,6.029-.25,2.14-.935,8-.253,2.142-.459,3.92-.476,4.083-.25,2.139-.938,8.006-.25,2.139-.62,5.29-.288,2.458-11.7-2.175s.111-2.131.3-5.573c.038-.666.076-1.381.123-2.139.13-2.322.291-5.048.473-8.006.044-.7.09-1.416.136-2.139.16-2.566.334-5.269.522-8q.069-1.069.144-2.142c.188-2.691.386-5.391.59-8,.054-.72.112-1.435.166-2.14.231-2.854.468-5.567.71-8.006.09-.924.182-1.808.271-2.645a55.543,55.543,0,0,1,1.183-7.748c2.039-6.8,6.345-7.718,6.345-7.718l3.686,12.024,1.055,3.441.813,2.645Z" transform="translate(-2190.902 -1471.325)" fill="url(#linear-gradient-2)"/>
          </g>
          <path id="Caminho_254" data-name="Caminho 254" d="M2309.854,1445.261l-1.522,18.11-.674,8.006-.179,2.14-.671,8-.179,2.142-.674,8-.179,2.139-.674,8.006-.179,2.139-.672,8-.179,2.142-.53,6.29h-47.931l-.53-6.29-.179-2.142-.672-8-.179-2.139-.674-8.006-.179-2.139-.674-8-.179-2.142-.671-8-.179-2.14-.674-8.006-1.522-18.11,17.942-6.027,12.339,6.027,12.339-6.027Z" transform="translate(-2238.327 -1397.367)" fill="#ddd"/>
          <path id="Caminho_255" data-name="Caminho 255" d="M2369.487,1420.276l-.5.584a15.591,15.591,0,0,1-23.675,0l-.5-.584a14.651,14.651,0,0,1,1.288-.909,23.114,23.114,0,0,1,4.057-2.055,18.889,18.889,0,0,1,13.992-.132,20.966,20.966,0,0,1,4.073,2.171C2368.638,1419.639,2369.061,1419.946,2369.487,1420.276Z" transform="translate(-2315.903 -1378.41)" fill="#c1c1c6"/>
          <rect id="Ret칙ngulo_86" data-name="Ret칙ngulo 86" width="4.27" height="5.735" transform="translate(39.112 42.69)" fill="#5b5857"/>
          <path id="Caminho_256" data-name="Caminho 256" d="M2369.716,1355.122v-9.266h-13.992v9.3a8.683,8.683,0,0,1-4.029,7.313l-.028.018a15.579,15.579,0,0,0,22.122-.016l-.194-.13A8.66,8.66,0,0,1,2369.716,1355.122Z" transform="translate(-2321.475 -1321.525)" fill="#ddb99f"/>
          <path id="Caminho_257" data-name="Caminho 257" d="M2399.6,1345.858v9.8a17.666,17.666,0,0,1-11.138-4.205l.955-5.593Z" transform="translate(-2351.359 -1321.527)" fill="#211347"/>
          <path id="Caminho_258" data-name="Caminho 258" d="M2454.843,1298.789s1.146-1.569,2.17-.344.368,6.555-3.091,4.835S2454.843,1298.789,2454.843,1298.789Z" transform="translate(-2403.445 -1282.638)" fill="#ddb99f"/>
          <path id="Caminho_259" data-name="Caminho 259" d="M2345.1,1298.789s-1.146-1.569-2.17-.344-.368,6.555,3.091,4.835S2345.1,1298.789,2345.1,1298.789Z" transform="translate(-2314.02 -1282.638)" fill="#ddb99f"/>
          <path id="Caminho_260" data-name="Caminho 260" d="M2373.508,1232.414c-.238-5.943-10.958-3.946-10.958-3.946s-10.719-2-10.958,3.946-.428,11.138,2.284,17.68a10.611,10.611,0,0,0,8.083,6.723,3.666,3.666,0,0,0,1.181,0,10.611,10.611,0,0,0,8.083-6.723C2373.936,1243.552,2373.745,1238.358,2373.508,1232.414Z" transform="translate(-2321.312 -1225.921)" fill="#ddb99f"/>
          <circle id="Elipse_9" data-name="Elipse 9" cx="0.685" cy="0.685" r="0.685" transform="translate(44.574 14.95)" fill="#211347"/>
          <path id="Caminho_261" data-name="Caminho 261" d="M2426.614,1275.874a25.63,25.63,0,0,1-3.472.08c-1.188-.119-.731-.637-.457-.9S2426.322,1275,2426.614,1275.874Z" transform="translate(-2378.895 -1263.936)" fill="#211347"/>
          <circle id="Elipse_10" data-name="Elipse 10" cx="0.685" cy="0.685" r="0.685" transform="translate(36.509 14.95)" fill="#211347"/>
          <path id="Caminho_262" data-name="Caminho 262" d="M2375.183,1275.874a25.636,25.636,0,0,0,3.473.08c1.188-.119.731-.637.457-.9S2375.476,1275,2375.183,1275.874Z" transform="translate(-2340.574 -1263.936)" fill="#211347"/>
          <path id="Caminho_263" data-name="Caminho 263" d="M2347.708,1232.381l-.009-4.693a34.407,34.407,0,0,0,1.713-6.057,1.542,1.542,0,0,1,1.521-1.274h15.007a1.547,1.547,0,0,1,1.52,1.266c.313,1.689.968,4.612,1.924,5.865l-.138,5.627a42.087,42.087,0,0,0,1.283-8.474c.143-4.3-2.414-8.391-11.411-8.341s-11.852,2.5-12.47,4.745S2347.708,1232.381,2347.708,1232.381Z" transform="translate(-2317.288 -1216.3)" fill="#211347"/>
          <path id="Caminho_264" data-name="Caminho 264" d="M2404.819,1317.192a11.845,11.845,0,0,0-.124,1.656,7.24,7.24,0,0,0,1.038,0s-.979.853-1.4.216C2403.8,1318.245,2404.819,1317.192,2404.819,1317.192Z" transform="translate(-2364.126 -1298.244)" fill="#211347"/>
          <path id="Caminho_265" data-name="Caminho 265" d="M2344.807,1227.066s2.773,9.48,21.179,1.176Z" transform="translate(-2315.903 -1225.044)" fill="#211347"/>
        </g>
        <g id="Grupo_118" data-name="Grupo 118" transform="translate(63.932 48.103)">
          <path id="Caminho_266" data-name="Caminho 266" d="M2403.9,1338.558h-2.792a.13.13,0,0,1,0-.26h2.792a.13.13,0,0,1,0,.26Z" transform="translate(-2400.978 -1338.298)" fill="#211347"/>
        </g>
        <g id="Grupo_119" data-name="Grupo 119" transform="translate(65.054 48.785)">
          <path id="Caminho_267" data-name="Caminho 267" d="M2407.631,1342.188h-.548a.13.13,0,1,1,0-.26h.548a.13.13,0,1,1,0,.26Z" transform="translate(-2406.953 -1341.928)" fill="#211347"/>
        </g>
        <circle id="Elipse_11" data-name="Elipse 11" cx="66.351" cy="66.351" r="66.351" fill="none"/>
        <g id="Grupo_120" data-name="Grupo 120" transform="translate(56.1 38.638)">
          <path id="Caminho_268" data-name="Caminho 268" d="M2376.241,1288.027a25.416,25.416,0,0,0-4.876-.015,2.545,2.545,0,0,0-1.6.827.838.838,0,0,1-.628.271h-.79a.838.838,0,0,1-.628-.271,2.545,2.545,0,0,0-1.6-.827,25.416,25.416,0,0,0-4.876.015,2.113,2.113,0,0,0-1.958,2.069q.15,1.413.3,2.871a3.043,3.043,0,0,0,2.813,2.5q1.267.068,2.536.009a3.05,3.05,0,0,0,2.795-2.347q.153-.882.305-1.737a.729.729,0,0,1,.709-.614h0a.73.73,0,0,1,.709.614q.152.856.3,1.737a3.049,3.049,0,0,0,2.795,2.347q1.267.059,2.536-.009a3.043,3.043,0,0,0,2.813-2.5q.15-1.457.3-2.871A2.113,2.113,0,0,0,2376.241,1288.027Z" transform="translate(-2359.274 -1287.902)" fill="#211347"/>
        </g>
      </g>
    </g>
  </g>
</svg>
