<svg xmlns="http://www.w3.org/2000/svg" width="32.018" height="22.43" viewBox="0 0 32.018 22.43">
  <g id="youtube" transform="translate(120.527 -81.622)">
    <g id="Grupo_145" data-name="Grupo 145">
      <path id="Caminho_283" data-name="Caminho 283" d="M-89.32,84.531c1.146,3.023,1.1,14.035-.279,16.946a3.85,3.85,0,0,1-1.743,1.754c-1.079.558-7.343.821-13.48.821-5.65,0-11.191-.223-12.488-.646a3.714,3.714,0,0,1-2.445-2.389c-1.035-2.924-1.265-15.167.806-17.581a4,4,0,0,1,2.686-1.418c2.462-.266,7.212-.4,11.9-.4,5.833,0,11.564.2,12.652.6A3.772,3.772,0,0,1-89.32,84.531ZM-108.494,97.67c3.323-1.73,6.633-3.434,9.98-5.164-3.321-1.742-6.605-3.458-9.9-5.188-.027,3.459-.053,6.881-.079,10.352" fill="#f83771"/>
    </g>
  </g>
</svg>
